<?xml version="1.0" encoding="utf-8" ?>
<svg baseProfile="full" height="300mm" version="1.1" viewBox="0,0,200,300" width="200mm" xmlns="http://www.w3.org/2000/svg" xmlns:ev="http://www.w3.org/2001/xml-events" xmlns:xlink="http://www.w3.org/1999/xlink"><defs /><rect fill="#222222" height="300" width="200" x="0" y="0" /><text fill="#FFFFFF" style="font-size:12px; font-family:Arial; font-weight:bold;" x="10" y="20">人生苦短，及时行乐</text><text fill="#FFFFFF" style="font-size:4px; font-family:Arial" x="10" y="280">ATHLETE</text><text fill="#FFFFFF" style="font-size:9px; font-family:Arial" x="10" y="290">PPZ</text><text fill="#FFFFFF" style="font-size:4px; font-family:Arial" x="120" y="280">STATISTICS</text><text fill="#FFFFFF" style="font-size:3px; font-family:Arial" x="120" y="285">Number: 14</text><text fill="#FFFFFF" style="font-size:3px; font-family:Arial" x="120" y="290">Weekly: 7.0</text><text fill="#FFFFFF" style="font-size:3px; font-family:Arial" x="141" y="285">Total: 40.0 km</text><text fill="#FFFFFF" style="font-size:3px; font-family:Arial" x="141" y="290">Avg: 2.9 km</text><text fill="#FFFFFF" style="font-size:3px; font-family:Arial" x="167" y="285">Min: 1.2 km</text><text fill="#FFFFFF" style="font-size:3px; font-family:Arial" x="167" y="290">Max: 4.9 km</text><polyline fill="none" points="41.6217709062621,74.60651516419603 41.655720888171345,74.68010670054355 44.201969520538114,75.60000000000582 42.70817032281775,75.01126848164131 42.30077054165304,74.09137410865515 42.606320377555676,74.23855732099037 41.79152081522625,74.60651516419603 41.45202099753078,74.31214891106356 41.31622107035946,74.09137410865515 41.24832110689022,73.79700755490921 41.282271088683046,73.72341588968993 41.689670869731344,73.6866200529912 41.75757083343342,73.64982421370223 41.75757083343342,73.57623252691701 42.06312066933606,73.64982421370223 42.06312066933606,73.6866200529912 41.96127072395757,73.64982421370223 41.825470796902664,73.39225326309679 41.79152081522625,73.09788630140247 41.79152081522625,73.17147805800778 41.689670869731344,72.9139068632503 41.689670869731344,72.95070275623584 41.75757083343342,72.877110967529 41.825470796902664,72.95070275623584 42.02917068754323,73.53943667953718 41.9952207057504,73.6866200529912 42.26682055974379,73.90739503264194 42.30077054165304,73.79700755490921 42.02917068754323,73.24506980378646 41.9952207057504,73.13468218108756 42.02917068754323,73.09788630140247 42.40262048691511,74.16496572017786 42.606320377555676,73.90739503264194 42.74212030461058,73.6866200529912 40.67117141687777,73.3554574023583 40.399571562884375,73.31866153879673 40.297721617505886,73.20827393219224 39.82242187287193,73.24506980378646 39.482922055060044,73.09788630140247 39.143422237597406,72.84031506910105 38.32862267503515,72.54594778540195 37.98912285757251,72.28837627122994 37.7514729850227,72.28837627122994 37.038523368071765,71.99400866532233 36.52927364164498,71.92041673709173 35.98607393319253,71.5892529268167 35.30707429791801,71.40527293836931 34.76387458969839,71.331680924166 33.439825300942175,70.81653652427485 33.06637550145388,70.74294442409882 32.69292570196558,70.77974047552561 32.149725993862376,70.41177984088426 31.776276194490492,70.22779942292254 31.572576303849928,70.00702283275314 31.199126504478045,69.8598383856588 30.89357666845899,69.56546936254017 30.655926796142012,69.49187707994133 30.282476996653713,69.05032315879362 30.010877142543904,68.93993461810169 29.94297717907466,68.53517642890802 29.73927728855051,67.9832329202327 28.924477725988254,66.62176968317362 28.9584277078975,66.47458424817887 28.68682785378769,66.03302768568392 28.483127963147126,64.7819486593944 27.973878236603923,63.56766310741659 27.77017834596336,62.94212092450471 27.77017834596336,62.79493441586965 27.634378419141285,62.463764614163665 27.634378419141285,62.279781297111185 27.43067852850072,61.8382210622658 27.362778564798646,61.58064408003702 27.193028656067327,61.359863704885356 26.921428801957518,60.36635082078283 26.68377892964054,60.10877308691852 26.51402902067639,59.7776015214331 26.20847918477375,59.55682035710197 26.07267925783526,59.372835979564115 25.835029385401867,58.82088244435727 25.631329494761303,57.937755531602306 25.0881297866581,57.27540933218552 25.020229823188856,57.05462707238621 24.884429896017537,56.7970476471819 24.952329859603196,56.686656424659304 24.816529932548292,56.46587390717468 24.612830041907728,56.24509129294893 24.409130151267163,56.13469994961633 24.13753029727377,55.80352577471058 24.00173037010245,55.4723513823119 24.00173037010245,55.21477114892332 24.103580315364525,55.104379580094246 23.89988042472396,54.368435170239536 23.89988042472396,53.926868008915335 23.933830406633206,53.74288157746196 24.103580315364525,53.48530046080123 24.103580315364525,53.301313868461875 24.17148027883377,53.04373252615915 24.17148027883377,52.74935368829756 24.205430260743015,52.71255632152315 24.13753029727377,52.60216420493089 24.06963033368811,52.01340584177524 24.103580315364525,51.93981099812663 24.13753029727377,51.68222896053339 24.03568035189528,51.35105186171131 23.89988042472396,51.16706449066987 23.96778038830962,50.615101974632125 23.933830406633206,50.394316799065564 23.696180534316227,50.210329078981886 23.696180534316227,50.06313885451527 23.492480643675663,49.95274615800008 23.424580680090003,49.73196069247206 23.322730734711513,49.621567923459224 23.119030844187364,48.95921080184053 23.119030844187364,48.701627241884125 23.017180898808874,48.701627241884125 23.017180898808874,48.22325742416433 23.119030844187364,47.85528033258743 23.22088078944944,47.708089420804754 23.119030844187364,47.37690971212578 23.152980825980194,47.229718660673825 23.017180898808874,46.78814524851623 23.05113088071812,46.493762758997036 22.77953102660831,45.97859298874391 22.915330953663215,46.0889865552017 22.71163106302265,45.94179512790288 22.541881154174916,45.573816371528665 22.406081227120012,45.50022058797185 22.372131245327182,45.24263526118011 22.066581409424543,44.61707034820574 22.066581409424543,44.43308052021894 21.96473146416247,44.028302662365604 21.93078148236964,44.028302662365604 22.03263142774813,43.88111063351971 21.93078148236964,43.18194790970301 21.896831500693224,41.93081219482701 21.761031573521905,41.52603232834372 21.761031573521905,41.26844497141428 21.727081591961905,41.23164676682791 21.761031573521905,41.047655703587225 21.65918162825983,40.71647162066074 21.251781847095117,40.31169077937375 21.217831865418702,40.05410280212527 21.319681810680777,40.017304508859525 21.251781847095117,39.943707914382685 21.319681810680777,39.79651469315286 21.45548173773568,39.61252310636337 21.52338170132134,39.465329788508825 21.727081591961905,39.31813642758061 21.828931537107565,39.06054794287775 21.79498155543115,38.839757708250545 21.93078148236964,38.43497536040377 21.93078148236964,38.03019268764183 21.9986814459553,37.809402001905255 21.93078148236964,37.77260354490136 22.03263142774813,37.515014270553365 22.440031208796427,36.96303681095014 22.64373109943699,36.74224565792247 22.915330953663215,36.26386449459824 23.05113088071812,36.07987161865458 23.18693080788944,36.04307303545647 23.2887807530351,35.89587867559749 23.18693080788944,35.564691208826844 23.254830771358684,35.38069807778811 23.08508086251095,35.12310758148669 23.152980825980194,34.79191960711614 23.05113088071812,34.46073141525267 23.05113088071812,34.12954300575075 23.18693080788944,33.90875061205588 23.18693080788944,33.72475687667611 23.560380607261322,32.988781263818964 23.59433058882132,32.73118954553502 23.356680716620758,32.547195380408084 23.2887807530351,32.547195380408084 23.08508086251095,32.40000000002328 22.77953102660831,32.43679884917219 22.74558104481548,32.547195380408084 21.96473146416247,32.767988370440435 21.896831500693224,32.9151836434321 22.134481373010203,33.319970422569895 22.168431354803033,33.83515312595409 22.202381336595863,33.90875061205588 22.304231281974353,33.9455493510759 22.372131245327182,34.12954300575075 22.507931172382087,34.276737881300505 22.473981190705672,34.534328810026636 22.64373109943699,34.86551695349044 22.507931172382087,35.63828844251111 22.507931172382087,35.78548287754529 22.74558104481548,36.116670199262444 22.71163106302265,36.411058747034986 22.575831135967746,36.52145440818276 22.609781117760576,36.852641246514395 22.541881154174916,37.11023085922352 22.406081227120012,37.515014270553365 22.270281300065108,37.66220815764973 22.10053139133379,38.10378956142813 22.03263142774813,38.582168979075504 21.828931537107565,38.839757708250545 21.86288151878398,39.35493477189448 21.761031573521905,39.64932142908219 21.42153175594285,39.90690961308428 21.285731828887947,40.164497665537056 21.183881883509457,40.20129594806349 21.115981920040213,40.422085586498724 20.980181992868893,40.458883850078564 21.149931901833043,41.45243595415377 21.082031938247383,41.82041771808872 21.149931901833043,42.07800479303114 21.38758177415002,42.409187981742434 21.557331682997756,43.29234208833077 21.65918162825983,43.51313037335058 21.625231646583416,43.62352447959711 21.93078148236964,44.10189866065048 21.93078148236964,44.543474425096065 22.066581409424543,44.764262162236264 22.066581409424543,45.68421002666582 22.10053139133379,45.94179512790288 22.473981190705672,46.60415621276479 22.473981190705672,46.97213421727065 22.575831135967746,47.08252756629372 22.64373109943699,47.37690971212578 22.609781117760576,47.85528033258743 22.81348100816831,48.11286432493944 22.98323091713246,48.4440435503202 22.98323091713246,49.17999660570058 23.152980825980194,49.511175130232004 23.18693080788944,49.915948587004095 23.2887807530351,50.17353152690339 23.424580680090003,50.32072171906475 23.492480643675663,50.541506926878355 23.458530661882833,50.79908954707207 23.798030479461886,51.27745692137978 23.798030479461886,51.46144425214152 23.696180534316227,51.86621614359319 23.83198046137113,52.270987710304325 23.696180534316227,52.822948413930135 23.696180534316227,53.33811119227903 23.560380607261322,53.632489686482586 22.98323091713246,54.25804341613548 22.94928093533963,54.368435170239536 23.254830771358684,54.69961028758553 23.356680716620758,54.69961028758553 23.390630698297173,54.84679915878223 23.798030479461886,55.14117677239119 23.764080497901887,55.2515683331294 23.86593044316396,55.398757043352816 24.17148027883377,55.58274287058157 24.578880060114898,55.913917190540815 24.918379877810366,56.57626517795143 25.32577965897508,56.870641782152234 25.39367962256074,57.05462707238621 25.733179440023378,57.27540933218552 25.801079403841868,57.422597451659385 26.140579221304506,57.68017655736185 26.242429166682996,57.86416155245388 26.61587896605488,58.78408552048495 26.547979002585635,59.188851534971036 26.68377892964054,59.59361722457106 26.68377892964054,59.7776015214331 26.819578856579028,59.88799206740805 26.853528838488273,60.182366738590645 27.023278747219592,60.40314762914204 27.362778564798646,61.32306696634623 27.43067852850072,61.654237516981084 27.362778564798646,61.727830943098525 27.43067852850072,61.87501776320278 27.43067852850072,62.206187951465836 27.90597827313468,62.94212092450471 28.041778200189583,63.05251077792491 28.211528109153733,63.3836801929865 28.245478090713732,63.56766310741659 28.211528109153733,63.86203563091112 28.38127801788505,64.23000104364473 28.449177981354296,64.56116968553397 28.584977908525616,64.7083556788275 28.65287787199486,65.11311693891184 29.026327671366744,65.59147073663189 29.162127598538063,65.92263848465518 29.060277653159574,66.10662047291407 29.060277653159574,66.54817697103135 29.196077580214478,67.13691836717771 29.128177616628818,67.28410360886483 29.399777470738627,67.68886280193692 29.399777470738627,67.90964040672407 29.263977543800138,68.0568254229729 29.365827489062212,68.09362167032668 29.63742734317202,68.38799155232846 29.773227270226926,68.7191574643366 30.010877142543904,69.01352698123083 30.723826759611256,69.45508093468379 30.75777674128767,69.52867322260863 30.92752665025182,69.56546936254017 31.199126504478045,69.82304226717679 31.402826395002194,69.93343061453197 31.640476267319173,69.93343061453197 31.640476267319173,70.04381893781829 31.708376231021248,70.00702283275314 32.319475902593695,70.48537198931444 32.72687568375841,70.44857591649634 33.100325483246706,70.558964126918 33.643525191466324,70.41177984088426 34.15277491789311,70.33818768174388 34.69597462611273,70.48537198931444 36.12187386036385,70.522168059455 36.699023550376296,70.669352313329 37.106423331657425,70.59576019179076 37.47987313102931,70.48537198931444 37.7514729850227,70.30139159812825 37.98912285757251,70.30139159812825 38.260722711565904,70.08061504023499 38.60022252926137,69.93343061453197 38.93972234695684,69.89663450146327 39.27922216441948,69.82304226717679 40.09402172698174,69.8598383856588 40.331671599298716,69.67585776632768 40.263771635713056,69.56546936254017 40.60327145329211,69.49187707994133 40.80697134393267,69.38148863590322 40.77302136225626,69.30789632644155 40.87487130751833,69.27110016762163 40.94277127098758,69.16071167535847 41.18042114353739,69.05032315879362 41.31622107035946,69.08711933373706 41.38412103394512,69.19750784209464 41.45202099753078,69.12391550582834 42.877920231665485,69.01352698123083 43.21742004924454,68.86634224426234 43.45506992179435,68.82954605334089 43.52296988526359,68.7191574643366 43.896419684635475,68.68236126258853 44.134069556952454,68.5719726413372 44.23591950221453,68.5719726413372 44.64331928349566,68.86634224426234 45.152569009922445,68.90313843250624 45.69576871814206,69.38148863590322 46.171068462892435,70.41177984088426 46.34081837174017,70.48537198931444 46.51056828070432,70.74294442409882 46.61241822584998,71.14770084171323 46.78216813469771,71.36847693257732 46.71426817111205,71.4788649417751 47.01981800713111,71.92041673709173 46.85006809816696,72.28837627122994 46.95191804354545,72.54594778540195 46.81611811649054,72.7667232642707 46.00131855416112,73.20827393219224 45.69576871814206,73.57623252691701 45.45811884570867,73.6130283716775 45.084669046336785,73.28186567267403" stroke="#ffc000" stroke-linecap="round" stroke-linejoin="round" stroke-width="0.5"><title>2023-12-14 4.9km</title><desc>10379184693</desc></polyline><polyline fill="none" points="79.19346938759554,64.92507451906567 78.40000000002328,66.10354451579042 78.51755102025345,66.16724550613435 78.6057142856298,66.03984351624968 78.69387755088974,65.88059097656514 78.7232653060928,65.65763732345658 78.81142857123632,65.62578679234139 78.92897959169932,65.49838464448112 79.07591836724896,65.08432740721037 79.04653061216231,65.46653410166618 78.98775510187261,66.80425489813206 79.16408163262531,66.39019889905467 79.16408163262531,64.92507451906567 79.19346938759554,64.25621175492415 79.45795918360818,63.30069174314849 79.57551020395476,63.0458860535291 79.39918367343489,62.79108021527645 79.42857142840512,62.631826490862295 79.57551020395476,62.50442346956697 79.86938775493763,61.9311094135046 79.7812244896777,61.89925861050142 79.8399999999674,61.61260127936839 79.81061224488076,61.58075045316946 79.8987755101407,61.58075045316946 79.95755102031399,61.45334712511976 79.95755102031399,61.2940929128963 80.07510204066057,61.03928605240071 80.01632653048728,60.81632992750383 80.04571428557392,60.62522458701278 80.31020408158656,59.988206181442365 80.80979591829237,57.63123000017367 80.98612244892865,56.99420722670038 81.16244897956494,56.83495138809667 81.42693877557758,56.35718352391268 81.5738775508944,55.974968856113264 81.89714285708033,55.65645637741545 82.48489795916248,54.637214884132845 82.86693877528887,54.15944461518666 83.98367346927989,53.012793836707715 84.3657142855227,52.56687327628606 84.65959183662198,52.3439128252794 84.98285714280792,52.05724922101945 85.24734693870414,52.025397697783774 85.51183673471678,52.18465529064997 85.71755102020688,52.025397697783774 86.07020408147946,52.216506802185904 86.3346938774921,52.08910074189771 86.48163265292533,51.80243697031983 86.7167346937349,51.70688233792316 86.8342857141979,51.420218315382954 87.06938775500748,51.26096044378937 87.24571428564377,51.037999325897545 87.56897959171329,50.78318648034474 87.62775510188658,50.56022511853371 87.95102040807251,50.24170868983492 88.0097959182458,50.1461537158757 87.95102040807251,50.17800537619041 87.98040816315915,50.1461537158757 88.27428571425844,49.85948866864783 88.27428571425844,49.7639336110733 88.3918367344886,49.668378532573115 89.1265306121204,49.15875109413173 89.42040816321969,49.15875109413173 89.56734693865292,49.031344141520094 89.65551020391285,49.031344141520094 89.77306122449227,48.87208539858693 89.89061224472243,48.80838188508642 89.94938775512855,48.71282659744611 90.50775510189123,48.266901645372855 90.71346938761417,48.012087182549294 90.86040816316381,47.598013363283826 91.56571428559255,46.99282784402021 91.80081632651854,46.54690113518154 92.47673469374422,46.037270053057 93.3877551020123,45.145414227910805 94.53387755097356,44.189852393523324 95.20979591831565,43.96688766457373 95.41551020403858,43.87133131726296 95.65061224484816,43.680218559951754 96.09142857126426,43.45725357072661 97.06122448970564,43.1387319600035 99.05959183664527,42.94761888196808 99.91183673462365,42.82021011679899 100.05877551017329,42.91576669414644 100.4408163264161,42.94761888196808 100.91102040815167,42.85206231154734 102.20408163254615,42.310574684350286 102.76244897954166,41.96019997948315 103.23265306116082,41.80093865701929 103.79102040815633,41.355006645055255 104.2024489796022,41.19574510183884 104.40816326520871,41.25944972608704 104.61387755093165,41.832790926186135 104.81959183665458,42.11946124385577 105.14285714284051,43.04317543140496 105.3779591837665,43.520957864966476 105.7599999998929,43.90318343532272 106.02448979590554,44.09429609501967 106.40653061226476,44.285408671043115 106.58285714278463,44.3172607588931 106.81795918359421,44.54022530897055 106.8767346937675,44.7631897450774 106.84734693868086,44.92244998694514 106.99428571411408,45.272822314465884 106.99428571411408,45.33652634383179 107.17061224475037,45.97356612602016 107.69959183665924,46.99282784402021 107.93469387746882,47.215791027614614 108.1110204081051,47.66171705335728 108.22857142845169,47.85282806772739 108.2873469387414,48.20319804362953 108.2873469387414,48.61727128888015 108.46367346937768,49.190602826391114 108.58122448960785,49.41356488777092 108.52244897955097,49.92319202874205 108.55183673463762,50.20985703414772 108.6693877549842,50.305411994108 108.7281632652739,50.78318648034474 108.9044897959102,51.32466359940008 108.99265306105372,51.45206988279824 109.02204081625678,51.67503078922164 109.25714285706636,52.31206132302759 109.52163265296258,52.6305762414122 109.78612244897522,53.07649673675769 110.28571428568102,53.490565360407345 110.49142857140396,53.617971011728514 110.78530612238683,53.93648497748654 111.1379591836594,54.22314734803513 111.1967346938327,54.35055278553045 111.54938775510527,54.509809530252824 112.75428571435623,54.76462020096369 112.98938775516581,55.051282027794514 113.40081632649526,55.27424109625281 113.81224489794113,55.43349750404013 113.95918367337435,55.529051320889266 114.95836734690238,55.81571264585364 115.42857142852154,56.038671324029565 115.84000000008382,56.35718352391268 116.98612244892865,56.707546675461344 118.3085714285262,56.707546675461344 118.63183673471212,56.83495138809667 118.925714285695,56.803100213437574 119.01387755107135,56.77124903645017 119.04326530615799,56.61199311655946 119.16081632650457,56.51643953664461 119.07265306112822,56.54829073237488 119.10204081633128,56.4527371385484 118.98448979586829,56.35718352391268 119.04326530615799,55.879415136849275 119.21959183667786,55.752010145399254 119.48408163257409,55.81571264585364 119.68979591841344,55.91126637897105 119.68979591841344,55.974968856113264 119.39591836731415,55.943117618735414 119.10204081633128,56.006820091221016 119.04326530615799,55.91126637897105 119.13142857141793,55.720158891781466 119.19020408170763,55.720158891781466 119.16081632650457,55.81571264585364 118.808163265232,55.91126637897105 118.71999999985565,55.974968856113264 118.690612244769,56.038671324029565 118.7493877550587,56.038671324029565 118.66122448979877,56.16607623183518 118.51428571424913,56.261629888322204 118.45551020407584,56.229778671840904 118.45551020407584,56.2934811024752 119.21959183667786,56.77124903645017 119.68979591841344,57.18531415631878 120.01306122448295,57.66308111444232 120.51265306118876,57.66308111444232 120.51265306118876,57.75863444330753 120.65959183662198,57.694932226324454 120.86530612246133,57.726783335994696 120.92408163263462,57.53567664339789 120.92408163263462,57.24901644757483 121.07102040806785,57.21716530312551 121.59999999997672,56.707546675461344 120.92408163263462,55.879415136849275 120.98285714280792,55.752010145399254 120.92408163263462,55.306092382466886 120.83591836725827,55.14683592822985 120.65959183662198,54.76462020096369 120.30693877534941,54.38240413906169 120.21877551020589,54.095741873199586 120.36571428575553,54.82832284539472 120.24816326529253,54.923876794666285 119.95428571419325,54.669066216854844" stroke="#fff400" stroke-linecap="round" stroke-linejoin="round" stroke-width="0.5"><title>2023-12-14 2.9km</title><desc>10378325155</desc></polyline><polyline fill="none" points="173.14078947377857,48.571409369295 172.75000000011642,48.14787450619042 172.6789473685203,48.18637768959161 172.6078947368078,48.34039039516938 172.57236842124257,48.30188722300227 172.5368421053281,48.34039039516938 172.64342105272226,48.45589989493601 172.78552631591447,48.840931378130335 172.71447368420195,49.148956362419995 172.64342105272226,49.264465685293544 172.64342105272226,49.456981167109916 172.8210526315961,49.533987340226304 172.92763157899026,49.919018037151545 173.3184210526524,50.07303023728309 173.53157894744072,49.880514980177395 173.56710526323877,50.22704239253653 173.60263157903682,50.22704239253653 173.53157894744072,50.535066568263574 173.63815789483488,50.95859951633611 173.81578947370872,51.11261141326395 174.2065789474873,51.613149767916184 174.59736842114944,51.92117313487688 174.8460526316194,52.19069343368756 175.23684210528154,52.421710722963326 175.4144736843882,52.69123076615506 175.59210526326206,52.768236467498355 175.73421052645426,52.96075067183119 175.9828947369242,53.153264805849176 175.9828947369242,53.07625916058896 176.08947368431836,53.114761984645156 176.16052631579805,53.19176762420102 176.3381578947883,53.26877325255191 176.5513157894602,53.46128727425821 176.90657894755714,53.692304007709026 177.0486842105165,53.730806786741596 177.11973684222903,53.61529844120378 177.43947368429508,53.88481787501951 177.75921052624471,53.9618234023219 178.04342105274554,54.15433717131964 178.7184210527921,54.34685087017715 179.03815789485816,54.30834813602269 179.25131578964647,54.38535360156675 179.5,54.616369930590736 179.7131578947883,55.00139692114317 179.89078947377857,55.11690496356459 180.88552631589118,55.5404342362599 181.80921052629128,56.07947100093588 182.1644736843882,56.348989176913165 182.83947368420195,56.65700978101813 183.26578947377857,57.08053781828494 183.40789473685436,57.38855799558223 183.51447368424851,57.46556301185046 183.76315789483488,57.581070515181636 184.04736842110287,57.619573010655586 184.29605263168924,57.7735829645826 184.65131578966975,57.85058792468044 184.86447368422523,58.08160273756948 185.29078947380185,58.31261744941003 185.36184210528154,58.50512963210349 185.57500000018626,58.851651384087745 185.57500000018626,59.005660978582455 185.1842105264077,60.23773611753131 184.9000000001397,60.584256732458016 185.0421052632155,60.314740718284156 185.00657894753385,60.35324301439687 184.9710526317358,60.314740718284156 185.07763157901354,60.199233813007595 185.43289473687764,60.1607315056026 185.85921052633785,59.96821992655168 186.49868421058636,59.96821992655168 187.31578947382513,59.77570827733143 187.60000000009313,59.8912152753328 187.52894736849703,60.199233813007595 187.31578947382513,60.314740718284156 187.31578947382513,60.89227486576419 187.17368421063293,61.3543017290358 187.3513157896232,61.50831059354823 187.28026315791067,61.70082161104074 187.17368421063293,61.73932380619226 187.20921052643098,62.12434560258407 187.03157894755714,62.393860693031456 186.96052631584462,62.62487351815798 186.81842105276883,62.778882012178656 186.71184210537467,63.16390305059031 186.64078947377857,63.2794093072589 186.49868421058636,63.39491553881089 186.3921052631922,63.89544224998099 186.25000000011642,64.04945037333528 186.25000000011642,64.20345845189877 186.1078947369242,64.47297248116229 185.93026315805037,64.54997646415723 185.8947368422523,64.93499621120282 185.71710526326206,65.24301180665498 185.681578947464,65.20450986700598 185.7526315790601,65.28151374342269 185.7526315790601,65.35851760866353 185.61052631598432,66.01305000926368 185.43289473687764,66.24406125099631 185.50394736859016,66.32106497581117 185.4684210526757,66.20555938439793 185.25526315788738,66.47507239173865 185.0421052632155,66.47507239173865 185.00657894753385,66.8600907351065 184.54473684204277,67.32211237651063 184.43815789488144,67.5531230456545 184.43815789488144,67.78413361369167 184.58026315795723,67.89963885981706 184.54473684204277,68.01514408065123 184.11842105269898,68.4386630076333 184.04736842110287,68.66967318832758 183.62105263164267,69.59371290035779 183.19473684229888,69.9017257783562 182.87500000011642,70.51775099543738 182.76842105272226,70.82576333446195 182.62631578953005,70.90276639119838 182.34210526326206,71.24928000735235 181.98684210528154,71.51879044048837 182.0223684210796,71.94230655755382 181.84473684220575,72.13481377111748 181.84473684220575,72.05781089418451 181.77368421072606,72.09631233403343 181.56052631593775,72.55832939420361 181.31184210523497,72.55832939420361 180.88552631589118,72.36582233489025 180.74342105269898,72.13481377111748 180.38815789471846,72.01930945142522 179.96184210525826,71.44178747362457 179.85526315809693,71.595793396089 179.53552631591447,71.71129780850606 179.1447368422523,71.24928000735235 178.7894736842718,71.0567724708817 178.5763157894835,71.0567724708817 178.2921052632155,70.59475409705192 178.0078947369475,70.47924944045371 177.79473684215918,70.28674162327661 177.58157894737087,69.67071613663575 177.22631578950677,69.17019489972154 177.08421052643098,69.09319159033475 177.08421052643098,68.97768660529982 176.94210526323877,68.90068326785695 176.69342105276883,68.74667655938538 176.48026315798052,68.4386630076333 176.23157894751057,68.2846561644401 176.0539473684039,68.09214754716959 175.7697368421359,68.09214754716959 175.7697368421359,68.01514408065123 175.6986842106562,67.93814060295699 175.4144736843882,67.78413361369167 175.272368421196,67.51462127448758 175.0592105264077,67.47611950046849 174.95263157901354,67.36061416161829 174.88157894753385,67.09110160628916 174.70394736842718,66.89859255391639 174.70394736842718,66.9755961833871 174.59736842114944,66.93709437004873 174.52631578955334,66.66758159853634 174.34868421056308,66.62907976275892 174.34868421056308,66.59057792427484 174.2776315790834,66.62907976275892 174.13552631577477,66.55207608290948 173.95789473690093,66.16705751497648 173.53157894744072,65.9360462394834 173.38947368424851,65.9360462394834 173.35394736856688,65.74353676609462 173.28289473697077,65.78203866633703 172.96315789490473,65.55102722239099 172.92763157899026,65.43552146255388 172.71447368420195,65.39701953699114 172.64342105272226,65.39701953699114 172.64342105272226,65.47402338526445 172.50131578941364,65.28151374342269 172.43026315793395,65.32001567742554 172.181578947464,65.28151374342269 172.07500000006985,65.24301180665498 172.0394736842718,65.0890040313243 171.8263157895999,65.24301180665498 171.68421052629128,65.43552146255388 171.04473684215918,65.74353676609462 170.51184210530482,65.9360462394834 170.33421052643098,66.051551889861 170.26315789471846,66.24406125099631 170.15657894744072,66.35956683399854 169.76578947366215,66.12855564279016 169.80131578957662,66.09005376775167 169.76578947366215,66.12855564279016 169.375,65.78203866633703 169.090789473732,65.78203866633703 168.91315789485816,65.97454812572687 168.34473684220575,66.051551889861 168.27368421060964,66.20555938439793 168.13157894730102,66.28256311485893 168.20263157912996,66.43657054199139 167.98947368434165,66.47507239173865 167.74078947375529,66.70608343140339 167.1368421051884,66.8600907351065 166.95921052631456,67.01409799378598 166.95921052631456,67.09110160628916 166.67500000004657,67.24510879768059 166.49736842117272,67.12960340836435 166.07105263171252,67.05259980147821 165.96447368431836,66.74458526150556 165.8578947369242,66.70608343140339 165.5736842106562,66.78308708890108 165.3605263158679,66.66758159853634 165.21842105255928,66.78308708890108 164.68552631582133,66.78308708890108 164.3657894738717,66.89859255391639 164.11710526316892,66.82158891338622 163.6907894735923,66.43657054199139 163.4065789473243,66.47507239173865 163.22894736845046,66.55207608290948 163.12236842117272,66.70608343140339 163.15789473685436,66.8600907351065 162.94473684206605,66.8600907351065 162.80263157899026,67.01409799378598 162.66052631579805,67.05259980147821 162.4828947368078,67.24510879768059 162.340789473732,67.28361058846349 162.4118421053281,67.3991159440775 162.30526315793395,67.47611950046849 162.23421052645426,67.66862834224594 162.1276315790601,68.09214754716959 162.02105263166595,68.36165959163918 161.8434210526757,68.47716471142485 161.66578947368544,68.4386630076333 161.31052631593775,68.51566641239333 160.9197368422756,68.4386630076333 160.35131578939036,68.13064927619416 159.78289473685436,67.89963885981706 159.67631578957662,67.78413361369167 159.5342105263844,67.5531230456545 159.5342105263844,67.20660700404551 160.0315789473243,65.85904245858546 160.42236842110287,65.24301180665498 160.60000000009313,64.66548241779674 160.7065789474873,64.54997646415723 160.67105263157282,63.93394428511965 160.84868421044666,63.471919679053826 160.9197368422756,63.39491553881089 161.06184210523497,63.35641346441116 161.2039473685436,63.16390305059031 161.5592105264077,62.89438835307374 161.9144736842718,62.43236283751321 161.87894736859016,62.393860693031456 162.02105263166595,62.16284776676912 162.1986842105398,61.931834739400074 163.0513157894602,61.50831059354823 163.44210526323877,61.20029281949974 163.79736842098646,60.73826582156471 164.22368421056308,59.85271294545964 164.11710526316892,59.46768949259422 163.47763157903682,58.38962233095663 163.12236842117272,58.19711010609171 162.83815789490473,58.19711010609171 162.6960526315961,58.15860765276011 161.7013157894835,57.00353274581721 160.77763157896698,56.38749176223064 160.06710526312236,55.694444796507014 159.49868421058636,54.885888853430515 158.7526315789437,54.5008617786516 158.50394736859016,54.15433717131964 158.07763157901354,53.76930956306751 157.65131578955334,53.46128727425821 157.40263157896698,53.384281674050726 156.69210526300594,52.88374499848578 156.33684210525826,52.768236467498355 155.5907894736156,52.69123076615506 155.05789473687764,52.38320784844109 154.45394736842718,51.88267022385844 153.92105263168924,51.26662326519727 153.352631578804,50.766084582108306 151.82500000006985,49.68799965266953 151.46973684208933,49.533987340226304 150.90131578943692,49.37997498281766 150.65263157896698,49.18745947285788 150.3328947367845,49.11045324927545 149.8355263157282,49.225962580530904 148.9828947368078,49.03344701437163 148.09473684197292,48.994943892757874 147.8460526316194,48.917937641061144 146.14078947366215,48.917937641061144 145.50131578953005,48.840931378130335 145.03947368415538,48.68691881845007 144.8263157894835,48.30188722300227 144.86184210516512,47.955358546896605 144.75526315777097,47.68583608607878 144.71973684220575,47.37781024808646 144.79078947368544,46.91577115401742 144.61315789469518,46.45373165557976 144.5421052632155,44.490059276198735 144.50657894741744,43.103933199017774 144.5421052632155,42.410868795617716 144.47105263150297,41.98732898995513 144.50657894741744,41.679299827024806 144.40000000002328,39.79261728216079 144.57763157889713,37.905927994375816 144.50657894741744,36.98183282176615 144.64868421060964,36.44277655737824 144.86184210516512,36.09624009663821 145.43026315781754,35.48017471595085 145.99868421046995,35.44167060579639 148.41447368415538,36.48128059445298 149.125,36.673800738033606 149.80000000004657,37.05884081454133 150.29736842098646,37.21285676653497 150.47500000009313,37.366872673650505 150.97236842103302,37.52088853571331 153.03289473685436,37.905927994375816 154.20526315795723,38.52199054413359 155.19999999995343,38.75301381482859 155.76842105260585,38.94553312993958 156.1592105263844,38.9840369844751 156.5144736841321,38.94553312993958 157.65131578955334,39.561594466416864 158.11315789469518,39.6771058869781 160.2447368419962,40.83221870230045 161.2039473685436,41.40977416204987 161.66578947368544,41.83331443098723 162.1276315790601,42.295357973198406 163.93947368429508,43.334954464575276 164.40131578943692,43.75849318903056 164.4368421053514,43.912507186381845 164.6500000001397,44.14352809815318 164.7210526316194,44.413052367424825 165.5026315790601,44.56706617376767 165.9289473684039,44.79808679915732 166.31973684206605,45.33713453178643 167.1368421051884,45.68366492644418 167.95394736842718,46.53073826679611 169.26842105260585,47.416313487658044 171.18684210523497,49.49548425513785 172.181578947464,49.99602414292167" stroke="#ffcd00" stroke-linecap="round" stroke-linejoin="round" stroke-width="0.5"><title>2023-12-14 4.4km</title><desc>10377368240</desc></polyline><polyline fill="none" points="14.010820766212419,122.66092505349661 14.395922353025526,122.73918139320449 14.468128900392912,122.79135227677762 14.684748542844318,122.53049778263085 14.564404297037981,122.16530117104412 14.612541995476931,121.98270272547961 14.708817392122,121.93053172394866 14.997643582173623,121.90444622025825 15.262400922947563,121.77401867354638 15.454951716237701,121.72184764154372 15.840053303050809,122.13921568455407 16.032604096340947,122.37398499474511 16.34549913543742,122.58266869667568 16.39363683387637,122.66092505349661 16.65839417465031,122.76526683595148 16.826876118779182,122.94786488206591 17.115702308830805,123.02612115896773 17.54894159385003,123.33914609550266 17.621148141333833,123.36523149450659 17.6452169904951,123.52174384862883 17.741492387256585,123.60000000000582 17.813698934740387,123.57391461808584 17.982180878869258,123.4174022868392 18.102525124675594,123.07829200074775 18.12659397383686,122.68701050194795 18.17473167227581,122.60875415080227 18.415420163888484,122.45224139725906 18.53576440969482,121.95661722566001 18.632039806456305,121.74793315853458 18.704246353940107,121.30447911156807 18.632039806456305,121.12188022650662 18.632039806456305,120.9392812482547 18.704246353940107,120.75668217678322 18.969003694830462,120.33931252060574 19.089347940520383,119.79151410769555 19.185623337281868,119.58282877731835 19.137485638959333,119.37414332519984 19.1615544881206,119.00894349103328 19.40224297984969,118.43505728393211 19.474449527217075,117.93942754584714 19.66700032062363,117.469882949983 19.715138018946163,117.15685287688393 19.811413415707648,116.81773665529909 19.787344566429965,116.53079190888093 19.931757661513984,116.40036240260815 19.95582651067525,116.00907359839766 20.100239605642855,115.66995628844597 20.413134644855745,114.6526024294435 20.46127234317828,114.18305351849995 20.605685438145883,113.81784838371095 20.629754287423566,113.32221224723617 20.84637392987497,112.56571366189746 20.84637392987497,112.38311031542253 20.966718175681308,112.17442066234071 20.966718175681308,111.93964465710451 21.111131270765327,111.62660974371829 21.279613214777783,111.00053909487906 21.375888611539267,110.34838100353954 21.568439404829405,109.53970331855817 21.496232857345603,109.22666630448657 21.231475516571663,108.9136290163151 19.546656074817292,108.18320761166979 19.40224297984969,108.0788615749625 19.137485638959333,107.9745155077253 18.99307254399173,107.9745155077253 18.896797147230245,107.84408288099803 18.80052175046876,107.8179963499133 18.415420163888484,107.73973674530862 18.198800521320663,107.60930403287057 17.42859734792728,107.32235189815401 16.850944968056865,107.00931294297334 16.441774532198906,106.87887996420613 15.69564020796679,106.51366737030912 15.719709057128057,106.35714757311507 15.743777906289324,106.40932084643282 15.719709057128057,106.53975399653427 15.791915604611859,106.53975399653427 15.815984453773126,106.35714757311507 15.912259850418195,106.14845440350473 15.86412215209566,105.78324106367654 15.912259850418195,105.65280763769988 16.08074179466348,105.33976722104126 16.225154889631085,105.1571601848118 16.369567984715104,104.79194583260687 16.513981079566292,104.63542528174003 16.53804992872756,104.42673110731994 16.802807269617915,103.95716876967344 17.211977705475874,103.27891097115935 17.88590548222419,102.36586959543638 18.27100706892088,102.05282630136935 19.089347940520383,101.00934667509864 19.233761035604402,100.85282446851488 19.42631182889454,100.74847629270516 19.474449527217075,100.61804103013128 19.42631182889454,100.48760572003084 19.64293147146236,100.51369278584025 19.8354822647525,100.27890912481234 20.124308454804122,100.20064787028241 20.31685924809426,99.86151556906407 21.087062421487644,99.44412152603036 21.135200119926594,99.41803438216448 21.135200119926594,99.33977293915814 21.47216400806792,99.28759863428422 21.809127896558493,99.07890133868204 22.0257475390099,99.07890133868204 22.290504879900254,98.818029547896 22.868157259887084,98.6615063821373 23.325465394067578,98.42672150491853 23.975324321654625,98.19193647350767 24.40856360667385,97.98323853840702 24.432632455718704,97.90497678137035 24.360425908351317,97.8788895252219 24.577045550802723,97.8788895252219 24.673320947564207,97.85280226709438 24.865871740854345,97.61801685890532 25.202835629228503,97.3571440022497 25.419455271679908,96.96583436039509 25.491661819280125,96.70496102792094 25.780488009215333,96.05277686397312 25.8045568583766,95.92233988843509 25.684212612570263,95.53102867625421 25.70828146173153,95.37450407148572 25.660143763408996,95.19189194598584 25.39538642251864,94.5657925218693 25.178766780067235,93.78316669986816 24.98621598666068,93.39185314648785 25.058422534144484,93.02662677681656 25.034353684983216,93.00053916472825 24.98621598666068,92.76575057007722 24.962147137499414,92.32226058180095 24.889940590132028,92.0874715418031 24.769596344209276,91.87877004337497 24.793665193370543,91.77441924856976 24.69738979660906,91.48745440560742 24.69738979660906,91.2787525569438 24.625183249125257,90.88743626241921 24.625183249125257,90.41785614355467 24.552976701641455,90.28741711218026 24.577045550802723,90.10480238837772 24.456701304996386,89.92218757123919 24.456701304996386,89.34825468147756 24.264150511589833,88.69605709749158 24.33635705919005,88.48735361927538 24.264150511589833,88.20038613784709 24.2882193607511,87.96559439081466 24.143806265783496,87.57427446974907 24.167875114944763,87.23513019163511 24.047530869138427,86.37422404071549 24.143806265783496,86.269871639146 24.143806265783496,85.98290237769834 24.09566856746096,85.878549861809 23.999393170815893,85.82637359248474 23.951255472376943,85.64375658985227 24.02346201997716,85.46113949391292 24.047530869138427,85.30461048026336 23.975324321654625,84.52196438406827 24.071599718299694,84.18281721018138 24.33635705919005,83.94802282447927 24.601114400080405,83.63496340357233 24.74552749504801,83.5306102023169 27.17648126091808,83.16537375818007 27.754133641021326,82.98275539610768 27.946684434311464,82.80013694072841 28.115166378440335,82.69578349584481 28.187372925924137,82.74796022212831 28.500267965137027,82.74796022212831 28.909438400994986,82.66969512987998 29.150126892724074,82.6436067619943 29.342677686014213,82.51316489389865 29.559297328582034,82.56534164684126 29.775916970917024,82.53925327130128 30.305431652697735,82.25228101501125 30.71460208867211,82.22619261668297 30.810877485200763,82.17401581420563 31.171910222736187,82.17401581420563 31.67735605535563,82.06966218654998 31.845837999368086,82.147927410173 31.94211339612957,82.04357377483393 32.303146133664995,82.06966218654998 32.399421530310065,82.01748536128434 32.85672966449056,81.88704326475272 33.04928045789711,81.91313168781926 33.554726290283725,81.80877798399888 35.40802767616697,81.36527440272039 35.93754235794768,81.18265512102516 37.116915967082605,80.94785876464448 37.98339453723747,80.68697374334442 38.39256497309543,80.5043541151681 38.77766655967571,80.47826558924862 38.99428620224353,80.40000000002328 39.30718124145642,80.53044263916672 39.355318939778954,80.58261968154693 39.379387788823806,80.73915076284902 39.45159433642402,80.89568177561159 39.40345663810149,81.39136286379653 39.33125009061769,81.75660112060723 39.49973203474656,82.06966218654998 39.57193858223036,82.82622529723449 39.45159433642402,83.13928542638314 39.259043543133885,84.05237590384786 38.99428620224353,84.65240551906754 38.92207965475973,85.01764044395532 38.80173540895339,85.20025776646798 38.75359771063086,85.878549861809 38.60918461554684,86.1655192070757 38.58511576638557,86.47857641184237 38.68139116303064,86.8959855917783 38.68139116303064,87.20904215693008 38.72952886146959,87.2873062553117 38.849873107275926,87.39165835996391 38.87394195643719,87.46992241844418 38.849873107275926,87.78297848094371 38.87394195643719,87.91341842612019 38.87394195643719,88.2264741002582 39.06649274972733,88.69605709749158 39.13869929732755,89.42651831160765 39.49973203474656,90.31350492226193 39.49973203474656,90.65264628003933 39.83669592323713,91.74833154506632 39.88483362144325,92.21790991639136 39.788558224681765,92.34834824342397 40.053315565688536,93.26141520016245 40.053315565688536,93.52229104517028 40.245866358978674,94.01795462635346 40.26993520813994,94.43535500386497 40.34214175562374,94.5657925218693 40.39027945406269,94.90492984605953 40.39027945406269,95.11362957791425 40.43841715238523,95.27015429691528 40.58283024735283,95.32232918799855 40.70317449315917,95.42667894737679 40.6791056439979,95.37450407148572 40.72724334243685,95.42667894737679 40.96793183393311,95.53102867625421 40.943862984888256,95.84407768023084 41.06420723069459,96.20930117179523 42.09916774497833,98.13976200119941 42.53240702988114,98.79194235833711 42.821233219932765,99.10498850731528 43.03785286238417,99.5223829462193 43.08599056082312,99.7310799829429 43.06192171166185,99.86151556906407 43.25447250495199,100.17456078156829 43.302610203274526,100.5397798497579 43.44702329824213,100.85282446851488 43.63957409153227,101.11369477474364 43.711780639132485,101.42673889105208 43.85619373410009,101.60934783230186 43.92840028158389,101.87021758657647 44.14501992415171,102.36586959543638 44.16908877331298,102.65282570762793 44.33757071744185,103.04412912580301 44.31350186828058,103.22673724108608 44.433846114203334,103.77456102738506 44.53012151073199,104.08760281425202 44.53012151073199,104.34847076059668 44.602328058332205,104.68759880625294 44.57825920917094,104.89629282843089 44.62639690749347,105.26150707405759 44.93929194670636,105.96584778020042 45.10777389083523,106.0441077730502 45.73356396926101,106.46149411221268 46.022390159312636,106.72236032679211 46.648180237622,107.03539953305153 46.93700642767362,107.24409218502115 47.322108014370315,107.24409218502115 47.68314075167291,107.45278471513302 48.11638003680855,107.53104438257287 48.573688170989044,107.68756366605521 49.151340550975874,107.94842898621573 49.31982249522116,108.00060202745954 49.367960193543695,107.94842898621573 49.31982249522116,107.79190981693682 49.34389134438243,107.73973674530862 49.367960193543695,107.8179963499133 49.536442137672566,107.89625593743403 49.48830443935003,108.0788615749625 49.60864868515637,108.15712110532331 50.06595681945328,108.33972660973086 50.23443876358215,108.36581310271868 50.59547150111757,108.54841850048979 50.76395344524644,108.52233202080242 51.05277963518165,108.67885087034665 51.43788122187834,108.73102380504133 51.84705165785272,108.88754256328684 52.01553360198159,108.88754256328684 52.23215324443299,109.01797480945243 52.617254831129685,109.04406125302194 52.665392529568635,109.25275273277657 52.85794332285877,109.38318484582123 52.83387447358109,109.56578972408897 52.97828756866511,109.33101200632518 53.05049411614891,109.33101200632518 53.243044909555465,109.43535767766298 53.98917923378758,109.72230811690679 53.916972686187364,109.82665367421578 53.86883498786483,109.82665367421578 53.72442189278081,109.74839450913714 53.84476613870356,109.82665367421578 53.86883498786483,109.82665367421578 53.84476613870356,109.77448089938844 53.772559591336176,109.72230811690679 53.652215345413424,109.74839450913714 53.70035304373596,109.77448089938844 53.86883498786483,109.77448089938844 53.86883498786483,109.72230811690679 53.820697289542295,109.6962217229302 53.70035304373596,109.6962217229302 53.74849074205849,109.77448089938844 53.8929038370261,109.77448089938844 53.86883498786483,109.72230811690679 53.820697289542295,109.67013532697456 53.58000879781321,109.64404892912717 53.507802250329405,109.72230811690679 53.48373340128455,109.67013532697456" stroke="#ffc300" stroke-linecap="round" stroke-linejoin="round" stroke-width="0.5"><title>2023-12-13 4.8km</title><desc>10373312158</desc></polyline><polyline fill="none" points="110.89215153711848,96.8334460874321 110.75972416298464,96.33111774077406 110.29622835270129,95.68526663223747 110.03137360443361,95.11117640242446 110.56108310143463,94.82413116178941 111.02457891125232,94.9676537924679 111.355647347169,95.46998283528956 111.15700628608465,96.61816254165024 110.82593785016797,97.04872958618216 110.75972416298464,97.33577417774359 111.22321997303516,98.69923484465107 111.15700628608465,99.20156198274344 110.29622835270129,99.91917173494585 110.09758729138412,100.20621548907366 109.6340914813336,100.42149824992521 109.23680935846642,101.06734624982346 108.5746724868659,101.64143300504657 107.71389455371536,102.14375864103204 107.51525349216536,102.64608402061276 107.25039874366485,103.00488770630909 104.99913338036276,104.00953732995549 104.66806494444609,104.87066476233304 104.20456913439557,105.15770707261981 103.87350069871172,105.51650984236039 103.80728701176122,105.66003091371385 103.87350069871172,105.87531248142477 103.60864595021121,106.37763595627621 104.80049231857993,107.38228213676484 105.46262919041328,107.74108409538167 106.98554399516433,108.74572888406692 109.8327325428836,110.82677554053953 110.16380097856745,111.18557624338428 110.29622835270129,111.54437681561103 110.4286557273008,111.4008566023549 111.02457891125232,111.54437681561103 111.42186103435233,111.83141717890976 111.4880747217685,112.0466973966686 110.95836522453465,112.54901772143785 110.56108310143463,112.83605779183563 110.03137360443361,112.83605779183563 109.70030516851693,113.123097778589 108.97195460950024,112.979577795777 108.44224511249922,113.33837771374965 108.04496298963204,114.12773707305314 107.31661243084818,114.77357607765589 107.05175768211484,115.49117447476601 106.0585523750633,116.20877234864747 105.0653470675461,117.213408492913 104.33699650876224,117.57220686750952 103.87350069871172,118.36156283086166 102.88029539119452,118.79212036216632 102.28437220701016,119.36619677755516 101.4235942736268,121.01666460681008 100.69524371507578,121.66249909077305 100.36417527939193,122.23657383193495 99.90067946934141,122.52361107681645 99.4371836592909,122.66712966782507 98.97368784900755,123.16944457200589 98.11290991608985,123.59999999997672 97.8480551673565,123.52824077516561 97.31834567012265,123.02592605428072 96.9872772344388,122.45185177354142 96.32514036260545,121.73425845173188 96.19271298847161,121.8060178073938 95.66300349123776,121.51898035313934 94.53737080981955,121.73425845173188 93.74280656361952,122.88240751525154 93.54416550230235,123.3847223094781 93.34552444075234,123.52824077516561 92.35231913323514,123.4564815449412 91.95503701060079,122.95416678744368 91.42532751336694,122.73888895573327 90.89561801590025,122.30833315104246 90.16726745734923,121.16018341755262 88.51192527846433,119.43795630603563 88.51192527846433,119.07915861165384 88.71056634001434,118.93563949753297 88.90920740133151,118.93563949753297 89.04163477569818,119.2226777052274 89.24027583724819,119.15091816114727 89.76998533424921,118.50508202891797 90.29969483148307,118.218043611967 90.56454958021641,117.64396652666619 91.02804539026693,117.28516817843774 92.08746438496746,114.91709579899907 92.41853282065131,114.34301678824704 93.47795181511901,113.62541755387792 93.54416550230235,113.33837771374965 94.47115712240338,111.97493732941803 94.66979818395339,110.97029583726544 95.53057611687109,109.0327700637863 95.92785823973827,108.67396857589483 96.19271298847161,108.02812556829304 96.9872772344388,107.23876131657744 97.51698673167266,106.09059400204569 96.72242248570547,105.44474929885473 96.12649930152111,104.44010114046978 95.86164455278777,104.22481925867032 94.80222555808723,103.72249468497466 94.40494343522005,103.22016985475784 94.00766131235287,103.07664842769736 91.88882332341745,101.42615051107714 90.56454958021641,100.9955853818683 89.83619902166538,100.49325915967347 89.5713442726992,100.13445455842884 90.03484008298256,99.56036692397902 89.83619902166538,98.77099588018609 89.24027583724819,98.55571275821421 89.3064895241987,98.12514637305867 89.5051305857487,98.12514637305867 89.43891689856537,97.98162420280278 89.37270321138203,98.05338529072469 89.70377164706588,97.83810201170854 89.76998533424921,97.55105756659759 89.96862639579922,97.26401303766761 90.89561801590025,96.905207258882 91.2266864515841,95.46998283528956 92.2198917591013,94.68060851009795 95.00086661987007,91.09253541450016 96.58999511157162,88.43735290056793 96.65620879852213,87.93502026773058 98.4439783517737,85.63863925152691 99.03990153619088,84.41868465667358 99.6358247208409,83.7010636003688 100.49660265352577,81.8352464044583 101.29116689949296,81.04586114099948 101.95330377109349,81.04586114099948 102.08573114546016,80.61528709420236 102.61544064269401,80.39999999996508 103.4100048886612,81.11762346391333 103.54243226279505,81.11762346391333 103.80728701176122,81.54819729109295 105.59505656454712,83.05520420212997 106.52204818464816,83.9881120857317 107.51525349216536,84.63397087156773 107.71389455371536,85.13630518963328 107.44903980544768,86.14097305672476 107.6476808662992,86.42802083032439" stroke="#ffff00" stroke-linecap="round" stroke-linejoin="round" stroke-width="0.5"><title>2023-12-13 1.9km</title><desc>10372191603</desc></polyline><polyline fill="none" points="151.42841016990133,123.59999999997672 151.56291715288535,123.21126108412864 151.56291715288535,122.57955986220622 152.1009450852871,121.024600456818 152.23545206827112,120.29571198631311 152.68380867829546,118.74074725084938 152.8631513225846,117.86607799242483 152.90798698342405,117.33155732473824 153.17700094962493,116.55407195183216 153.2218366106972,116.21392181579722 153.4460149158258,115.77658567146864 153.58052189880982,115.1448774007149 153.53568623797037,114.36738947592676 153.8047002039384,113.93005211965647 154.4323994582519,111.59758137061726 154.56690644123591,111.25742870406248 154.70141342421994,110.09118967194809 155.14977003424428,108.87635517574381 155.1946056955494,107.95307947718538 155.55329098342918,106.78683466062648 155.64296230534092,106.2523051041062 156.22582589881495,104.94027619238477 156.53967552585527,102.55918008612934 156.80868949182332,101.5873016785481 156.94319647504017,100.90698594972491 157.0328677969519,100.61542185320286 157.39155308506452,100.08088734472403 157.39155308506452,100.17807546915719 157.34671742422506,100.22666952596046 157.39155308506452,100.08088734472403 157.7950740342494,99.40057007747237 157.75023837340996,99.10900532169035 157.88474535616115,98.81744043831713 158.1985949834343,98.52587542729452 158.46760894963518,97.9427450223011 158.96080122049898,97.35961410700111 160.619720678078,95.80459583719494 161.42676257668063,94.68692421354353 162.45798277994618,93.9094124129042 163.44436732213944,92.79173760942649 163.62370996642858,92.79173760942649 163.9823952545412,93.08330513024703 164.20657355943695,93.37487252347637 164.1617378985975,93.56925071467413 164.1169022375252,93.37487252347637 164.78943715291098,93.66643978905631 164.96877979673445,93.66643978905631 165.3274650850799,93.13189970463281 165.73098603403196,92.84033220517449 166.44835661049,92.06281824910548 168.37629003403708,90.41059807920828 168.95915362727828,90.11902938847197 169.54201722051948,89.19572769268416 171.87347159325145,86.86317033937667 172.32182820350863,86.03705431806156 172.904691796517,85.55110323859844 173.57722671190277,84.77358077425743 174.51877559325658,84.04465263948077 175.19131050864235,83.16993782483041 175.50516013568267,82.87836596457055 176.1776950508356,82.68398465361679 176.85022996598855,82.29522186139366 177.1640795932617,81.95505423203576 177.79177884734236,81.61488642904442 178.8678347116802,80.93455030181212 180.5715898303315,80.39999999996508" stroke="#ffff00" stroke-linecap="round" stroke-linejoin="round" stroke-width="0.5"><title>2023-12-12 1.9km</title><desc>10367724574</desc></polyline><polyline fill="none" points="54.28397350967862,155.4883383718552 54.91337748314254,155.11626064550364 55.5999999998603,155.05424767534714 55.5999999998603,154.93022172147175 55.428344370564446,154.4341177244787 55.085033112438396,154.24807865120238 54.45562913874164,154.24807865120238 52.910728476708755,153.31788267346565 52.96794701972976,152.5117120030336 52.910728476708755,152.387685678259 51.70913907256909,151.45748766534962 50.679205297725275,150.34124870662345 49.992582781473175,149.72111531859264 48.96264900639653,148.9769546558964 47.98993377457373,148.54286063526524 47.93271523155272,148.04675291175954 47.761059602489695,147.9227259356412 47.017218542983755,147.42661785025848 46.21615894022398,147.30259078368545 46.15894039697014,147.30259078368545 46.15894039697014,146.86849590821657 45.872847681865096,146.49641440989217 45.186225165380165,146.2483599873376 43.98463576147333,145.38016893836902 43.92741721845232,145.19412788393674 43.58410596009344,145.1321141900844 43.46966887405142,144.88405936944764 43.06913907267153,144.44996325910324 41.75311258248985,143.51975656248396 40.66596026485786,142.96163205587072 40.15099337720312,142.5895488479291 39.5215894037392,142.4655210757046 35.974039735039696,140.35704618081218 35.45907284761779,140.17100402724463 34.600794701837,139.73690551077016 34.0858278144151,139.67489141889382 33.6280794700142,139.05475025129272 32.59814569517039,138.55863699159818 31.682649006601423,138.62065116479062 30.824370860587806,138.12453765183454 30.023311258060858,137.8764807865955 27.906225165352225,136.88425260264194 26.3041059600655,136.26410939957714 25.50304635753855,136.01605199155165 24.87364238407463,135.6439657440642 24.01536423829384,135.51993695861893 21.955496688839048,134.71374941273825 21.326092715142295,134.6517349545029 20.525033112615347,134.34166259522317 20.124503311235458,134.09360462648328 17.49245033110492,133.34943028585985 16.920264900662005,133.10137202753685 16.34807947021909,133.1633865989279 15.833112582564354,133.03935745178023 15.375364238396287,132.7292845044285 14.574304635869339,132.7292845044285 14.116556291468441,133.2874157281476 13.029403973603621,134.03159012296237 12.628874172223732,134.58972049166914 12.399999999906868,135.1478504940169 12.628874172223732,136.3261237400584 12.628874172223732,136.8222383024986 12.457218543160707,137.69043809041614 12.457218543160707,138.68266533355927 12.514437085948884,141.2872563378769 12.743311258265749,143.70579798310064 12.628874172223732,145.38016893836902 12.68609271524474,148.29480680968845 12.628874172223732,149.1009814782883 12.68609271524474,150.21722206508275 12.68609271524474,150.77534180920338 12.743311258265749,152.3256725089741 12.800529801286757,152.63573830982205 13.029403973603621,152.88379086897476 13.658807947067544,153.19385646627052 14.288211920531467,153.31788267346565 15.089271523291245,153.19385646627052 17.664105960167944,153.13184335583355 18.293509933631867,153.00781712151365 20.238940397277474,153.37989577028202 20.696688741678372,153.31788267346565 21.612185430480167,153.62794811249478 22.470463576028123,153.62794811249478 25.731920529622585,154.6821697591804 27.963443708606064,155.98444175359327 29.393907284596935,157.22469894163078 29.679999999701977,157.53476295585278 31.45377483428456,158.4649543206324 32.59814569517039,159.20910667971475 33.91417218511924,160.2633214070229 34.65801324509084,160.63539688108722 35.40185430436395,160.82143455703044 35.85960264899768,161.317534827278 36.431788079440594,161.4415598496562 37.06119205290452,162.49577180930646 37.461721854051575,162.49577180930646 37.63337748334743,162.7438214921276 38.49165562889539,163.23992064088816 38.89218543050811,163.3019330141833 39.40715231793001,163.7980318373884 39.75046357605606,163.922056498006 40.093774834414944,164.29413037124323 40.780397350667045,164.54217952943873 42.49695364246145,166.40254591056146 43.98463576147333,167.2707154955715 44.15629139053635,167.2707154955715 45.12900662235916,166.89864292478887 45.586754966760054,166.65059445379302 46.616688741603866,165.28632657031994 46.95999999996275,164.9762653823127 47.47496688715182,164.85224087553797 47.98993377457373,164.9762653823127 48.504900662228465,164.9762653823127 49.01986754965037,164.7902286152821 49.534834436839446,164.04608114034636 50.335894039366394,162.7438214921276" stroke="#ffff00" stroke-linecap="round" stroke-linejoin="round" stroke-width="0.5"><title>2023-12-12 2.1km</title><desc>10366736030</desc></polyline><polyline fill="none" points="121.12009641644545,144.9974644020549 120.05768046481535,144.12392626219662 119.72796516935341,143.56803762519849 119.43488490697928,142.5356715072703 119.36161484126933,142.0591941770981 119.43488490697928,142.1386070944427 119.3982498741243,141.78124887510785 118.8120893491432,138.9223746743519 117.05360777419992,134.55462120418088 115.88128672423773,132.45014565545716 115.69811156019568,131.89424509520177 115.66147652734071,131.7354162594129 115.25849116640165,131.53688014941872 114.7456007071305,130.42507659539115 114.01290005072951,129.19414858261007 113.93962998501956,129.27356337709352 113.86635991930962,129.07502636910067 113.39010449289344,128.51912236129283 113.13365926314145,128.40000000002328 112.7306739022024,128.51912236129283 112.43759363982826,128.71765957208117 111.8147980819922,129.31327077007154 111.00882736011408,129.82946661431924 109.87314134300686,130.26624733084464 109.10380565398373,130.50449121033307 109.10380565398373,130.3456619689823 108.33446996472776,130.86185683394433 107.63840434141457,131.0603931901569 104.19471125700511,131.5765873772616 101.59362392732874,132.56926713022403 100.78765320545062,132.96633852444938 99.65196718811058,133.72077337524388 98.5895512367133,134.59432821188238 96.50135436630808,136.6590886155027 95.40230338205583,137.29439793303027 94.92604795540683,137.6914658799651 93.60718677425757,139.3194414335594 88.95453760703094,143.7268630079925 86.09700504783541,146.62541810344555 85.6207496211864,147.2607157882012 85.10785916191526,148.2533669359982 84.74150883359835,149.00778059777804 84.04544321028516,151.9460133140965 83.7523629476782,152.81953890097793 83.312742554117,153.97100230568321 83.27610752102919,153.93129671167117 80.38193992897868,166.35900626014336 79.97895456803963,167.62955482996767 79.90568450232968,167.98689608089626 79.68587430543266,167.90748693433125 79.72250933828764,168.06630521596526 79.64923927281052,168.54275978304213 79.20961887901649,170.48827827096102 78.87990358355455,171.60000000000582" stroke="#fff400" stroke-linecap="round" stroke-linejoin="round" stroke-width="0.5"><title>2023-12-12 2.9km</title><desc>10366295050</desc></polyline><polyline fill="none" points="174.58111272088718,171.06527377836755 174.72207555815112,171.02707902740804 174.54587201145478,170.950689517078 174.22870562737808,171.02707902740804 174.08774279034697,170.91249475767836 173.7353356970707,170.79791046286118 173.55913215037435,170.83610523064272 172.81907725450583,170.72152091911994 172.04378164932132,170.53054701079964 171.72661526536103,170.33957303289208 171.37420817220118,170.26318342221202 170.84559753222857,170.07220934677753 170.2465054737404,169.95762486805324 169.7883762526326,169.7284558354877 169.4359691592399,169.6138712815591 169.25976561265998,169.42289696936496 168.23778504214715,169.04094813583652 167.67393369309139,168.92636343149934 166.40526815713383,168.35343953341362 165.94713893602602,168.31524458469357 165.38328758697025,168.16246476146625 164.64323269098531,167.85690498139593 164.1498627604451,167.8187099964125 163.79745566705242,167.55134502315195 163.55077070195694,167.47495500560035 162.88119722460397,167.0930047511647 162.35258658486418,166.52007884712657 162.14114232896827,166.40549359103898 161.85921665420756,166.1763230036886 161.61253168899566,165.83256693460862 161.2248838864034,164.76310216530692 161.08392104902305,163.0825102570816 160.80199537449516,162.24221227999078 160.90771750244312,161.89845362785854 160.7315139558632,161.66928106785053 160.13242189737502,161.4401084074343 160.02669976931065,160.98176278569736 159.46284842013847,159.6831146783079 159.21616345481016,159.2247675184044 158.93423778016586,158.26987631304655 158.75803423346952,157.8115279158519 158.44086784974206,157.2385918550135 158.3351457216777,156.8948299176118 158.12370146578178,156.58926356144366 158.0532200470334,156.24550119772903 157.7360536630731,155.7489551625622 157.63033153524157,155.59617167248507 156.81979522074107,153.91555033781333 156.6788323833607,153.15162976580905 156.46738812734839,152.9224533768429 156.2207031622529,152.7696690618177 155.97401819680817,152.42590418990585 155.33968542900402,152.0821390922938 155.30444471968804,151.73837376886513 154.8815562077798,151.432804403099 154.77583407971542,151.24182345884037 154.74059337051585,151.35641203369596 154.52914911450353,151.28001965326257 154.3177048586076,151.28001965326257 154.21198273054324,151.2036272616242 154.2472234397428,150.93625380317098 154.74059337051585,150.24872142568347 154.98727833572775,149.2938138479367 154.95203762641177,147.38399346673395 154.5643898238195,146.12350819833227 154.14150131191127,145.58875595530844 154.2824641491752,145.35957625543233 154.2824641491752,145.206789732998 154.14150131191127,144.5192498305696 153.96529776521493,144.17547954063048 153.64813138125464,142.91498654618044 153.5776499627391,142.7621993102075 153.47192783467472,142.074656196899 153.08428003219888,141.08153677207883 152.7671136482386,139.78283929658937 152.69663222960662,139.63005114646512 152.69663222960662,139.13348935049726 152.55566939222626,138.67512419761624 152.66139152017422,137.56740675441688 152.55566939222626,137.07084300168208 152.59091010165866,136.80346232434385 153.04903932276648,135.6575435885752 153.0137986134505,135.04638590366812 153.22524286946282,134.4352275050478 153.2957242880948,134.0150556921435 153.68337209068704,132.90732838655822 153.789094218635,132.25796991056995 153.85957563726697,131.99058677459834 153.85957563726697,131.45582009272766 153.5776499627391,130.61547134577995 153.71861280000303,130.30988964880817 153.71861280000303,129.96611002628924 153.5424092534231,129.08756107644876 153.2604835786624,128.78197848732816 153.2604835786624,128.74378065107157 153.2957242880948,128.66738497040933 153.96529776521493,128.590989278513 154.45866769575514,128.40000000002328 154.70535266119987,128.43819786122185 154.81107478914782,128.590989278513 154.63487124245148,129.43134127595113 154.70535266119987,129.66052795024007 154.74059337051585,130.27169192410656 154.8463154983474,130.88285518440534 154.81107478914782,131.45582009272766 155.02251904516015,131.72320350192604 154.77583407971542,132.29616749033448 154.35294556780718,132.56355047030956 154.35294556780718,132.63994558225386 154.45866769575514,132.7163406831678 154.45866769575514,133.06011849921197 154.3177048586076,133.32750108881737 154.21198273054324,133.9768582378747 153.96529776521493,134.47342492593452 153.93005705589894,134.85539898078423 153.64813138125464,135.46655688862666 153.47192783467472,136.03951677927398 153.36620570672676,137.03264577046502 153.33096499741077,137.98757571578608 153.43668712524232,138.98070101073245 153.5776499627391,139.55365705461008 153.71861280000303,140.5467793782591 154.0710198932793,141.57809672004078 154.52914911450353,142.151049920707 154.45866769575514,142.30383733497 154.52914911450353,142.68580567557365 154.8463154983474,143.4879382835643 154.67011195176747,143.67892205671524 154.95203762641177,144.09908611222636 154.8463154983474,144.40465975899133 155.19872259174008,145.24498636781937 155.0930004636757,145.66514916636515 155.30444471968804,146.27629445312778 155.37492613832,147.00202855441603 155.4101668477524,146.96383204788435 155.6568518128479,147.26940402240143 155.9387774874922,148.14792245530407 155.86829606886022,148.64447570013 155.97401819680817,148.98824305518065 155.97401819680817,149.25561750866473 155.90353677829262,149.4084028492507 155.9387774874922,149.67577708803583 155.7273332317127,150.47789898517658 155.83305535954423,150.82166513625998 155.6920925222803,151.16543106167228 155.7273332317127,151.39460821973626 155.83305535954423,151.66198144416558 156.15022174350452,152.2349236079899 156.32642529020086,152.7314729760983 156.46738812734839,152.88425730227027 156.71407309279311,153.41900209287996 157.45412798854522,154.373902146006 157.84177579113748,155.29060455836589 158.19418288429733,155.82534689092427 158.44086784974206,156.05452200912987 158.617071396322,156.36008867737837 158.79327494290192,156.9330256996036 158.89899707084987,157.12400456759497 158.96947848948184,157.4677663545881 159.1456820361782,157.8115279158519 159.42760771082249,158.57544168818276 159.6390519668348,158.95739815646084 159.74477409466635,159.53033233617316 159.9209776413627,159.79770140556502 160.06194047862664,159.9504836696142 160.59055111848284,161.55469475020072 160.76675466517918,162.12762608769117 160.76675466517918,162.50957996444777 160.97819892095868,163.0825102570816 161.08392104902305,163.7700257805991 161.189643176971,164.07558794572833 161.189643176971,164.83949257840868 161.43632814241573,165.25963965128176 161.5068095609313,165.56520094705047 161.75349452637602,166.0999327856407 162.2468644567998,166.63466407801025 162.88119722460397,167.0166146667907 163.51552999252453,167.58954002763494 163.93841850443278,167.66593002830632 164.29082559759263,167.9714899198152 164.431788434973,168.04787986492738 164.64323269098531,167.9332949432428 164.99563978414517,167.62773502938217 165.66521326149814,167.51315001572948 166.75767525052652,167.66593002830632 167.95585936761927,167.66593002830632 168.73115497268736,167.7805150085769 169.36548774060793,167.70412502458203 169.68265412468463,167.51315001572948 170.95131966029294,167.0930047511647 171.51517100946512,166.63466407801025 172.50191087054554,166.0617376723967 172.74859583587386,166.0617376723967 173.03052151051816,166.2145181085507 173.4181693131104,166.13812789611984 173.84105782490224,166.2145181085507 174.22870562737808,166.0999327856407 174.96876052336302,166.2145181085507 175.7792968378635,165.87076206461643 176.0964632218238,165.67978638701607 176.76603669894394,165.75617666647304 177.29464733891655,166.25271321056061 177.82325797888916,166.44368867916637 177.89373939740472,166.71105421805987 178.14042436273303,167.1311997891462 178.17566507204901,167.36036995850736 178.77475713053718,168.39163447948522 179.16240493324585,168.88816852433956 179.44433060777374,169.42289696936496 179.44433060777374,169.7284558354877 179.09192351449747,169.99581969712744 178.7042757119052,170.07220934677753 177.75277656002436,170.64513136414462 177.47085088549647,170.72152091911994 177.08320308290422,171.06527377836755 176.73079598962795,171.25624749163399 176.589833152364,171.52361057317466 176.48411102441605,171.60000000000582 176.23742605908774,171.56180528792902 175.95550038444344,171.37083168618847 175.70881541934796,171.37083168618847 175.14496406994294,171.2180527545861 174.86303839541506,171.25624749163399" stroke="#ffe000" stroke-linecap="round" stroke-linejoin="round" stroke-width="0.5"><title>2023-12-11 3.6km</title><desc>10363351419</desc></polyline><polyline fill="none" points="12.400000000023283,211.0837079808698 12.400000000023283,211.22653768616146 12.426357535179704,211.22653768616146 12.584502745768987,211.05514203358325 12.795363026321866,210.9408782235405 13.164368517464027,210.9408782235405 13.427943868329749,210.74091647577006 13.55973154376261,210.76948244593223 13.717876754235476,211.02657608420122 14.376815131283365,211.62646058388054 14.403172666323371,211.71215829456924 14.798535692505538,212.02638307324378 14.851250762701966,212.14064656672417 15.1675411836477,212.34060759993736 15.352043929393403,212.39773930501542 15.483831604709849,212.54056853117072 15.536546674906276,212.68339770520106 15.74740695557557,212.82622682713554 16.063697376521304,212.96905589709058 16.300915192230605,212.88335846137488 16.2745576571906,212.45487100174068 16.45906040270347,212.08351482418948 16.40634533262346,211.68359239315032 16.66992068348918,211.54076285441988 16.77535082376562,211.34080141287996 16.77535082376562,211.02657608420122 16.933496034354903,210.5409546258743 17.06528370967135,209.76967224865803 17.618791946442798,207.8557427523192 17.75057962187566,207.28441870203824 17.75057962187566,206.99875636445358 17.80329469195567,206.7702263443207 18.066870042821392,206.0846354838868 18.11958511301782,205.17051246998017 18.22501525329426,204.99911416738178 18.3304453935707,204.54205166033353 18.646735814632848,203.599358555075 18.752165955025703,203.39939305919688 18.857596095185727,202.54239692061674 19.04209884093143,201.99963172955904 19.094813911011443,201.59969900228316 19.332031726837158,200.5712986852741 19.437461867113598,200.19993124052417 19.701037217862904,199.60002923969296 19.885539963492192,198.25738809851464 20.175472849514335,197.14327812517877 20.439048200147226,196.80047441873467 20.62355094589293,196.34340234354022 20.676266015972942,196.00059793703258 20.913483831682242,195.8291956211906 21.30884685786441,195.14358560784603 21.466992068453692,195.14358560784603 21.75692495435942,194.85791441472247 22.073215375305153,194.62937731010607 22.57400854199659,194.05803396517877 22.78486882254947,193.74379477018374 23.10115924361162,193.48668978671776 24.023672971408814,192.51540277007734 24.208175717038102,192.57253736717394 24.392678462550975,192.85821022751043 24.471751067903824,192.8296429508482 24.471751067903824,192.97247931326274 24.603538743336685,193.08674836572027 24.814399023889564,193.1438828794344 24.946186699322425,193.05818110573455 25.05161683971528,192.77250839126646 25.209762050188147,192.60110466257902 25.42062233085744,192.45826816471526 25.89505796227604,192.00119102129247 26.237705918378197,191.7440848936967 26.949359365506098,191.05846772814402 27.371079926844686,190.8584958286956 27.713727882830426,190.40141681805835 28.10909090912901,190.0586072099104 28.557169005507603,189.5158247165382 29.137034777435474,189.03017658478348 29.347895057988353,188.57309543999145 29.980475899996236,188.05887851427542 30.454911531531252,187.57322857552208 30.7712019525934,187.08757803443586 31.140207443735562,186.74476552510168 31.825503355823457,186.34481721825432 32.115436241729185,186.05913960607722 32.668944478500634,185.88773293874692 33.32788285554852,185.48778375651455 34.48761439905502,185.14496984658763 36.306284319842234,184.85929135902552 37.597803538898006,184.8021556365129 38.256741915945895,184.71645203712978 39.521903599845245,184.11652631594916 39.96998169622384,183.74514326601638 40.47077486291528,183.430895794736 40.68163514358457,183.20235202088952 40.91885295929387,183.08808008395135 41.15607077500317,183.03094410293852 41.340573520516045,183.08808008395135 41.94679682748392,184.14509422826814 42.711165344924666,184.97356277913786 42.922025625477545,185.7734617855167 43.10652837110683,186.03057183345663 43.15924344130326,186.4590882047196 43.343746186816134,186.68763007770758 43.55460646748543,187.3732548962871 43.84453935327474,187.9160403595306 44.68798047606833,189.88720229326282 44.819768151501194,190.5728215095587 44.977913361857645,191.02990032019443 45.13605857244693,191.91548899750342 45.16241610748693,192.25829698011512 45.42599145823624,193.2010173848539 45.61049420386553,193.51525701541686 46.05857230024412,194.05803396517877 46.37486272130627,194.34370574183413 46.691153142252006,194.54367586158332 47.139231238747016,194.91504866999458 47.40280658937991,194.94361579453107 47.79816961567849,195.11501849797787 48.16717510682065,195.0578842717514 48.29896278236993,195.08645138592692 48.720683343708515,195.25785402674228 49.11604636989068,195.37212241234374 49.24783404532354,195.54352492815815 49.405979255679995,195.65779323043535 49.80134228197858,195.8291956211906 50.27577791339718,195.9434638400562 51.06650396587793,196.34340234354022 51.30372178158723,196.371969363885 51.461866992060095,196.31483532112907 51.59365466760937,196.34340234354022 52.48981086036656,196.71477344536106 52.937888956745155,196.80047441873467 53.069676632178016,196.9147423542745 53.51775472855661,196.88617537348182 53.99219036009163,197.1147111611208 54.651128737139516,197.31467986581265 55.60000000009313,197.48608153147507" stroke="#fff700" stroke-linecap="round" stroke-linejoin="round" stroke-width="0.5"><title>2023-12-11 2.8km</title><desc>10362547167</desc></polyline><polyline fill="none" points="114.26242038211785,199.5161503131385 114.26242038211785,199.06882774853148 113.16178343934007,199.41674532421166 108.94267515931278,194.64528880058788 99.44968152861111,187.93537154170917 88.7643312101718,183.01472356100567 80.69299363065511,180.57923818245763 78.39999999990687,182.56739016453503 78.67515923571773,196.98131856421242 79.45477707008831,197.5280477782362 85.04968152870424,197.4286424991442 89.45222929934971,198.919720161648 99.63312101899646,205.23191279603634 107.56687898095697,211.44464373547817 113.8496815287508,215.42076181754237 118.89426751597784,210.94762734434335 121.60000000009313,205.53012517496245 117.5184713373892,202.24978182913037 116.64713375805877,202.29948411876103" stroke="#fffb00" stroke-linecap="round" stroke-linejoin="round" stroke-width="0.5"><title>2023-12-11 2.6km</title><desc>1702269198000</desc></polyline><polyline fill="none" points="180.27020148467273,199.53936671983683 180.4076352068223,199.09251854888862 180.31601272523403,199.04286873404635 179.49141039233655,199.53936671983683 179.17073170724325,199.4400671516196 179.03329798509367,199.24146797176218 178.94167550373822,198.59602023713524 178.71261930000037,198.29812107619364 178.4377518557012,198.14917144697392 177.704772004392,198.0002217850997 177.29247083794326,197.70232236356242 177.10922587499954,196.90792326873634 176.83435843046755,196.36177335330285 176.51367974537425,196.21282330038957 175.91813361621462,195.61702276254073 175.7806998938322,195.3687723847106 175.23096500523388,195.02122170344228 174.95609756093472,194.673670844757 174.36055143154226,194.27646964613814 174.03987274644896,193.92891840724042 173.03202545060776,193.4324163295678 172.84878048789687,193.03521440678742 172.16161187714897,192.5387116773636 171.61187698831782,192.38976078794803 171.47444326616824,191.9925582567812 171.2453870626632,191.7443065569969 170.64984093303792,191.4960547668743 170.14591728523374,191.0988517141668 169.96267232229002,191.0492013163166 169.87104984070174,191.0492013163166 169.9168610817287,191.0988517141668 170.0542948038783,191.0988517141668 169.27550371154211,190.75129885302158 168.54252385976724,190.05619259836385 167.99278897140175,189.85759068088373 167.44305408280343,189.3610856338055 166.7558854718227,188.96388133545406 166.57264050887898,188.66597795957932 166.02290562028065,188.2687732555787 165.15249204658903,187.8219176866114 164.55694591719657,187.57366446597734 164.32788971369155,187.5240138109657 164.37370095448568,187.5240138109657 163.22841993626207,186.82890426088125 162.81611876981333,186.7296028386918 162.03732767747715,186.18344475730555 161.48759278887883,185.93519093916984 161.30434782616794,185.7365878194105 160.9836691408418,185.6869370303466 161.07529162266292,185.7365878194105 160.6171792151872,185.38903222046793 160.11325556738302,185.3393814061419 159.2886532342527,184.84287306352053 157.86850477196276,184.3463643589057 157.36458112392575,184.24706257448997 156.2193001061678,183.5519496780471 154.84496288420632,183.00578904722352 154.11198303289711,182.85683607182 153.65387062565424,182.608581040462 152.50858960743062,182.3106748832506 152.32534464495257,182.2113728018594 152.37115588528104,182.16172175575048 152.46277836686932,182.40997695014812 152.18791092257015,182.3603259184747 151.36330858967267,182.1120707060909 150.5845174973365,181.71486217773054 150.1264050900936,181.76451325649396 149.43923647911288,181.36730452545453 147.2861081652809,180.72183984296862 146.7363732769154,180.6225375298527 146.1408271472901,180.72183984296862 145.27041357383132,181.46660672983853 144.58324496285059,182.2113728018594 144.4916224812623,182.55893002339872 144.53743372205645,182.85683607182 144.4916224812623,183.40299682226032 144.6290562034119,184.24706257448997 144.39999999990687,184.4953170082299 144.4916224812623,184.59461875649868 144.445811240701,184.64426962513244 144.58324496285059,185.041476443992 144.58324496285059,185.88554016454145 144.67486744420603,185.93519093916984 144.67486744420603,186.0841432409361 144.4916224812623,186.43169848492835 144.4916224812623,186.77925355150364 144.58324496285059,187.47436315234518 144.72067868500017,188.56667680537794 144.6290562034119,189.3610856338055 144.7664899257943,190.00654212437803 144.67486744420603,190.55269713839516 144.72067868500017,191.64500585192582 144.8123011663556,191.79395690420642 144.67486744420603,195.3191222982132 144.7664899257943,197.0072232062812 144.7664899257943,196.8582732945215 144.90392364771105,197.10652312927414 145.27041357383132,197.35477287363028 145.3162248141598,197.45407274592435 145.54528101789765,197.55337260389933 146.2782608694397,197.45407274592435 146.82799575827084,197.50372267671628 147.33191940607503,197.30512293201173 148.15652173897251,197.30512293201173 148.8895015907474,197.45407274592435 149.34761399775743,197.35477287363028 150.4470837751869,197.50372267671628 151.13425238593481,197.45407274592435 151.50074231182225,197.6526724472642 151.82142099668272,197.6526724472642 153.14994697785005,197.90092199237552 154.47847295855172,198.39742081105942 155.53213149518706,198.89391926763346 157.36458112392575,199.98621459747665 157.50201484630816,200.18481356010307 158.00593849411234,200.2841130196466 158.32661717920564,200.7309604085749 158.7847295862157,200.8799094730639 159.01378578995354,201.12815784133272 159.33446447504684,201.22745716333156 159.56352067855187,201.42605576378992 160.47974549303763,202.02185121766524 160.52555673383176,202.17079999973066 163.50328738056123,204.1567806461244 164.0530222693924,204.2064300881466 164.2820784728974,204.70292430836707 164.2820784728974,204.85187250364106 164.69437963934615,204.9015218949644 165.19830328738317,205.14976879692404 165.70222693518735,205.1994181664195 165.83966065733694,205.44766495970543 166.48101802752353,206.09310619864846 167.80954400845803,206.78819607920013 168.2676564157009,207.235039199295 168.5883351007942,207.4336360472953 169.0922587485984,208.07907540351152 169.96267232229002,208.6252159193973 170.7872746551875,209.3699522804236 172.57391304336488,210.56152876355918 172.98621421004646,210.80977360182442 173.62757158000022,211.4552097574924 173.94825026509352,211.70345426979475 174.68123011640273,212.00134756509215 174.91028632014059,212.05099643493304 175.13934252387844,212.24959187832428 175.7348886532709,212.4978361009853 176.0555673383642,212.79572904884117 176.51367974537425,212.84537786082365 177.29247083794326,213.49081208673306 179.39978791074827,214.8809760339209 179.67465535528027,215.22851657727733 179.9037115587853,215.37746247008909 180.27020148467273,215.37746247008909 180.5908801695332,215.17886793910293 181.5529162248131,213.93765080784215 181.82778366911225,213.68940711021423 182.1942735949997,213.63975835975725 182.744008483598,213.19291944312863 184.30159066827036,211.6538053745753 184.94294803822413,210.9090715116472 185.12619300093502,210.2139858380542 185.12619300093502,209.8664427351323 185.81336161191575,209.22100507334108 186.04241781542078,208.77416325669037 186.45471898210235,208.3273211469059 186.5463414634578,208.02942624408752 186.68377518560737,207.83082956977887 186.68377518560737,207.6322328375536 187.32513255556114,206.3413526660297 187.60000000009313,205.49731430743122 187.46256627771072,205.14976879692404 186.86702014831826,204.9015218949644 186.36309650051408,204.45467724342598 186.17985153757036,204.1567806461244 184.66808059392497,203.2630900721997 183.5686108164955,202.27009916963289 183.20212089060806,202.17079999973066 182.8814422057476,201.92255201161606 182.744008483598,202.07150081539294 182.65238600200973,202.3197487491998" stroke="#fff900" stroke-linecap="round" stroke-linejoin="round" stroke-width="0.5"><title>2023-12-11 2.7km</title><desc>10361669003</desc></polyline><polyline fill="none" points="37.25213483115658,235.63671733310912 38.41707865195349,232.48033039527945 28.515056179836392,225.95710883964784 24.631910112686455,232.26990435400512 19.38966292142868,232.37511737842578 12.399999999906868,246.47359326435253 40.06741573056206,266.04289116035216 42.59146067406982,265.20120639086235 55.60000000009313,247.31528895895462 55.4058426967822,245.21104880131315 46.47460674168542,239.21394751453772" stroke="#ffff00" stroke-linecap="round" stroke-linejoin="round" stroke-width="0.5"><title>2023-12-06 1.2km</title><desc>1701838156000</desc></polyline><polyline fill="none" points="103.15505617996678,235.5315053097438 103.34921348327771,235.11065411707386 104.41707865195349,234.0585255982587 104.70831460691988,233.11160927498713 104.31999999983236,232.37511837191414 101.21348314592615,230.37606973946095 100.82516853930429,230.37606973946095 100.3397752805613,230.06043022847734 98.2040449436754,228.37701833678875 96.74786516884342,227.43009828485083 95.29168539354578,226.16753724822775 94.51505617983639,225.95711030147504 94.22382022487,226.27275071002077 93.73842696612701,227.64052501658443 91.8939325842075,230.69170918152668 90.63191011268646,232.1646923306398 89.17573033692315,232.58554438257124 88.4961797753349,232.58554438257124 86.65168539341539,231.42820094397757 86.16629213513806,231.53341402218211 85.29258426977322,232.26990535506047 85.09842696599662,232.90118334128056 85.09842696599662,234.68980280158576 84.22471910109743,235.00544129987247 83.73932584282011,235.6367180889938 83.05977528076619,236.89927083835937 82.57438202248886,238.16182248294353 81.50651685427874,239.95043542131316 80.1474157301709,241.31819676037412 78.78831460652873,243.5276546458481 78.39999999990687,245.10583677794784 78.39999999990687,246.47359322954435 78.78831460652873,247.10486500093248 79.27370786527172,247.31528886326123 80.72988764056936,248.4726195569383 82.86561797792092,249.41952579829376 83.44808988738805,250.15600800036918 84.6130337077193,250.99770148552489 84.80719101149589,251.7341828821227 85.48674157308415,252.47066390293185 86.45752809010446,252.57587544654962 89.27280898904428,254.15404768113513 90.24359550559893,254.99573883414268 92.28224719129503,256.0478520843899 93.25303370784968,257.2051757735899 95.00044943811372,258.3624985344941 95.58292134851217,259.51982036733534 95.87415730347857,259.73024241882376 97.23325842712075,260.1510864299489 99.85438202274963,261.4136177273467 101.11640449427068,262.5709371124394 104.90247190976515,264.56994113710243 105.19370786519721,265.306415605708 105.87325842725113,265.8324685676489 106.45573033718392,266.0428896986414 107.13528089877218,266.0428896986414 108.39730337075889,265.20120499038603 109.17393258446828,264.1490984146949 109.46516853896901,263.20220184046775 110.04764044983312,262.36051547527313 111.7950561796315,260.4667193577625 113.8337078653276,257.7312316893367 114.70741573069245,257.3103869719198 115.38696629181504,256.4686971696792 117.03730337042361,253.73320192075334 118.1051685390994,252.68108698248398 118.49348314618692,251.41854804381728 119.17303370777518,250.78727816022 120.53213483188301,248.57783139240928 121.11460674135014,248.2621958636446 121.60000000009313,247.2100769355893 121.4058426967822,246.47359322954435 121.502921347972,245.42147299728822 121.4058426967822,245.21104885893874 119.94966292148456,244.79020048992243 118.68764044903219,244.15892770595383 117.32853932539001,243.10680578567553 116.45483146049082,242.8963813096052 115.38696629181504,242.26510769699235 114.90157303353772,241.73904614232015 113.34831460658461,240.58171004685573 112.76584269665182,240.2660727686016 112.76584269665182,239.95043542131316 112.28044943837449,239.00352296547499 112.18337078671902,239.42437302251346 112.47460674168542,239.21394800930284" stroke="#ffff00" stroke-linecap="round" stroke-linejoin="round" stroke-width="0.5"><title>2023-12-06 1.3km</title><desc>10335782949</desc></polyline></svg>