<?xml version="1.0" encoding="utf-8" ?>
<svg baseProfile="full" height="300mm" version="1.1" viewBox="0,0,200,300" width="200mm" xmlns="http://www.w3.org/2000/svg" xmlns:ev="http://www.w3.org/2001/xml-events" xmlns:xlink="http://www.w3.org/1999/xlink"><defs /><rect fill="#222222" height="300" width="200" x="0" y="0" /><text fill="#FFFFFF" style="font-size:12px; font-family:Arial; font-weight:bold;" x="10" y="20">人生苦短，及时行乐</text><text fill="#FFFFFF" style="font-size:4px; font-family:Arial" x="10" y="280">ATHLETE</text><text fill="#FFFFFF" style="font-size:9px; font-family:Arial" x="10" y="290">PPZ</text><text fill="#FFFFFF" style="font-size:4px; font-family:Arial" x="120" y="280">STATISTICS</text><text fill="#FFFFFF" style="font-size:3px; font-family:Arial" x="120" y="285">Number: 12</text><text fill="#FFFFFF" style="font-size:3px; font-family:Arial" x="120" y="290">Weekly: 6.0</text><text fill="#FFFFFF" style="font-size:3px; font-family:Arial" x="141" y="285">Total: 32.2 km</text><text fill="#FFFFFF" style="font-size:3px; font-family:Arial" x="141" y="290">Avg: 2.7 km</text><text fill="#FFFFFF" style="font-size:3px; font-family:Arial" x="167" y="285">Min: 1.2 km</text><text fill="#FFFFFF" style="font-size:3px; font-family:Arial" x="167" y="290">Max: 4.8 km</text><polyline fill="none" points="48.925986842252314,53.21426171157509 48.43750000023283,52.684843132679816 48.34868421056308,52.73297211196041 48.25986842112616,52.925487993925344 48.21546052652411,52.87735902873101 48.171052631689236,52.925487993925344 48.30427631596103,53.069874868611805 48.481907894834876,53.55116422259016 48.393092105397955,53.93619545298861 48.30427631596103,54.08058210660238 48.30427631596103,54.32122645888012 48.52631578943692,54.417484175239224 48.65953947370872,54.898772546381224 49.1480263157282,55.09128779656021 49.4144736842718,54.85064372513443 49.458881579106674,55.28380299062701 49.50328947394155,55.28380299062701 49.4144736842718,55.66883321030764 49.547697368543595,56.19824939535465 49.76973684201948,56.390764266543556 50.2582236842718,57.016437209851574 50.74671052652411,57.40146641852334 51.05756578966975,57.738366792094894 51.546052631689236,58.02713840367505 51.768092105630785,58.36403845762834 51.990131579106674,58.46029558434384 52.16776315798052,58.70093833975261 52.47861842112616,58.941581007267814 52.47861842112616,58.845323950692546 52.611842105397955,58.89345248078462 52.700657894834876,58.989709530200344 52.922697368543595,59.08596656564623 53.18914473685436,59.326609092822764 53.63322368450463,59.61538000963628 53.81085526314564,59.66350848338334 53.89967105281539,59.51912305149017 54.299342105397955,59.856022343738005 54.69901315798052,59.95227925287327 55.05427631596103,60.19292146409862 55.89802631596103,60.43356358766323 56.297697368543595,60.38543516997015 56.56414473708719,60.481692001922056 56.875,60.77046241320204 57.141447368543595,61.25174615136348 57.363486842252314,61.39613120438298 58.606907894834876,61.92554279527394 59.76151315798052,62.599338751111645 60.205592105397955,62.93623647111235 61.049342105397955,63.32126222626539 61.582236842252314,63.85067227279069 61.75986842112616,64.23569749447051 61.893092105397955,64.3319537647767 62.203947368543595,64.47633814392611 62.55921052629128,64.52446626330493 62.87006578966975,64.71697870566277 63.31414473708719,64.81323490577051 63.580592105397955,65.10200342192547 64.11348684225231,65.3907718117116 64.20230263168924,65.63141204009298 64.46875000023283,66.06456423003692 64.46875000023283,66.25707622320624 63.98026315798052,67.79717014689231 63.62500000023283,68.23032091552159 63.802631579106674,67.89342589781154 63.75822368450463,67.94155376794515 63.71381578966975,67.89342589781154 63.84703947370872,67.74904226622311 64.29111842112616,67.70091438194504 64.82401315798052,67.46027490816778 65.62335526337847,67.46027490816778 66.64473684225231,67.21963534661336 67.0,67.36401909415144 66.91118421079591,67.74904226622311 66.64473684225231,67.89342589781154 66.64473684225231,68.61534358217614 66.46710526337847,69.19287716125837 66.68914473708719,69.38538824190618 66.60032894741744,69.62602701375727 66.46710526337847,69.67415475769667 66.51151315798052,70.15543200320099 66.28947368450463,70.49232586624566 66.20065789483488,70.781091897632 66.02302631596103,70.97360251517966 65.88980263168924,71.45487881317968 65.80098684225231,71.5992616340518 65.62335526337847,71.74364442343358 65.49013157910667,72.36930281243986 65.31250000023283,72.56181296665454 65.31250000023283,72.75432306481525 65.13486842135899,73.09121560142376 64.91282894765027,73.18747058016015 64.86842105281539,73.66874526394531 64.64638157910667,74.05376475828234 64.6019736842718,74.00563733372837 64.69078947394155,74.10189217922743 64.69078947394155,74.19814701075666 64.5131578950677,75.01631251152139 64.29111842112616,75.30507656373084 64.37993421079591,75.40133121970575 64.33552631596103,75.25694923044648 64.06907894741744,75.59384048962966 63.802631579106674,75.59384048962966 63.75822368450463,76.07511341886129 63.18092105258256,76.65264047059463 63.047697368543595,76.94140380702447 63.047697368543595,77.23016701708548 63.22532894741744,77.37454857473494 63.18092105258256,77.51893010077765 62.64802631596103,78.04832875949796 62.55921052629128,78.33709148532944 62.02631578966975,79.49214112543268 61.49342105281539,79.87715722288704 61.09375000023283,80.6471887442749 60.96052631596103,81.03220416803379 60.78289473685436,81.1284579889616 60.427631579106674,81.56160000915406 59.983552631689236,81.89848805055954 60.02796052629128,82.42788319691317 59.80592105281539,82.66851721383864 59.80592105281539,82.5722636176506 59.71710526337847,82.62039041751996 59.450657894834876,83.19791174272541 59.139802631689236,83.19791174272541 58.606907894834876,82.95727791858371 58.42927631596103,82.66851721383864 57.985197368310764,82.52413681423059 57.452302631689236,81.80223434197251 57.31907894765027,81.99474174506031 56.919407894834876,82.13912226061802 56.43092105281539,81.56160000915406 55.986842105397955,81.32096558855847 55.72039473685436,81.32096558855847 55.365131579106674,80.74344262125669 55.00986842112616,80.59906180051621 54.74342105281539,80.35842702904483 54.4769736842718,79.58839517075103 54.03289473685436,78.96274362463737 53.85526315798052,78.86648948787479 53.85526315798052,78.72210825659567 53.677631579106674,78.62585408479208 53.36677631596103,78.43334569915896 53.10032894741744,78.04832875949796 52.7894736842718,77.85582020552829 52.56743421056308,77.61518443393288 52.21217105281539,77.61518443393288 52.21217105281539,77.51893010077765 52.12335526337847,77.42267575365258 51.768092105630785,77.23016701708548 51.59046052652411,76.89327659306582 51.32401315798052,76.8451493755565 51.19078947370872,76.70076770195737 51.10197368450463,76.36387700785417 50.87993421056308,76.12324069236638 50.87993421056308,76.21949522919022 50.74671052652411,76.17136796249542 50.65789473708719,75.83447699813405 50.43585526337847,75.78634970338317 50.43585526337847,75.73822240531445 50.34703947394155,75.78634970338317 50.169407894834876,75.69009510357864 49.94736842112616,75.20882189366966 49.4144736842718,74.92005779931787 49.236842105397955,74.92005779931787 49.19243421079591,74.67942095757462 49.10361842135899,74.72754833288491 48.703947368543595,74.4387840279378 48.65953947370872,74.29440182814142 48.393092105397955,74.24627442116616 48.30427631596103,74.24627442116616 48.30427631596103,74.342529231566 48.12664473685436,74.10189217922743 48.03782894741744,74.15001959673828 47.7269736842718,74.10189217922743 47.59375000023283,74.05376475828234 47.549342105397955,73.86125503911171 47.28289473708719,74.05376475828234 47.10526315798052,74.29440182814142 46.30592105258256,74.67942095757462 45.639802631689236,74.92005779931787 45.41776315821335,75.06443986226805 45.328947368310764,75.30507656373084 45.1957236842718,75.44945854245452 44.70723684201948,75.1606945534586 44.75164473708719,75.11256720963866 44.70723684201948,75.1606945534586 44.21875,74.72754833288491 43.863486842252314,74.72754833288491 43.641447368543595,74.96818515710765 42.93092105281539,75.06443986226805 42.84210526314564,75.25694923044648 42.6644736842718,75.35320389352273 42.75328947394155,75.54571317741647 42.486842105397955,75.59384048962966 42.175986842252314,75.88260428921785 41.421052631689236,76.07511341886129 41.19901315798052,76.26762249215972 41.19901315798052,76.36387700785417 40.84375000023283,76.55638599704253 40.62171052652411,76.4120042604045 40.08881578966975,76.31574975181138 39.955592105397955,75.9307315768674 39.82236842112616,75.88260428921785 39.46710526337847,75.9788588610827 39.200657894834876,75.83447699813405 39.0230263157282,75.9788588610827 38.356907894834876,75.9788588610827 37.957236842252314,76.12324069236638 37.646381579106674,76.02698614168912 37.11348684201948,75.54571317741647 36.7582236842718,75.59384048962966 36.53618421056308,75.69009510357864 36.40296052652411,75.88260428921785 36.44736842112616,76.07511341886129 36.18092105258256,76.07511341886129 36.00328947370872,76.26762249215972 35.825657894834876,76.31574975181138 35.60361842112616,76.55638599704253 35.425986842252314,76.6045132355066 35.514802631689236,76.74889493006049 35.38157894741744,76.8451493755565 35.29276315798052,77.08578542777104 35.15953947394155,77.61518443393288 35.02631578966975,77.95207448949805 34.80427631596103,78.09645588923013 34.58223684201948,78.04832875949796 34.138157894834876,78.14458301546983 33.64967105281539,78.04832875949796 32.93914473685436,77.6633115952136 32.22861842112616,77.37454857473494 32.09539473685436,77.23016701708548 31.917763157980517,76.94140380702447 31.917763157980517,76.50825875502778 32.53947368403897,74.82380307320273 33.02796052629128,74.05376475828234 33.25000000023283,73.33185302215861 33.3832236842718,73.18747058016015 33.33881578943692,72.41743035637774 33.56085526314564,71.83989959879545 33.64967105281539,71.74364442343358 33.827302631456405,71.69551683048485 34.00493421056308,71.45487881317968 34.44901315798052,71.11798544129124 34.893092105397955,70.54045354685513 34.84868421079591,70.49232586624566 35.02631578966975,70.2035597084323 35.24835526314564,69.91479342419188 36.31414473685436,69.38538824190618 36.802631579106674,69.00036602432374 37.24671052629128,68.42283227690496 37.77960526314564,67.31589118175907 37.646381579106674,66.83461186569184 36.84703947370872,65.48702791368123 36.40296052652411,65.24638763256371 36.047697368543595,65.24638763256371 35.87006578943692,65.19825956592103 34.62664473685436,63.75441593222786 33.47203947370872,62.98436470271554 32.583881579106674,62.11805599561194 31.87335526337847,61.10736106673721 30.94078947370872,60.626077223278116 30.62993421079591,60.19292146409862 30.09703947394155,59.71163695381256 29.56414473685436,59.326609092822764 29.25328947370872,59.230352092534304 28.365131578873843,58.60468124807812 27.921052631689236,58.46029558434384 26.988486842019483,58.36403845762834 26.322368421126157,57.979009810544085 25.56743421056308,57.35333777975757 24.901315789669752,56.58327908144565 24.19078947370872,55.957605727599 22.28125,54.60999956581509 21.837171052582562,54.417484175239224 21.12664473685436,54.22496872849297 20.81578947370872,53.9843243410578 20.416118421126157,53.88806656154338 19.794407894834876,54.03245322563453 18.728618421126157,53.79180876794271 17.618421052582562,53.74367986590369 17.307565789669752,53.64742205129005 15.175986842019483,53.64742205129005 14.37664473685436,53.55116422259016 13.799342105397955,53.35864852304803 13.53289473685436,52.87735902873101 13.577302631456405,52.44419818359893 13.444078947184607,52.107295107562095 13.399671052815393,51.722262810042594 13.488486842252314,51.144713942485396 13.266447368310764,50.56716456945287 13.177631579106674,48.11257409519749 13.133223684271798,46.37991649872856 13.177631579106674,45.513585994485766 13.088815789436921,44.984161237371154 13.133223684271798,44.599124783766456 13.0,42.24077160266461 13.222039473708719,39.88240999291884 13.133223684271798,38.7272910271422 13.31085526314564,38.053470696671866 13.577302631456405,37.62030012079049 14.287828947417438,36.850218394887634 14.99835526314564,36.80208825721638 18.018092105165124,38.1016007430153 18.90625,38.34225092252018 19.75,38.82355101814028 20.37171052629128,39.016070958110504 20.59375000023283,39.20859084202675 21.21546052629128,39.40111066959798 23.791118421126157,39.88240999291884 25.256578947417438,40.65248818008695 26.5,40.94126726849936 27.210526315961033,41.18191641237354 27.699013157980517,41.23004623054294 28.143092105165124,41.18191641237354 29.56414473685436,41.95199308299925 30.141447368310764,42.09638235869352 32.80592105258256,43.54027337784646 34.00493421056308,44.26221770251868 34.58223684201948,44.791643038683105 35.15953947394155,45.369197466468904 37.424342105397955,46.66869308066089 38.00164473685436,47.19811648625182 38.046052631689236,47.39063398289727 38.31250000023283,47.679410122625995 38.40131578943692,48.01631545921555 39.37828947370872,48.20883271715138 39.91118421056308,48.49760849890299 40.39967105258256,49.17141816468211 41.421052631689236,49.60458115802612 42.44243421056308,50.66342283342965 44.0855263157282,51.770391859521624 46.483552631689236,54.36935531889321 47.7269736842718,54.99503017863026" stroke="#ffca00" stroke-linecap="round" stroke-linejoin="round" stroke-width="0.5"><title>2023-12-14 4.4km</title><desc>10377368240</desc></polyline><polyline fill="none" points="75.01352595782373,85.82615631684894 75.49490294139832,85.92397674149834 75.58516112563666,85.9891903459793 75.85593567870092,85.66312222828856 75.705505371443,85.20662646382698 75.76567749446258,84.97837840684224 75.88602174026892,84.91316465492127 76.24705447780434,84.88055777532281 76.57800115388818,84.71752334194025 76.81868964550085,84.65230955192237 77.30006662895903,85.17401960567804 77.5407551205717,85.46748124345322 77.9318739194423,85.72833587083733 77.99204604246188,85.82615631684894 78.3229927184293,85.95658354493207 78.53359514870681,86.18483110255329 78.89462788624223,86.28265144870966 79.43617699248716,86.67393261936377 79.52643517684191,86.70653936814051 79.5565212382935,86.90217981080059 79.67686548421625,87.0 79.767123668571,86.96739327258547 79.97772609873209,86.77175285856356 80.12815640599001,86.34786500094924 80.1582424674416,85.85876312741311 80.21841459046118,85.76094268850284 80.51927520497702,85.56530174656655 80.66970551223494,84.94577153207501 80.79004975815769,84.68491644816822 80.88030794262886,84.13059888943098 80.79004975815769,83.90235028311145 80.79004975815769,83.67410156031838 80.88030794262886,83.44585272099357 81.21125461859629,82.9241406507499 81.3616849258542,82.23939263462671 81.48202917177696,81.97853597163339 81.42185704887379,81.71767915651435 81.45194311020896,81.2611793637916 81.75280372495763,80.54382160489331 81.84306190919597,79.9242844323162 82.08375040104147,79.33735368747148 82.14392252382822,78.94606609610491 82.26426676975098,78.5221708191093 82.23418070818298,78.16348988609388 82.4146970770089,78.00045300327474 82.44478313846048,77.51134199797525 82.62529950716998,77.08744536055019 83.016418306157,75.81575303678983 83.07659042906016,75.2288168981031 83.25710679788608,74.77231047963141 83.28719285933767,74.15276530905976 83.55796741240192,73.20714207738638 83.55796741240192,72.97888789424906 83.70839771977626,72.71802582792589 83.70839771977626,72.42455582137336 83.88891408860218,72.03326217961148 84.09951651864685,71.2506738686061 84.2198607645696,70.43547625440988 84.46054925618228,69.42462914821226 84.37029107182752,69.03333288061549 84.0393443958601,68.64203627040843 81.93332009366713,67.72900951458723 81.75280372495763,67.5985769687104 81.42185704887379,67.46814438464935 81.24134068016429,67.46814438464935 81.12099643424153,67.30510360124754 81.00065218831878,67.27249543741345 80.51927520497702,67.17467093165033 80.24850065191276,67.0116300410591 79.28574668511283,66.65293987269979 78.56368121015839,66.26164117871667 78.05221816536505,66.09859995526494 77.1195502600167,65.6420842128864 77.14963632146828,65.44643446640112 77.17972238303628,65.51165105804102 77.14963632146828,65.67469249566784 77.23989450582303,65.67469249566784 77.26998056739103,65.44643446640112 77.39032481319737,65.18556800438091 77.3301526902942,64.72905132957385 77.39032481319737,64.56600954709575 77.60092724347487,64.1747090263234 77.78144361218438,63.94645023101475 77.9619599810103,63.489932290744036 78.1424763497198,63.29428160216776 78.17256241105497,63.03341388414265 78.50350908725522,62.446460962091805 79.01497213204857,61.59863871394191 79.85738185304217,60.457336994295474 80.33875883626752,60.066032876697136 81.3616849258542,58.76168334388058 81.54220129468013,58.5660305856436 81.7828897862928,58.435595365881454 81.84306190919597,58.2725512876641 81.7828897862928,58.10950715004583 82.05366433947347,58.14211598230759 82.29435283108614,57.848636406008154 82.65538556862157,57.750809837831184 82.89607406023424,57.32689446135191 83.85882802703418,56.805151907523395 83.91900015005376,56.7725429777056 83.91900015005376,56.67471617393312 84.34020501025952,56.609498292848 84.76140987081453,56.34862667336711 85.03218442387879,56.34862667336711 85.36313110007904,56.02253693487728 86.08519657503348,55.8268829776498 86.65683174272999,55.53340188114089 87.4691554021556,55.23992059190641 88.01070450851694,54.979048173030606 88.0407905698521,54.88122097670566 87.95053238561377,54.84861190652009 88.22130693867803,54.84861190652009 88.34165118460078,54.8160028338898 88.58233967621345,54.52252107363893 89.00354453665204,54.196430002804846 89.27431908983272,53.707292950479314 89.36457727418747,53.38120128490846 89.72561001160648,52.565971079980955 89.75569607305806,52.40292486050748 89.60526576580014,51.91378584533231 89.63535182736814,51.718130089342594 89.57517970434856,51.48986493246048 89.24423302826472,50.70724065232207 88.97345847520046,49.72895837482065 88.73276998347137,49.239816433080705 88.82302816782612,48.78328347101342 88.79294210637454,48.75067395591759 88.73276998347137,48.457188212603796 88.70268392201979,47.90282572724391 88.61242573778145,47.60933942726115 88.46199543040711,47.34846255421871 88.4920814918587,47.21802406068309 88.37173724593595,46.85931800698745 88.37173724593595,46.5984406961652 88.2814790615812,46.10929532800219 88.2814790615812,45.52232017944334 88.19122087722644,45.359271390218055 88.22130693867803,45.131002985464875 88.0708766314201,44.90273446403444 88.0708766314201,44.18531835183967 87.83018813969102,43.37007137184264 87.92044632416219,43.1091920241015 87.83018813969102,42.75048267230159 87.86027420102619,42.45699298850377 87.6797578324331,41.96784308718634 87.70984389388468,41.54391273952206 87.55941358662676,40.46778005087981 87.6797578324331,40.33733954891795 87.6797578324331,39.978627972101094 87.61958570941351,39.84818732726853 87.49924146360718,39.78296699060593 87.43906934070401,39.55469573731534 87.52932752505876,39.3264243673766 87.55941358662676,39.130763100343756 87.4691554021556,38.152455480070785 87.58949964807834,37.728521512734005 87.92044632416219,37.43502853056998 88.25139300024603,37.04370425443631 88.43190936895553,36.91326275290339 91.47060157626402,36.456717197725084 92.19266705133487,36.22844424514915 92.43335554306395,36.00017117592506 92.64395797322504,35.86972936979146 92.7342161575798,35.93495027767494 93.1253349565668,35.93495027767494 93.63679800136015,35.8371189123427 93.9376586159924,35.804508452507434 94.17834710760508,35.64145611738786 94.44912166078575,35.70667705856613 94.71989621385,35.674066589126596 95.38178956601769,35.31535126877134 95.89325261092745,35.28274077086826 96.01359685661737,35.21751976775704 96.46488777862396,35.21751976775704 97.09669506934006,35.08707773315837 97.30729749938473,35.18490926272352 97.42764174530748,35.05446721854969 97.87893266719766,35.08707773315837 97.999276913004,35.021856701612705 98.57091208081692,34.85880408092635 98.81160057254601,34.8914146097668 99.44340786302928,34.7609724799986 101.76003459538333,34.20659300338593 102.42192794755101,33.97831890129601 103.89614495902788,33.68482345578377 104.97924317175057,33.358717179187806 105.49070621654391,33.13044264394557 105.97208319976926,33.0978319865535 106.24285775294993,33.0 106.63397655193694,33.16305329898023 106.69414867495652,33.22827460191911 106.72423473629169,33.423938453546725 106.81449292076286,33.61960221949266 106.75432079774328,34.23920357975294 106.66406261338852,34.69575140075176 106.87466504354961,35.08707773315837 106.96492322802078,36.03278162155766 106.81449292076286,36.42410678297165 106.57380442903377,37.56546987980255 106.24285775294993,38.31550689882715 106.15259956859518,38.772050554922316 106.00216926133726,39.00032220807043 105.94199713843409,39.84818732726853 105.76148076960817,40.20689900883008 105.73139470815659,40.59822051477386 105.85173895396292,41.11998198973015 105.85173895396292,41.5113026961335 105.9119110769825,41.60913281913963 106.06234138424043,41.73957294996944 106.09242744569201,41.8374030230334 106.06234138424043,42.22872310117236 106.09242744569201,42.39177303263568 106.09242744569201,42.78309262532275 106.3331159374211,43.37007137184264 106.42337412177585,44.283147889509564 106.87466504354961,45.39188115281286 106.87466504354961,45.815807850070996 107.29586990410462,47.185414431325626 107.35604202700779,47.77238739549648 107.23569778108504,47.93543530427269 107.56664445728529,49.07676900018123 107.56664445728529,49.40286380646285 107.80733294889797,50.02244328291272 107.83741901034955,50.54419375481666 107.92767719458789,50.70724065232207 107.98784931772389,51.131162307574414 107.98784931772389,51.392036972392816 108.04802144051064,51.587692871136824 108.22853780933656,51.65291148496908 108.37896811659448,51.783348684199154 108.3488820551429,51.718130089342594 108.40905417816248,51.783348684199154 108.7099147925619,51.91378584533231 108.67982873134315,52.305097100295825 108.83025903848466,52.761626464751316 110.12395968136843,55.174702501506545 110.66550878749695,55.98992794789956 111.02654152503237,56.38123563415138 111.29731607821304,56.902978682745015 111.35748820111621,57.16384997867863 111.32740213966463,57.32689446135191 111.56809063139372,57.71820097696036 111.62826275418047,58.17472481218283 111.80877912300639,58.5660305856436 112.04946761461906,58.892118468444096 112.13972579897381,59.283423613786 112.32024216779973,59.511684790370055 112.41050035215449,59.83777198320604 112.68127490533516,60.457336994295474 112.71136096678674,60.81603213454946 112.92196339694783,61.30516140724649 112.89187733549625,61.53342155137216 113.04230764287058,62.2182012842386 113.1626518885605,62.60950351782958 113.1626518885605,62.935588450724026 113.25291007303167,63.359498507838 113.22282401158009,63.62036603552406 113.28299613459967,64.07688384255744 113.67411493358668,64.9573097252578 113.88471736374777,65.0551347162982 114.66695496172179,65.5768676402513 115.02798769925721,65.90295040846104 115.81022529711481,66.29424941629986 116.17125803465024,66.55511523128371 116.65263501810841,66.55511523128371 117.10392593976576,66.815980893909 117.6454750461271,66.91380547822337 118.21711021394003,67.10945458256174 118.93917568889447,67.43553623274784 119.14977811917197,67.50075253430987 119.20995024207514,67.43553623274784 119.14977811917197,67.23988727116375 119.17986418050714,67.17467093165033 119.20995024207514,67.27249543741345 119.42055267223623,67.37031992178527 119.36038054933306,67.5985769687104 119.51081085659098,67.69640138166142 120.08244602452032,67.92465826217085 120.293048454565,67.95726637839107 120.74433937657159,68.18552312563406 120.95494180673268,68.15291502600303 121.31597454415169,68.34856358793331 121.79735152760986,68.41377975631622 122.30881457251962,68.60942820410128 122.5194170025643,68.60942820410128 122.79019155574497,68.77246851180098 123.27156853908673,68.80507656626287 123.33174066210631,69.06594091595616 123.57242915371899,69.22898105726927 123.54234309215099,69.45723715508939 123.7228594609769,69.16376500789193 123.81311764533166,69.16376500789193 124.05380613706075,69.29419709707145 124.98647404229268,69.65288514614804 124.89621585793793,69.7833170927479 124.83604373491835,69.7833170927479 124.65552736620884,69.68549313640688 124.80595767358318,69.7833170927479 124.83604373491835,69.7833170927479 124.80595767358318,69.718101124221 124.71569948922843,69.65288514614804 124.56526918185409,69.68549313640688 124.62544130475726,69.718101124221 124.83604373491835,69.718101124221 124.83604373491835,69.65288514614804 124.7758716121316,69.6202771536482 124.62544130475726,69.6202771536482 124.68561342766043,69.718101124221 124.86612979648635,69.718101124221 124.83604373491835,69.65288514614804 124.7758716121316,69.58766915870365 124.47501099738292,69.55506116140168 124.38475281314459,69.65288514614804 124.354666751693,69.58766915870365" stroke="#ffc000" stroke-linecap="round" stroke-linejoin="round" stroke-width="0.5"><title>2023-12-13 4.8km</title><desc>10373312158</desc></polyline><polyline fill="none" points="173.61518942192197,53.541807609261014 173.44965520408005,52.91389717604034 172.87028544116765,52.10658329038415 172.5392170054838,51.38897050311789 173.20135387731716,51.030163952265866 173.78072363929823,51.20956724055577 174.1945591843687,51.83747854421381 173.94625785760581,53.272703177062795 173.532422313001,53.81091198278591 173.44965520408005,54.16971772222314 174.02902496652678,55.87404355581384 173.94625785760581,56.5019524784293 172.87028544116765,57.39896466874052 172.62198411440477,57.757769361371174 172.04261435195804,58.02687281242106 171.54601169843227,58.834182812366635 170.718340608757,59.551791256293654 169.64236819231883,60.17969830124639 169.39406686555594,60.80760502582416 169.0629984298721,61.256109632900916 166.24891672562808,62.51192166248802 165.83508118102327,63.588330952916294 165.25571141811088,63.947133840760216 164.84187587350607,64.3956373030087 164.75910876505077,64.57503864215687 164.84187587350607,64.84414060181007 164.51080743782222,65.47204494534526 166.00061539839953,66.7278526709415 166.82828648854047,67.17635511921253 168.73192999418825,68.4321611050982 172.29091567872092,71.03346942574717 172.70475122332573,71.481970304274 172.87028544116765,71.93047101947013 173.03581965947524,71.75107075297274 173.78072363929823,71.93047101947013 174.27732629328966,72.28927147365175 174.36009340221062,72.55837174586486 173.69795653084293,73.18627215176821 173.20135387731716,73.54507223982364 172.5392170054838,73.54507223982364 172.125381460879,73.90387222333811 171.21494326228276,73.72447224473581 170.55280639091507,74.17297214223072 170.0562037373893,75.15967134130187 169.14576553879306,75.96697009715717 168.8146971031092,76.86396809341386 167.57319046882913,77.7609654358821 166.33168383454904,79.01676061621401 165.42124563641846,79.46525858447421 164.84187587350607,80.45195353857707 163.60036923922598,80.9901504527079 162.85546525893733,81.70774597197305 161.77949284249917,83.77083075849805 160.86905464390293,84.57812386355363 160.45521909929812,85.29571729002055 159.8758493368514,85.65451384603512 159.29647957440466,85.83391208481044 158.71710981149226,86.46180571510922 157.64113739551976,87.0 157.31006895937026,86.91030096891336 156.64793208800256,86.28240756795276 156.23409654339775,85.56481471692678 155.40642545372248,84.66782306472305 155.24089123588055,84.7575222592568 154.57875436451286,84.39872544142418 153.17171351239085,84.66782306472305 152.17850820487365,86.10300939413719 151.93020687811077,86.73090288683306 151.68190555134788,86.91030096891336 150.44039891660213,86.82060193119105 149.94379626354203,86.19270848436281 149.28165939170867,85.92361119471025 148.61952252034098,85.38541643880308 147.70908432174474,83.95022927201353 145.63990659825504,81.79744538257364 145.63990659825504,81.34894826461095 145.88820792501792,81.16954937193077 146.1365092517808,81.16954937193077 146.30204346962273,81.52834713156335 146.55034479685128,81.4386477015214 147.21248166821897,80.63135253614746 147.87461853958666,80.27255451492965 148.20568697573617,79.5549581584055 148.7850567381829,79.10646022309083 150.10933048138395,76.14636974874884 150.52316602598876,75.4287709853379 151.8474397691898,74.53177194239106 151.93020687811077,74.17297214223072 153.08894640300423,72.46867166180164 153.33724773023278,71.21286979666911 154.41322014620528,68.79096257977653 154.90982279973105,68.34246071998496 155.24089123588055,67.53515696048271 156.23409654339775,66.54845164576545 156.89623341476545,65.11324250267353 155.90302810724825,64.30593662359752 155.1581241269596,63.05012642557267 154.82705569127575,62.78102407336701 153.50278194760904,62.15311835624743 153.00617929454893,61.52521231852006 152.5095766405575,61.34581053466536 149.86102915462106,59.28268813889008 148.20568697573617,58.74448172736447 147.29524877713993,58.11657394957729 146.96418034145609,57.66806819813792 147.54355010390282,56.95045865501743 147.29524877713993,55.96374485024717 146.55034479685128,55.69464094785508 146.63311190530658,55.15643296635244 146.88141323253512,55.15643296635244 146.79864612361416,54.97703025350347 146.71587901422754,55.06673161336221 147.12971455883235,54.797627514693886 147.21248166821897,54.43882195826154 147.46078299498186,54.08001629705541 148.61952252034098,53.63150907366071 149.0333580649458,51.83747854421381 150.27486469922587,50.8507606376661 153.75108327483758,46.36566926818341 155.73749388940632,43.046691125724465 155.82026099832729,42.41877533472143 158.05497294012457,39.54829906439409 158.79987692041323,38.023355820798315 159.54478090116754,37.126329500461 160.62075331714004,34.79405800555833 161.61395862465724,33.8073264262639 162.44162971433252,33.8073264262639 162.60716393217444,33.269108867738396 163.26930080354214,33.0 164.26250611105934,33.89702932990622 164.42804032890126,33.89702932990622 164.75910876505077,34.43524661392439 166.99382070591673,36.319005252677016 168.15256023127586,37.48514010722283 169.39406686555594,38.29246358945966 169.64236819231883,38.920381487114355 169.31129975710064,40.17621632094961 169.55960108339787,40.53502603794914" stroke="#ffff00" stroke-linecap="round" stroke-linejoin="round" stroke-width="0.5"><title>2023-12-13 1.9km</title><desc>10372191603</desc></polyline><polyline fill="none" points="21.78551271231845,147.0 21.95364644099027,146.51407635520445 21.95364644099027,145.72444982785964 22.626181356376037,143.7807505710516 22.794315085280687,142.86963998299325 23.354760847752914,140.92593406361993 23.578939152881503,139.8325974905747 23.634983729105443,139.1644466559519 23.971251186914742,138.19258993980475 24.02729576290585,137.76740226981929 24.30751864449121,137.2207320893649 24.47565237339586,136.43109675095184 24.41960779717192,135.45923684496665 24.75587525474839,134.9125651496579 25.540499322582036,131.99697671330068 25.708633051253855,131.5717858801363 25.876766779925674,130.11398709000787 26.437212542630732,128.59544396976708 26.493257119087502,127.44134934653994 26.94161372911185,125.98354332585586 27.05370288155973,125.3153813801473 27.782282373402268,123.67534524056828 28.174594406969845,120.69897510769079 28.510861864546314,119.48412709828699 28.678995593450963,118.63373243721435 28.791084746131673,118.26927731657634 29.23944135615602,117.6011091809487 29.23944135615602,117.72259433649015 29.18339677993208,117.78333690745058 29.23944135615602,117.6011091809487 29.74384254263714,116.75071259692777 29.6877979664132,116.38625665212749 29.85593169508502,116.02180054795463 30.248243728885427,115.65734428411815 30.584511186927557,114.92843127797823 31.201001525623724,114.19951763382414 33.274650847539306,112.25574479653733 34.28345322050154,110.85865526698763 35.57247847481631,109.88676551618846 36.8054591526743,108.48967201187043 37.02963745780289,108.48967201187043 37.47799406782724,108.85413141286699 37.75821694917977,109.21859065443277 37.70217237295583,109.46156339341542 37.64612779673189,109.21859065443277 38.486796440789476,109.58304973633494 38.710974745685235,109.58304973633494 39.15933135594241,108.91487463086378 39.6637325421907,108.55041525652632 40.56044576293789,107.57852281141095 42.97036254219711,105.51324759901036 43.698942033806816,105.14878673560452 44.42752152541652,103.9946596159134 47.34183949138969,101.07896292424994 47.90228525432758,100.04631789762061 48.63086474547163,99.43887904833537 49.471533389762044,98.46697596786544 50.6484694913961,97.55581579939462 51.489138135453686,96.46242228103802 51.881450169254094,96.09795745578595 52.72211881331168,95.85498081706464 53.56278745713644,95.36902732675662 53.95509949140251,94.94381779007381 54.73972355900332,94.51860803633463 56.08479338954203,93.66818787733791 58.21448728768155,93.0" stroke="#ffff00" stroke-linecap="round" stroke-linejoin="round" stroke-width="0.5"><title>2023-12-12 1.9km</title><desc>10367724574</desc></polyline><polyline fill="none" points="125.3549668872729,126.8604229647899 126.14172185398638,126.395325806865 127.0,126.31780959415482 127.0,126.16277715179604 126.78543046303093,125.54264715558384 126.35629139048979,125.31009831395932 125.56953642331064,125.31009831395932 123.63841059617698,124.14735334180295 123.70993377454579,123.1396400037338 123.63841059617698,122.9846070978092 122.13642384065315,121.82185958162881 120.84900662256405,120.42656088323565 119.99072847701609,119.65139414818259 118.70331125799567,118.72119331982685 117.48741721827537,118.1785757940379 117.41589403990656,117.55844113969943 117.20132450340316,117.40340741950786 116.27152317855507,116.78327231277945 115.27019867533818,116.6282384795486 115.19867549650371,116.6282384795486 115.19867549650371,116.08561988524161 114.84105960233137,115.62051801232155 113.98278145678341,115.31044998409925 112.48079470172524,114.22521117294673 112.40927152335644,113.99265985487727 111.98013245034963,113.91514273756184 111.83708609268069,113.60507421178045 111.33642384083942,113.0624540738063 109.69139072811231,111.8996957030613 108.33245033118874,111.20204006979475 107.68874172167853,110.73693605989683 106.90198675496504,110.5819013445871 102.46754966909066,107.94630772602977 101.82384105958045,107.71375503402669 100.75099337752908,107.17113188840449 100.10728476801887,107.09361427352997 99.53509933780879,106.31843781407224 98.24768211878836,105.69829623942496 97.1033112583682,105.77581395593006 96.03046357585117,105.15567206480773 95.02913907263428,104.84560098324437 92.38278145669028,103.60531575325876 90.3801324502565,102.83013674942777 89.3788079470396,102.5200649893959 88.59205298032612,102.05495718005113 87.5192052978091,101.89992119825911 84.94437086116523,100.89218676585006 84.15761589398608,100.81466869311407 83.15629139076918,100.4270782439853 82.65562913939357,100.117005783075 79.36556291393936,99.18678785732482 78.65033112606034,98.87671503442107 77.93509933771566,98.95423324860167 77.29139072820544,98.79919681465253 76.71920529799536,98.41160563053563 75.71788079477847,98.41160563053563 75.14569536456838,99.10926966014085 73.78675496717915,100.03948765364476 73.28609271533787,100.73715061455732 73.0,101.4348131174338 73.28609271533787,102.90765467501478 73.28609271533787,103.52779787807958 73.07152317883447,104.61304761300562 73.07152317883447,105.85333166690543 73.14304635766894,109.10907042236067 73.42913907300681,112.13224747881759 73.28609271533787,114.22521117294673 73.35761589417234,117.8685085120378 73.28609271533787,118.87622684775852 73.35761589417234,120.27152758132434 73.35761589417234,120.96917726140236 73.42913907300681,122.90709063614486 73.50066225184128,123.29467288719025 73.78675496717915,123.604738586233 74.57350993389264,123.9923205828527 75.36026490107179,124.14735334180295 76.36158940428868,123.9923205828527 79.58013245044276,123.91480419476284 80.36688741715625,123.75977140181931 82.79867549659684,124.22486971277976 83.37086092727259,124.14735334180295 84.51523178815842,124.53493514057482 85.58807947020978,124.53493514057482 89.66490066237748,125.8527121989755 92.45430463599041,127.48055219196249 94.24238410592079,129.03087367699482 94.59999999962747,129.41845369478688 96.81721854303032,130.58119290077593 98.24768211878836,131.51138334959978 99.89271523151547,132.8291517587495 100.82251655636355,133.29424610128626 101.75231788074598,133.5267931962735 102.32450331142172,134.1469185340684 103.03973509930074,134.30194981204113 103.82649006601423,135.61971476156032 104.32715231785551,135.61971476156032 104.54172185435891,135.92977686511585 105.61456953641027,136.54990080109565 106.11523178825155,136.62741626770003 106.7589403972961,137.24753979675006 107.18807947030291,137.40257062244928 107.61721854284406,137.86766296398127 108.47549668839201,138.1777244117693 110.6211920529604,140.50318238820182 112.48079470172524,141.58839436946437 112.69536423822865,141.58839436946437 113.91125827794895,141.12330365594244 114.48344370862469,140.81324306718307 115.77086092717946,139.10790821281262 116.20000000018626,138.72033172787633 116.84370860923082,138.5653010943788 117.48741721827537,138.72033172787633 118.13112582778558,138.72033172787633 118.7748344372958,138.48778576910263 119.41854304634035,137.5576014253893 120.41986754955724,135.92977686511585" stroke="#ffff00" stroke-linecap="round" stroke-linejoin="round" stroke-width="0.5"><title>2023-12-12 2.1km</title><desc>10366736030</desc></polyline><polyline fill="none" points="186.4001205204986,113.74683050252497 185.07210058090277,112.65490782767301 184.65995646174997,111.96004703146173 184.2936061336659,110.6695893840515 184.20201855176128,110.07399272132898 184.2936061336659,110.1732588679879 184.24781234259717,109.72656109381933 183.515111686429,106.15296834288165 181.31700971792452,100.69327650521882 179.85160840535536,98.06268206925597 179.6226394502446,97.3678063689731 179.5768456591759,97.16927032422973 179.07311395811848,96.92110018676613 178.43200088385493,95.53134574420983 177.5161250634119,93.99268572818255 177.4245374815073,94.0919542213087 177.33294989936985,93.84378296131035 176.737630616175,93.1489029515651 176.41707407892682,93.0 175.9133423778694,93.1489029515651 175.54699204978533,93.39707446505781 174.76849760254845,94.14158846251667 173.7610342002008,94.78683326783357 172.34142667870037,95.33280916354852 171.37975706742145,95.63061401288724 171.37975706742145,95.43207746115513 170.4180874559097,96.07732104242314 169.5480054267682,96.32549148763064 165.243389071431,96.97073422151152 161.99202990927733,98.21158391272184 160.9845665069297,98.7079231555108 159.56495898519643,99.65096671902575 158.23693904583342,100.7429102648166 155.6266929579433,103.32386076933471 154.25287922751158,104.1179974162369 153.65755994431674,104.61433234991273 152.00898346770555,106.64930179191288 146.1931720089633,112.15857875993242 142.62125630979426,115.78177262929967 142.02593702659942,116.57589473522967 141.38482395233586,117.81670866993954 140.92688604211435,118.75972574722255 140.05680401274003,122.43251664261334 139.69045368465595,123.52442362619331 139.14092819252983,124.96375288208947 139.0951344014611,124.91412088955985 135.47742491122335,140.44875782512827 134.97369321016595,142.03694353741594 134.8821056280285,142.48362010106212 134.60734288184904,142.38435866788495 134.65313667291775,142.5828815199202 134.56154909101315,143.178449728759 134.0120235986542,145.6103478386649 133.5998794795014,147.0" stroke="#fff400" stroke-linecap="round" stroke-linejoin="round" stroke-width="0.5"><title>2023-12-12 2.9km</title><desc>10366295050</desc></polyline><polyline fill="none" points="50.72639090102166,206.33159222296672 50.90259444760159,206.28384878428187 50.68234001426026,206.1883618963766 50.28588203433901,206.28384878428187 50.109678487991914,206.14061844709795 49.669169621309265,205.9973880785983 49.44891518796794,206.04513153829612 48.52384656807408,205.90190114889992 47.55472706165165,205.66318376350682 47.158269081730396,205.42446629109327 46.71776021528058,205.32897927780868 46.056996915256605,205.0902616835083 45.3081318421755,204.94703108508838 44.73547031567432,204.66056979435962 44.29496144899167,204.51733910193434 44.07470701588318,204.2786212117062 42.79723130259663,203.8011851698393 42.09241711627692,203.65795428934507 40.50658519635908,202.94179941678885 39.933923670090735,202.89405573089607 39.229109483771026,202.70308095187647 38.30404086387716,202.32113122672308 37.68732845061459,202.27338749548653 37.24681958393194,201.9391812789254 36.93846337753348,201.84369375702227 36.10149653069675,201.3662559389486 35.44073323113844,200.65009855892276 35.17642791103572,200.50686698878417 34.82402081787586,200.22040375461802 34.515664611244574,199.79070866829716 34.03110485803336,198.45387770666275 33.8549013112206,196.35313782136654 33.50249421806075,195.30276534997392 33.63464687811211,194.8730670348741 33.41439244477078,194.58660133479862 32.66552737168968,194.3001355092856 32.53337471163832,193.7272034821217 31.828560525085777,192.10389334789943 31.52020431845449,191.53095939802006 31.167797225294635,190.3373453913373 30.94754279172048,189.76440989482217 30.55108481226489,189.04823981877416 30.418932151980698,188.61853739700746 30.154626832343638,188.2365794518264 30.066525058820844,187.80687649716856 29.670067078899592,187.18619395321002 29.537914419081062,186.99521459062817 28.524744025897235,184.8944379222812 28.348540479084477,183.93953720730497 28.084235159214586,183.65306672104634 27.77587895281613,183.46208632725757 27.46752274595201,183.03238023736048 26.674606786342338,182.60267386538908 26.63055589958094,182.17296721111052 26.10194525960833,181.79100550385192 25.9697925997898,181.5522793235723 25.9257417130284,181.69551504211267 25.66143639315851,181.6000245665782 25.39713107328862,181.6000245665782 25.26497841323726,181.5045340770157 25.309029299765825,181.170317253971 25.9257417130284,180.31090178212617 26.23409791965969,179.11726730992086 26.190047033131123,176.72999183344655 25.705487279687077,175.15438524790807 25.176876639947295,174.48594494414283 25.353080186527222,174.19947031931952 25.353080186527222,174.00848716625478 25.176876639947295,173.14906228822656 24.95662220660597,172.71934942580992 24.56016422668472,171.14373318274738 24.472062453394756,170.95274913776666 24.339909793343395,170.0933202461456 23.85535004013218,168.85192096506944 23.45889206021093,167.2285491207149 23.370790286920965,167.03756393311778 23.370790286920965,166.41686168813612 23.194586740341038,165.8439052470494 23.326739400159568,164.45925844303565 23.194586740341038,163.83855375210987 23.238637627102435,163.50432790542254 23.811299153370783,162.07192948571173 23.767248266842216,161.3079823795706 24.031553586712107,160.54403438133886 24.1196553602349,160.01881961518666 24.604215113446116,158.63416048319777 24.736367773264647,157.8224623881979 24.82446954655461,157.48823346826248 24.82446954655461,156.8197751159314 24.472062453394756,155.7693391822395 24.648265999974683,155.3873620610102 24.648265999974683,154.957637532847 24.42801156686619,153.8594513455755 24.075604473473504,153.47747310920386 24.075604473473504,153.42972581385402 24.1196553602349,153.33423121302621 24.95662220660597,153.23873659811215 25.573334619635716,153.0 25.881690826499835,153.04774732654914 26.013843486551195,153.23873659811215 25.79358905297704,154.28917659493163 25.881690826499835,154.57565993780736 25.9257417130284,155.33961490512593 26.05789437284693,156.1035689805285 26.013843486551195,156.8197751159314 26.278148806421086,157.15400437742937 25.9697925997898,157.87020936293993 25.441181959817186,158.20443808787968 25.441181959817186,158.29993197781732 25.573334619635716,158.39542585395975 25.573334619635716,158.82514812401496 25.39713107328862,159.1593763609999 25.26497841323726,159.97107279731426 24.95662220660597,160.59178115741815 24.912571319844574,161.0692487260094 24.56016422668472,161.8331961107906 24.339909793343395,162.5493959740852 24.207757133292034,163.79080721305218 24.163706246763468,164.98446964472532 24.295858906581998,166.2258762634592 24.472062453394756,166.94207131827716 24.648265999974683,168.1834742228384 25.0887748664245,169.47262090008007 25.66143639315851,170.18881240091287 25.573334619635716,170.37979666871252 25.66143639315851,170.85725709446706 26.05789437284693,171.85992285446264 25.837639939738438,172.09865257091587 26.190047033131123,172.62385764031205 26.05789437284693,173.00582469877554 26.49840323952958,174.05623295978876 26.36625057971105,174.58143645798555 26.63055589958094,175.34536806645337 26.718657672870904,176.2525356929982 26.7627085596323,176.20479005988454 27.07106476603076,176.58675502805272 27.423471859423444,177.68490306916647 27.33537008590065,178.3055946251261 27.46752274595201,178.7353038190049 27.46752274595201,179.0695218858309 27.379420972894877,179.2605035615852 27.423471859423444,179.5947213600739 27.159166539553553,180.59737373149255 27.291319199372083,181.02708142035408 27.115115652792156,181.45678882708307 27.159166539553553,181.74326027469942 27.291319199372083,182.07747680519242 27.687777179293334,182.79365450999467 27.90803161286749,183.41434122016653 28.084235159214586,183.60532162786694 28.392591365845874,184.27375261607813 29.317659985739738,185.4673776825075 29.802219738950953,186.613255698001 30.24272860540077,187.2816836136626 30.55108481226489,187.56815251143416 30.771339245373383,187.95011084672296 30.991593678481877,188.66628212452633 31.123746338533238,188.90500570950098 31.2118481118232,189.33470794325694 31.432102545164526,189.76440989482217 31.78450963855721,190.71930211025756 32.0488149584271,191.1967476955615 32.18096761824563,191.91291542019462 32.401222051586956,192.24712675693445 32.577425598399714,192.438104587025 33.238188897958025,194.44336843775818 33.45844333153218,195.1595326096285 33.45844333153218,195.6369749555597 33.72274865116924,196.35313782136654 33.8549013112206,197.21253222576343 33.98705397127196,197.59448493213858 33.98705397127196,198.54936572303995 34.29541017790325,199.0745495641022 34.38351195119321,199.45650118379854 34.69186815805733,200.1249159820145 35.30858057085425,200.7933300975128 36.10149653069675,201.27076833351748 36.89441249053925,201.98692503455095 37.423023130511865,202.0824125353829 37.86353199696168,202.46436239976902 38.03973554377444,202.55984983115923 38.30404086387716,202.41661867906805 38.74454973009415,202.03466878674226 39.58151657693088,201.89143751963275 40.94709406327456,202.0824125353829 42.444824209436774,202.0824125353829 43.413943715859205,202.2256437606993 44.20685967593454,202.1301562807057 44.60331765585579,201.89143751963275 46.189149575307965,201.3662559389486 46.893963761860505,200.7933300975128 48.127388588152826,200.07717209047405 48.435744794784114,200.07717209047405 48.7881518881768,200.2681476357393 49.272711641388014,200.1726598701789 49.801322281127796,200.2681476357393 50.28588203433901,200.1249159820145 51.210950654232875,200.2681476357393 52.2241210474167,199.83845258079236 52.62057902733795,199.59973298374098 53.45754587370902,199.6952208330622 54.118309173732996,200.3158915131935 54.77907247352414,200.5546108489507 54.8671742468141,200.8888177726185 55.17553045344539,201.41399973642547 55.219581339973956,201.70046244811965 55.96844641305506,202.9895430993638 56.45300616649911,203.61021065543173 56.80541325965896,204.2786212117062 56.80541325965896,204.66056979435962 56.364904393209144,204.99477462144569 55.88034463999793,205.0902616835083 54.690970700001344,205.8064142051735 54.33856360684149,205.90190114889992 53.854003853630275,206.33159222296672 53.41349498718046,206.57030936458614 53.23729144060053,206.90451321651926 53.10513878054917,207.0 52.79678257391788,206.95225660991855 52.444375480525196,206.7135396077647 52.13601927412674,206.7135396077647 51.43120508734137,206.52256594324717 51.078797994181514,206.57030936458614" stroke="#ffdf00" stroke-linecap="round" stroke-linejoin="round" stroke-width="0.5"><title>2023-12-11 3.6km</title><desc>10363351419</desc></polyline><polyline fill="none" points="73.0,196.3546349761018 73.0,196.5331721077091 73.03294691897463,196.5331721077091 73.23062843212392,196.31892754198634 73.49420378287323,196.17609777944745 73.95546064677183,196.17609777944745 74.28492983535398,195.92614559471258 74.44966442964505,195.961853057408 74.64734594279435,196.28322010528063 75.47101891413331,197.03307572987978 75.50396583287511,197.140197868197 75.99816961563192,197.53297884156927 76.06406345334835,197.6758082083834 76.45942647953052,197.9257594999217 76.69005491165444,197.99717413124745 76.8547895058291,198.17571066398523 76.92068334366195,198.35424713150132 77.18425869441126,198.53278353394126 77.57962172070984,198.71131987136323 77.87614399020094,198.60419807670405 77.84319707145914,198.06858875218313 78.07382550335024,197.60439353022957 78.00793166575022,197.10449049144518 78.33740085433237,196.92595356801758 78.46918852964882,196.6760017660854 78.46918852964882,196.28322010528063 78.66687004279811,195.67619328235742 78.83160463708919,194.71209031084436 79.52348993299529,192.3196784403699 79.68822452728637,191.60552337756963 79.68822452728637,191.24844545553788 79.75411836488638,190.96278293040814 80.08358755358495,190.1057943548658 80.14948139118496,188.96314058749704 80.28126906650141,188.7488927092345 80.41305674193427,188.17756457539508 80.80841976823285,186.9991981938365 80.94020744378213,186.7492413239961 81.07199511898216,185.67799615077092 81.30262355110608,184.9995396619488 81.3685173887061,184.4996237528394 81.66503965843003,183.2141233565926 81.7968273338629,182.7499140506552 82.12629652232863,182.00003654960892 82.35692495433614,180.3217351231724 82.7193410617765,178.92909765648074 83.04881025024224,178.50059302343288 83.27943868224975,177.92925292943255 83.34533251996618,177.50074742126162 83.6418547895737,177.28649452648824 84.13605857233051,176.42948200978572 84.3337400854798,176.42948200978572 84.69615619303659,176.0723930184031 85.09151921910234,175.78672163761803 85.71751067740843,175.07254245647346 85.98108602815773,174.67974346270785 86.37644905445632,174.35836223338265 87.52959121426102,173.14425346261123 87.76021964615211,173.21567170895287 87.99084807815962,173.57276278440258 88.08968883485068,173.53705368857482 88.08968883485068,173.71559914157842 88.25442342902534,173.8584354571649 88.51799877989106,173.9298535992857 88.68273337406572,173.82272638214636 88.814521049615,173.46563548906124 89.01220256276429,173.25138082820922 89.2757779135136,173.07283520587953 89.86882245272864,172.5014887766156 90.29713239788543,172.18010611712816 91.18669920694083,171.32308466016548 91.71384990855586,171.0731197858695 92.14215985359624,170.50177102256566 92.63636363646947,170.07325901239528 93.19646125694271,169.39478089567274 93.92129347170703,168.7877207309648 94.18486882245634,168.21636930000386 94.97559487493709,167.57359814285883 95.56863941438496,166.9665357194026 95.96400244068354,166.35947254303028 96.42525930458214,165.930956906348 97.2818791946629,165.4310215228179 97.64429530221969,165.07392450759653 98.33618059800938,164.85966617343365 99.15985356946476,164.35972969562863 100.60951799876057,163.93121230823454 102.88285539974459,163.57411419876735 104.4972544235643,163.50269454566296 105.32092739478685,163.39556504640495 106.90237949974835,162.64565789492917 107.46247712022159,162.18142908252776 108.0884685786441,161.78861974342726 108.3520439293934,161.5029400261119 108.64856619911734,161.3601001049101 108.94508846872486,161.28868012866587 109.17571690061595,161.3601001049101 109.93349603423849,162.68136778532062 110.88895668101031,163.71695347392233 111.15253203187604,164.71682723189588 111.38316046376713,165.03821479182807 111.44905430159997,165.57386025588494 111.67968273349106,165.85953759713448 111.94325808424037,166.7165686203516 112.30567419168074,167.39505044944235 113.35997559502721,169.85900286660763 113.52471018931828,170.71602688694838 113.72239170235116,171.2873754002503 113.92007321550045,172.394361246872 113.95302013424225,172.82287122515845 114.2824893228244,174.00127173107467 114.51311775483191,174.39407126925653 115.07321537530515,175.07254245647346 115.46857840160374,175.42963217728538 115.86394142790232,175.67959482697188 116.42403904837556,176.1438108375005 116.75350823672488,176.17951974316384 117.24771201959811,176.3937731224578 117.70896888349671,176.32235533971107 117.8737034779042,176.3580642323941 118.40085417951923,176.57231753345695 118.89505796227604,176.7151530154515 119.05979255656712,176.9294061601977 119.2574740696,177.07224153805873 119.75167785247322,177.28649452648824 120.34472239180468,177.42932980007026 121.3331299573183,177.92925292943255 121.62965222692583,177.96496170485625 121.82733374007512,177.8935441513895 121.99206833448261,177.92925292943255 123.1122635754291,178.3934668066795 123.67236119590234,178.50059302343288 123.83709579019342,178.6434279428504 124.39719341078307,178.6077192168741 124.99023794999812,178.8933889514301 125.8139109214535,179.1433498322731 127.0,179.3576019143511" stroke="#fff600" stroke-linecap="round" stroke-linejoin="round" stroke-width="0.5"><title>2023-12-11 2.8km</title><desc>10362547167</desc></polyline><polyline fill="none" points="177.82802547770552,181.89518789137946 177.82802547770552,181.33603468560614 176.4522292993497,181.77093165525002 171.17834394914098,175.80661100067664 159.31210191105492,167.41921442712191 145.95541401277296,161.26840445119888 135.8662420383189,158.22404772799928 133.0,160.70923770562513 133.34394904482178,178.72664820519276 134.3184713376686,179.4100597227225 141.31210191105492,179.28580312390113 146.81528662424535,181.14965020201635 159.54140127403662,189.0398909949581 169.45859872619621,196.80580466933316 177.31210191105492,201.77595227194251 183.6178343950305,196.18453418038553 187.0,189.4126564686303 181.89808917208575,185.3122272863984 180.80891719763167,185.37435514840763" stroke="#fffb00" stroke-linecap="round" stroke-linejoin="round" stroke-width="0.5"><title>2023-12-11 2.6km</title><desc>1702269198000</desc></polyline><polyline fill="none" points="57.83775185584091,241.9242083998979 58.0095440086443,241.36564818618353 57.89501590654254,241.3035859176307 56.864262990420684,241.9242083998979 56.46341463411227,241.80008393956814 56.29162248154171,241.55183496477548 56.17709437990561,240.7450252964627 55.89077412523329,240.37265134532936 55.54718981962651,240.18646430881927 54.63096500537358,240.0002772314474 54.11558854742907,239.62790295452578 53.886532343691215,238.63490408600774 53.54294803831726,237.95221669174498 53.14209968177602,237.76602912560338 52.39766702032648,237.02127845323412 52.22587486752309,236.71096548094647 51.538706256542355,236.2765271293465 51.195121951401234,235.84208855603356 50.450689289718866,235.34558705770178 50.04984093317762,234.91114800912328 48.79003181331791,234.2905204120325 48.560975609812886,233.79401800851338 47.70201484649442,233.17338959680637 47.01484623551369,232.98720098496415 46.843054082710296,232.49069782102015 46.55673382850364,232.18038319633342 45.81230116635561,231.87006845866563 45.18239660654217,231.37356464273762 44.953340403037146,231.31150164548308 44.83881230116822,231.31150164548308 44.89607635210268,231.37356464273762 45.06786850490607,231.37356464273762 44.09437963948585,230.93912356632063 43.17815482500009,230.07024074805668 42.49098621425219,229.82198835117742 41.803817603504285,229.20135704230051 40.94485683995299,228.70485166937578 40.715800636215135,228.3324724495178 40.02863202546723,227.83596656954614 38.94061505841091,227.27739710832248 38.196182396728545,226.96708058257354 37.90986214228906,226.90501726372167 37.96712619322352,226.90501726372167 36.53552492056042,226.03613032615976 36.02014846238308,225.9120035484084 35.046659596962854,225.2293059466756 34.35949098621495,224.91898867400596 34.130434782709926,224.67073477432132 33.72958642616868,224.608671288006 33.84411452827044,224.67073477432132 33.27147401915863,224.23629027570132 32.64156945911236,224.17422675772104 31.610816542757675,223.55359132948797 29.835630964953452,222.93295544869034 29.205726405140013,222.80882821819978 27.77412513270974,221.93993709760252 26.05620360537432,221.2572363091167 25.139978791121393,221.0710450898623 24.567338282242417,220.76072630059207 23.135737009579316,220.38834360410692 22.90668080607429,220.2642160024261 22.963944856775925,220.2021521947463 23.078472958644852,220.51247118774336 22.73488865350373,220.45040739816613 21.704135737149045,220.14008838264272 20.730646871728823,219.64357772225048 20.158006362617016,219.70564157067565 19.29904559906572,219.20913065690547 16.60763520677574,218.4022998037981 15.920466596260667,218.27817191235954 15.176033934345469,218.4022998037981 14.08801696728915,219.33325841237092 13.229056203737855,220.2642160024261 13.114528101868927,220.69866252929205 13.17179215257056,221.0710450898623 13.114528101868927,221.7537460278836 13.286320254439488,222.80882821819978 13.0,223.1191462603747 13.114528101868927,223.2432734457543 13.057264050934464,223.3053370314883 13.229056203737855,223.8018455550773 13.229056203737855,224.85692520579323 13.343584305373952,224.91898867400596 13.343584305373952,225.10517905122833 13.114528101868927,225.53962310624775 13.114528101868927,225.97406693943776 13.229056203737855,226.84295394050423 13.400848356308416,228.20834600680973 13.286320254439488,229.20135704230051 13.45811240724288,230.0081776555744 13.343584305373952,230.69087142311037 13.400848356308416,232.05625731498003 13.515376457944512,232.24244613031624 13.343584305373952,236.64890287286835 13.45811240724288,238.75902900792425 13.45811240724288,238.57284161821008 13.62990455981344,238.88315391167998 14.08801696728915,239.1934660921106 14.145281017990783,239.3175909324782 14.431601272430271,239.44171575497603 15.34782608691603,239.3175909324782 16.034994697896764,239.37965334602632 16.664899257710204,239.13140366511652 17.69565217383206,239.13140366511652 18.611876988317817,239.3175909324782 19.184517497429624,239.1934660921106 20.55885471892543,239.37965334602632 21.417815482709557,239.3175909324782 21.875927889719605,239.56584055919666 22.27677624602802,239.56584055919666 23.937433722196147,239.8761524905567 25.598091198364273,240.49677601386793 26.915164368925616,241.1173990846146 29.205726405140013,242.48276824696222 29.377518557943404,242.73101695021614 30.007423117756844,242.85514127463102 30.40827147406526,243.41370051080594 30.980911982944235,243.59988684137352 31.267232237616554,243.91019730170956 31.66808059392497,244.03432145429542 31.954400848364457,244.28256970481016 33.09968186635524,245.02731402218342 33.156945917289704,245.21349999972153 36.87910922593437,247.69597580772825 37.566277836915106,247.75803761027055 37.85259809112176,248.37865538551705 37.85259809112176,248.56484062963864 38.367974549299106,248.6269023687928 38.99787910934538,248.9372109961696 39.627783669158816,248.99927270814078 39.79957582172938,249.3095811996609 40.60127253434621,250.11638274835423 42.261930010747164,250.98524509905837 42.83457051962614,251.5437989991624 43.235418875934556,251.79204505920643 43.865323435747996,252.5988442544476 44.953340403037146,253.2815198993194 45.984093319159,254.2124403505586 48.217391304438934,255.70191095449263 48.73276776261628,256.01221700233873 49.53446447523311,256.81901219690917 49.93531283154152,257.12931783730164 50.85153764579445,257.5016844564234 51.13785790023394,257.56374554376816 51.42417815490626,257.8119898479781 52.168610816588625,258.12229512631893 52.56945917289704,258.4946613111533 53.14209968177602,258.55672232608777 54.11558854742907,259.36351510853274 56.74973488855176,261.101220042503 57.09331919415854,261.5356457216549 57.37963944859803,261.72182808764046 57.83775185584091,261.72182808764046 58.23860021214932,261.4735849239514 59.44114528107457,259.92206350987544 59.78472958644852,259.611758887826 60.2428419936914,259.5496979497839 60.930010604672134,258.991149303969 62.87698833527975,257.0672567182919 63.67868504789658,256.13633938966086 63.90774125116877,255.26748229761142 63.90774125116877,254.83305341895903 64.7667020149529,254.02625634172 65.05302226939239,253.46770407096483 65.56839872756973,252.90915143373422 65.68292682943866,252.5367828051676 65.85471898200922,252.28853696223814 65.85471898200922,252.04029104701476 66.65641569462605,250.42669083259534 67.0,249.3716428843327 66.82820784742944,248.9372109961696 66.08377518551424,248.6269023687928 65.4538706257008,248.06834655435523 65.22481442196295,247.69597580772825 63.33510074252263,246.57886259030784 61.96076352056116,245.33762396208476 61.50265111355111,245.21349999972153 61.101802757242694,244.90319001459284 60.930010604672134,245.08937601925572 60.815482502570376,245.3996859365725" stroke="#fff900" stroke-linecap="round" stroke-linejoin="round" stroke-width="0.5"><title>2023-12-11 2.7km</title><desc>10361669003</desc></polyline><polyline fill="none" points="104.06516853906214,227.0458966663573 105.52134831435978,223.1004129940411 93.14382022479549,214.9463860495016 88.28988764062524,222.8373804424191 81.73707865178585,222.96889672300313 73.0,240.59199158032425 107.58426966285333,265.053613950382 110.73932584282011,264.0015079884324 127.0,241.64411119872238 126.7573033706285,239.01381100167055 115.59325842699036,231.51743439305574" stroke="#ffff00" stroke-linecap="round" stroke-linejoin="round" stroke-width="0.5"><title>2023-12-06 1.2km</title><desc>1701838156000</desc></polyline><polyline fill="none" points="163.94382022460923,226.91438163723797 164.18651685398072,226.38831764634233 165.52134831435978,225.07315699779429 165.88539325864986,223.8895115937339 165.3999999994412,222.96889796492178 161.51685393229127,220.4700871744426 161.03146067401394,220.4700871744426 160.42471910081804,220.0755377856549 157.7550561791286,217.97127292095684 155.93483146093786,216.78762285597622 154.1146067418158,215.20942156028468 153.1438202247955,214.9463878767565 152.77977528097108,215.34093838755507 152.17303370777518,217.05065627081785 149.86741572991014,220.86463647685014 148.28988764062524,222.70586541329976 146.4696629215032,223.23193047824316 145.6202247189358,223.23193047824316 143.3146067415364,221.78525118005928 142.70786516880617,221.91676752781495 141.61573033686727,222.8373816938838 141.37303370749578,223.6264791765716 141.37303370749578,225.8622535020113 140.2808988764882,226.25680162478238 139.67415730375797,227.04589761118405 138.82471910119057,228.624088547891 138.21797752799466,230.20227810367942 136.8831460676156,232.43804427667055 135.18426966294646,234.14774595049676 133.48539325827733,236.9095683073392 133.0,238.88229597255122 133.0,240.59199153701775 133.48539325827733,241.38108125107829 134.09213483147323,241.64411107904743 135.91235955059528,243.09077444614377 138.58202247181907,244.2744072478963 139.3101123594679,245.19501000049058 140.76629213476554,246.2471268569352 141.00898876413703,247.16772860265337 141.85842696623877,248.0883298786357 143.07191011263058,248.21984430821612 146.59101123642176,250.1925596013898 147.80449438188225,251.24467354267836 150.35280898911878,252.55981510551646 151.56629213457927,254.00646971701644 153.75056179752573,255.4531231680885 154.47865168564022,256.89977545908187 154.84269662946463,257.1628030234715 156.5415730336681,257.68885803746525 159.81797752855346,259.2670221591834 161.39550561783835,260.7136713905493 166.1280898875557,263.21242642134894 166.4921348313801,264.13301950716414 167.3415730339475,264.7905857095029 168.06966292113066,265.0536121232435 168.9191011232324,265.0536121232435 170.4966292134486,264.00150623801164 171.46741573046893,262.6863730183104 171.83146067382768,261.5027523005847 172.55955056194216,260.4506443440914 174.74382022442296,258.0833991972031 177.2921348316595,254.66403961158358 178.38426966313273,254.13798371492885 179.2337078647688,253.08587146212813 181.29662921326235,249.66650240088347 182.63146067410707,248.35135872801766 183.1168539323844,246.77318505488802 183.96629213448614,245.9840977002168 185.66516853962094,243.2222892404534 186.3932584268041,242.82774482946843 187.0,241.51259616960306 186.7573033706285,240.59199153701775 186.87865168508142,239.27684124663938 186.7573033706285,239.01381107361522 184.93707865197212,238.48775061243214 183.35955056129023,237.6986596324714 181.66067415708676,236.38350723218173 180.56853932514787,236.1204766369192 179.2337078647688,235.33138462121133 178.62696629203856,234.6738076779293 176.68539325799793,233.22713755851146 175.95730337081477,232.8325909607811 175.95730337081477,232.43804427667055 175.35056179761887,231.25440370687284 175.22921348316595,231.78046627808362 175.59325842699036,231.51743501168676" stroke="#ffff00" stroke-linecap="round" stroke-linejoin="round" stroke-width="0.5"><title>2023-12-06 1.3km</title><desc>10335782949</desc></polyline></svg>