<?xml version="1.0" encoding="utf-8" ?>
<svg baseProfile="full" height="300mm" version="1.1" viewBox="0,0,200,300" width="200mm" xmlns="http://www.w3.org/2000/svg" xmlns:ev="http://www.w3.org/2001/xml-events" xmlns:xlink="http://www.w3.org/1999/xlink"><defs /><rect fill="#222222" height="300" width="200" x="0" y="0" /><text fill="#FFFFFF" style="font-size:12px; font-family:Arial; font-weight:bold;" x="10" y="20">人生苦短，及时行乐</text><text fill="#FFFFFF" style="font-size:4px; font-family:Arial" x="10" y="280">ATHLETE</text><text fill="#FFFFFF" style="font-size:9px; font-family:Arial" x="10" y="290">PPZ</text><text fill="#FFFFFF" style="font-size:4px; font-family:Arial" x="120" y="280">STATISTICS</text><text fill="#FFFFFF" style="font-size:3px; font-family:Arial" x="120" y="285">Number: 7</text><text fill="#FFFFFF" style="font-size:3px; font-family:Arial" x="120" y="290">Weekly: 3.5</text><text fill="#FFFFFF" style="font-size:3px; font-family:Arial" x="141" y="285">Total: 17.1 km</text><text fill="#FFFFFF" style="font-size:3px; font-family:Arial" x="141" y="290">Avg: 2.4 km</text><text fill="#FFFFFF" style="font-size:3px; font-family:Arial" x="167" y="285">Min: 1.2 km</text><text fill="#FFFFFF" style="font-size:3px; font-family:Arial" x="167" y="290">Max: 3.6 km</text><polyline fill="none" points="66.4001205204986,53.74683050252497 65.07210058090277,52.654907827673014 64.65995646174997,51.96004703146173 64.29360613366589,50.669589384051505 64.20201855176128,50.07399272132898 64.29360613366589,50.1732588679879 64.24781234259717,49.72656109381933 63.51511168642901,46.15296834288165 61.31700971792452,40.69327650521882 59.851608405355364,38.06268206925597 59.622639450244606,37.367806368973106 59.57684565917589,37.16927032422973 59.07311395811848,36.921100186766125 58.432000883854926,35.53134574420983 57.51612506341189,33.99268572818255 57.424537481507286,34.0919542213087 57.33294989936985,33.84378296131035 56.73763061617501,33.148902951565105 56.41707407892682,33.0 55.91334237786941,33.148902951565105 55.54699204978533,33.39707446505781 54.76849760254845,34.141588462516665 53.76103420020081,34.78683326783357 52.34142667870037,35.33280916354852 51.37975706742145,35.630614012887236 51.37975706742145,35.43207746115513 50.4180874559097,36.07732104242314 49.54800542676821,36.32549148763064 45.24338907143101,36.97073422151152 41.992029909277335,38.211583912721835 40.984566506929696,38.7079231555108 39.56495898519643,39.650966719025746 38.236939045833424,40.7429102648166 35.626692957943305,43.323860769334715 34.252879227511585,44.1179974162369 33.657559944316745,44.61433234991273 32.00898346770555,46.649301791912876 26.193172008963302,52.158578759932425 22.621256309794262,55.78177262929967 22.025937026599422,56.57589473522967 21.384823952335864,57.816708669939544 20.926886042114347,58.75972574722255 20.05680401274003,62.432516642613336 19.69045368465595,63.52442362619331 19.140928192529827,64.96375288208947 19.09513440146111,64.91412088955985 15.477424911223352,80.44875782512827 14.973693210165948,82.03694353741594 14.882105628028512,82.48362010106212 14.607342881849036,82.38435866788495 14.653136672917753,82.58288151992019 14.561549091013148,83.178449728759 14.012023598654196,85.6103478386649 13.599879479501396,87.0" stroke="#fff400" stroke-linecap="round" stroke-linejoin="round" stroke-width="0.5"><title>2023-12-12 2.9km</title><desc>10366295050</desc></polyline><polyline fill="none" points="170.72639090102166,86.33159222296672 170.9025944476016,86.28384878428187 170.68234001426026,86.18836189637659 170.285882034339,86.28384878428187 170.1096784879919,86.14061844709795 169.66916962130927,85.9973880785983 169.44891518796794,86.04513153829612 168.52384656807408,85.90190114889992 167.55472706165165,85.66318376350682 167.1582690817304,85.42446629109327 166.71776021528058,85.32897927780868 166.0569969152566,85.09026168350829 165.3081318421755,84.94703108508838 164.73547031567432,84.66056979435962 164.29496144899167,84.51733910193434 164.07470701588318,84.2786212117062 162.79723130259663,83.8011851698393 162.09241711627692,83.65795428934507 160.50658519635908,82.94179941678885 159.93392367009073,82.89405573089607 159.22910948377103,82.70308095187647 158.30404086387716,82.32113122672308 157.6873284506146,82.27338749548653 157.24681958393194,81.93918127892539 156.93846337753348,81.84369375702227 156.10149653069675,81.3662559389486 155.44073323113844,80.65009855892276 155.17642791103572,80.50686698878417 154.82402081787586,80.22040375461802 154.51566461124457,79.79070866829716 154.03110485803336,78.45387770666275 153.8549013112206,76.35313782136654 153.50249421806075,75.30276534997392 153.6346468781121,74.87306703487411 153.41439244477078,74.58660133479862 152.66552737168968,74.30013550928561 152.53337471163832,73.7272034821217 151.82856052508578,72.10389334789943 151.5202043184545,71.53095939802006 151.16779722529463,70.3373453913373 150.94754279172048,69.76440989482217 150.5510848122649,69.04823981877416 150.4189321519807,68.61853739700746 150.15462683234364,68.2365794518264 150.06652505882084,67.80687649716856 149.6700670788996,67.18619395321002 149.53791441908106,66.99521459062817 148.52474402589723,64.89443792228121 148.34854047908448,63.939537207304966 148.0842351592146,63.65306672104634 147.77587895281613,63.462086327257566 147.467522745952,63.032380237360485 146.67460678634234,62.60267386538908 146.63055589958094,62.17296721111052 146.10194525960833,61.79100550385192 145.9697925997898,61.55227932357229 145.9257417130284,61.695515042112675 145.6614363931585,61.60002456657821 145.39713107328862,61.60002456657821 145.26497841323726,61.504534077015705 145.30902929976583,61.17031725397101 145.9257417130284,60.310901782126166 146.2340979196597,59.11726730992086 146.19004703313112,56.72999183344655 145.70548727968708,55.15438524790807 145.1768766399473,54.48594494414283 145.35308018652722,54.199470319319516 145.35308018652722,54.00848716625478 145.1768766399473,53.14906228822656 144.95662220660597,52.719349425809924 144.56016422668472,51.14373318274738 144.47206245339476,50.95274913776666 144.3399097933434,50.093320246145595 143.85535004013218,48.85192096506944 143.45889206021093,47.22854912071489 143.37079028692096,47.03756393311778 143.37079028692096,46.41686168813612 143.19458674034104,45.843905247049406 143.32673940015957,44.45925844303565 143.19458674034104,43.838553752109874 143.23863762710243,43.50432790542254 143.81129915337078,42.071929485711735 143.76724826684222,41.3079823795706 144.0315535867121,40.54403438133886 144.1196553602349,40.01881961518666 144.60421511344612,38.634160483197775 144.73636777326465,37.82246238819789 144.8244695465546,37.48823346826248 144.8244695465546,36.81977511593141 144.47206245339476,35.76933918223949 144.64826599997468,35.38736206101021 144.64826599997468,34.957637532847 144.4280115668662,33.85945134557551 144.0756044734735,33.477473109203856 144.0756044734735,33.42972581385402 144.1196553602349,33.334231213026214 144.95662220660597,33.238736598112155 145.57333461963572,33.0 145.88169082649983,33.04774732654914 146.0138434865512,33.238736598112155 145.79358905297704,34.28917659493163 145.88169082649983,34.57565993780736 145.9257417130284,35.33961490512593 146.05789437284693,36.10356898052851 146.0138434865512,36.81977511593141 146.2781488064211,37.154004377429374 145.9697925997898,37.87020936293993 145.4411819598172,38.20443808787968 145.4411819598172,38.29993197781732 145.57333461963572,38.39542585395975 145.57333461963572,38.82514812401496 145.39713107328862,39.159376360999886 145.26497841323726,39.971072797314264 144.95662220660597,40.591781157418154 144.91257131984457,41.06924872600939 144.56016422668472,41.833196110790595 144.3399097933434,42.5493959740852 144.20775713329203,43.790807213052176 144.16370624676347,44.98446964472532 144.295858906582,46.22587626345921 144.47206245339476,46.94207131827716 144.64826599997468,48.18347422283841 145.0887748664245,49.472620900080074 145.6614363931585,50.188812400912866 145.57333461963572,50.379796668712515 145.6614363931585,50.85725709446706 146.05789437284693,51.85992285446264 145.83763993973844,52.098652570915874 146.19004703313112,52.62385764031205 146.05789437284693,53.00582469877554 146.49840323952958,54.05623295978876 146.36625057971105,54.581436457985546 146.63055589958094,55.345368066453375 146.7186576728709,56.25253569299821 146.7627085596323,56.204790059884544 147.07106476603076,56.58675502805272 147.42347185942344,57.68490306916647 147.33537008590065,58.305594625126105 147.467522745952,58.73530381900491 147.467522745952,59.06952188583091 147.37942097289488,59.26050356158521 147.42347185942344,59.59472136007389 147.15916653955355,60.59737373149255 147.29131919937208,61.02708142035408 147.11511565279216,61.456788827083074 147.15916653955355,61.74326027469942 147.29131919937208,62.07747680519242 147.68777717929333,62.79365450999467 147.9080316128675,63.414341220166534 148.0842351592146,63.60532162786694 148.39259136584587,64.27375261607813 149.31765998573974,65.4673776825075 149.80221973895095,66.61325569800101 150.24272860540077,67.28168361366261 150.5510848122649,67.56815251143416 150.77133924537338,67.95011084672296 150.99159367848188,68.66628212452633 151.12374633853324,68.90500570950098 151.2118481118232,69.33470794325694 151.43210254516453,69.76440989482217 151.7845096385572,70.71930211025756 152.0488149584271,71.1967476955615 152.18096761824563,71.91291542019462 152.40122205158696,72.24712675693445 152.5774255983997,72.43810458702501 153.23818889795803,74.44336843775818 153.45844333153218,75.15953260962851 153.45844333153218,75.63697495555971 153.72274865116924,76.35313782136654 153.8549013112206,77.21253222576343 153.98705397127196,77.59448493213858 153.98705397127196,78.54936572303995 154.29541017790325,79.0745495641022 154.3835119511932,79.45650118379854 154.69186815805733,80.1249159820145 155.30858057085425,80.79333009751281 156.10149653069675,81.27076833351748 156.89441249053925,81.98692503455095 157.42302313051187,82.0824125353829 157.86353199696168,82.46436239976902 158.03973554377444,82.55984983115923 158.30404086387716,82.41661867906805 158.74454973009415,82.03466878674226 159.58151657693088,81.89143751963275 160.94709406327456,82.0824125353829 162.44482420943677,82.0824125353829 163.4139437158592,82.22564376069931 164.20685967593454,82.1301562807057 164.6033176558558,81.89143751963275 166.18914957530797,81.3662559389486 166.8939637618605,80.79333009751281 168.12738858815283,80.07717209047405 168.4357447947841,80.07717209047405 168.7881518881768,80.2681476357393 169.272711641388,80.1726598701789 169.8013222811278,80.2681476357393 170.285882034339,80.1249159820145 171.21095065423287,80.2681476357393 172.2241210474167,79.83845258079236 172.62057902733795,79.59973298374098 173.45754587370902,79.6952208330622 174.118309173733,80.31589151319349 174.77907247352414,80.55461084895069 174.8671742468141,80.8888177726185 175.1755304534454,81.41399973642547 175.21958133997396,81.70046244811965 175.96844641305506,82.9895430993638 176.4530061664991,83.61021065543173 176.80541325965896,84.2786212117062 176.80541325965896,84.66056979435962 176.36490439320914,84.99477462144569 175.88034463999793,85.09026168350829 174.69097070000134,85.8064142051735 174.3385636068415,85.90190114889992 173.85400385363027,86.33159222296672 173.41349498718046,86.57030936458614 173.23729144060053,86.90451321651926 173.10513878054917,87.0 172.79678257391788,86.95225660991855 172.4443754805252,86.71353960776469 172.13601927412674,86.71353960776469 171.43120508734137,86.52256594324717 171.0787979941815,86.57030936458614" stroke="#ffdf00" stroke-linecap="round" stroke-linejoin="round" stroke-width="0.5"><title>2023-12-11 3.6km</title><desc>10363351419</desc></polyline><polyline fill="none" points="13.0,136.3546349761018 13.0,136.5331721077091 13.03294691897463,136.5331721077091 13.230628432123922,136.31892754198634 13.494203782873228,136.17609777944745 13.955460646771826,136.17609777944745 14.284929835353978,135.92614559471258 14.449664429645054,135.961853057408 14.647345942794345,136.28322010528063 15.47101891413331,137.03307572987978 15.50396583287511,137.140197868197 15.998169615631923,137.53297884156927 16.064063453348354,137.6758082083834 16.45942647953052,137.9257594999217 16.690054911654443,137.99717413124745 16.854789505829103,138.17571066398523 16.92068334366195,138.35424713150132 17.184258694411255,138.53278353394126 17.579621720709838,138.71131987136323 17.876143990200944,138.60419807670405 17.843197071459144,138.06858875218313 18.073825503350236,137.60439353022957 18.00793166575022,137.10449049144518 18.337400854332373,136.92595356801758 18.469188529648818,136.6760017660854 18.469188529648818,136.28322010528063 18.66687004279811,135.67619328235742 18.831604637089185,134.71209031084436 19.52348993299529,132.3196784403699 19.688224527286366,131.60552337756963 19.688224527286366,131.24844545553788 19.75411836488638,130.96278293040814 20.083587553584948,130.1057943548658 20.149481391184963,128.96314058749704 20.28126906650141,128.7488927092345 20.41305674193427,128.17756457539508 20.808419768232852,126.99919819383649 20.94020744378213,126.7492413239961 21.07199511898216,125.67799615077092 21.30262355110608,124.9995396619488 21.368517388706096,124.4996237528394 21.665039658430032,123.21412335659261 21.796827333862893,122.7499140506552 22.12629652232863,122.00003654960892 22.356924954336137,120.3217351231724 22.719341061776504,118.92909765648074 23.04881025024224,118.50059302343288 23.279438682249747,117.92925292943255 23.345332519966178,117.50074742126162 23.6418547895737,117.28649452648824 24.136058572330512,116.42948200978572 24.333740085479803,116.42948200978572 24.696156193036586,116.07239301840309 25.091519219102338,115.78672163761803 25.717510677408427,115.07254245647346 25.981086028157733,114.67974346270785 26.376449054456316,114.35836223338265 27.529591214261018,113.14425346261123 27.76021964615211,113.21567170895287 27.990848078159615,113.57276278440258 28.089688834850676,113.53705368857482 28.089688834850676,113.71559914157842 28.254423429025337,113.85843545716489 28.51799877989106,113.9298535992857 28.68273337406572,113.82272638214636 28.814521049614996,113.46563548906124 29.012202562764287,113.25138082820922 29.275777913513593,113.07283520587953 29.868822452728637,112.50148877661559 30.297132397885434,112.18010611712816 31.18669920694083,111.32308466016548 31.713849908555858,111.0731197858695 32.14215985359624,110.50177102256566 32.63636363646947,110.07325901239528 33.19646125694271,109.39478089567274 33.92129347170703,108.78772073096479 34.18486882245634,108.21636930000386 34.97559487493709,107.57359814285883 35.56863941438496,106.9665357194026 35.964002440683544,106.35947254303028 36.42525930458214,105.930956906348 37.281879194662906,105.4310215228179 37.64429530221969,105.07392450759653 38.33618059800938,104.85966617343365 39.15985356946476,104.35972969562863 40.609517998760566,103.93121230823454 42.882855399744585,103.57411419876735 44.4972544235643,103.50269454566296 45.32092739478685,103.39556504640495 46.90237949974835,102.64565789492917 47.46247712022159,102.18142908252776 48.0884685786441,101.78861974342726 48.3520439293934,101.5029400261119 48.64856619911734,101.36010010491009 48.94508846872486,101.28868012866587 49.17571690061595,101.36010010491009 49.93349603423849,102.68136778532062 50.88895668101031,103.71695347392233 51.152532031876035,104.71682723189588 51.383160463767126,105.03821479182807 51.44905430159997,105.57386025588494 51.67968273349106,105.85953759713448 51.94325808424037,106.71656862035161 52.30567419168074,107.39505044944235 53.35997559502721,109.85900286660763 53.524710189318284,110.71602688694838 53.72239170235116,111.28737540025031 53.92007321550045,112.394361246872 53.95302013424225,112.82287122515845 54.282489322824404,114.00127173107467 54.51311775483191,114.39407126925653 55.07321537530515,115.07254245647346 55.468578401603736,115.42963217728538 55.86394142790232,115.67959482697188 56.42403904837556,116.1438108375005 56.75350823672488,116.17951974316384 57.24771201959811,116.39377312245779 57.70896888349671,116.32235533971107 57.8737034779042,116.3580642323941 58.40085417951923,116.57231753345695 58.89505796227604,116.7151530154515 59.05979255656712,116.92940616019769 59.25747406959999,117.07224153805873 59.75167785247322,117.28649452648824 60.34472239180468,117.42932980007026 61.333129957318306,117.92925292943255 61.62965222692583,117.96496170485625 61.82733374007512,117.8935441513895 61.99206833448261,117.92925292943255 63.1122635754291,118.3934668066795 63.67236119590234,118.50059302343288 63.837095790193416,118.6434279428504 64.39719341078307,118.6077192168741 64.99023794999812,118.8933889514301 65.8139109214535,119.14334983227309 67.0,119.35760191435111" stroke="#fff600" stroke-linecap="round" stroke-linejoin="round" stroke-width="0.5"><title>2023-12-11 2.8km</title><desc>10362547167</desc></polyline><polyline fill="none" points="177.82802547770552,121.89518789137946 177.82802547770552,121.33603468560614 176.4522292993497,121.77093165525002 171.17834394914098,115.80661100067664 159.31210191105492,107.41921442712191 145.95541401277296,101.26840445119888 135.8662420383189,98.22404772799928 133.0,100.70923770562513 133.34394904482178,118.72664820519276 134.3184713376686,119.41005972272251 141.31210191105492,119.28580312390113 146.81528662424535,121.14965020201635 159.54140127403662,129.0398909949581 169.45859872619621,136.80580466933316 177.31210191105492,141.77595227194251 183.6178343950305,136.18453418038553 187.0,129.4126564686303 181.89808917208575,125.31222728639841 180.80891719763167,125.37435514840763" stroke="#fffb00" stroke-linecap="round" stroke-linejoin="round" stroke-width="0.5"><title>2023-12-11 2.6km</title><desc>1702269198000</desc></polyline><polyline fill="none" points="57.83775185584091,181.9242083998979 58.0095440086443,181.36564818618353 57.89501590654254,181.3035859176307 56.864262990420684,181.9242083998979 56.46341463411227,181.80008393956814 56.29162248154171,181.55183496477548 56.17709437990561,180.7450252964627 55.89077412523329,180.37265134532936 55.54718981962651,180.18646430881927 54.63096500537358,180.0002772314474 54.11558854742907,179.62790295452578 53.886532343691215,178.63490408600774 53.54294803831726,177.95221669174498 53.14209968177602,177.76602912560338 52.39766702032648,177.02127845323412 52.22587486752309,176.71096548094647 51.538706256542355,176.2765271293465 51.195121951401234,175.84208855603356 50.450689289718866,175.34558705770178 50.04984093317762,174.91114800912328 48.79003181331791,174.2905204120325 48.560975609812886,173.79401800851338 47.70201484649442,173.17338959680637 47.01484623551369,172.98720098496415 46.843054082710296,172.49069782102015 46.55673382850364,172.18038319633342 45.81230116635561,171.87006845866563 45.18239660654217,171.37356464273762 44.953340403037146,171.31150164548308 44.83881230116822,171.31150164548308 44.89607635210268,171.37356464273762 45.06786850490607,171.37356464273762 44.09437963948585,170.93912356632063 43.17815482500009,170.07024074805668 42.49098621425219,169.82198835117742 41.803817603504285,169.20135704230051 40.94485683995299,168.70485166937578 40.715800636215135,168.3324724495178 40.02863202546723,167.83596656954614 38.94061505841091,167.27739710832248 38.196182396728545,166.96708058257354 37.90986214228906,166.90501726372167 37.96712619322352,166.90501726372167 36.53552492056042,166.03613032615976 36.02014846238308,165.9120035484084 35.046659596962854,165.2293059466756 34.35949098621495,164.91898867400596 34.130434782709926,164.67073477432132 33.72958642616868,164.608671288006 33.84411452827044,164.67073477432132 33.27147401915863,164.23629027570132 32.64156945911236,164.17422675772104 31.610816542757675,163.55359132948797 29.835630964953452,162.93295544869034 29.205726405140013,162.80882821819978 27.77412513270974,161.93993709760252 26.05620360537432,161.2572363091167 25.139978791121393,161.0710450898623 24.567338282242417,160.76072630059207 23.135737009579316,160.38834360410692 22.90668080607429,160.2642160024261 22.963944856775925,160.2021521947463 23.078472958644852,160.51247118774336 22.73488865350373,160.45040739816613 21.704135737149045,160.14008838264272 20.730646871728823,159.64357772225048 20.158006362617016,159.70564157067565 19.29904559906572,159.20913065690547 16.60763520677574,158.4022998037981 15.920466596260667,158.27817191235954 15.176033934345469,158.4022998037981 14.08801696728915,159.33325841237092 13.229056203737855,160.2642160024261 13.114528101868927,160.69866252929205 13.17179215257056,161.0710450898623 13.114528101868927,161.7537460278836 13.286320254439488,162.80882821819978 13.0,163.1191462603747 13.114528101868927,163.2432734457543 13.057264050934464,163.3053370314883 13.229056203737855,163.8018455550773 13.229056203737855,164.85692520579323 13.343584305373952,164.91898867400596 13.343584305373952,165.10517905122833 13.114528101868927,165.53962310624775 13.114528101868927,165.97406693943776 13.229056203737855,166.84295394050423 13.400848356308416,168.20834600680973 13.286320254439488,169.20135704230051 13.45811240724288,170.0081776555744 13.343584305373952,170.69087142311037 13.400848356308416,172.05625731498003 13.515376457944512,172.24244613031624 13.343584305373952,176.64890287286835 13.45811240724288,178.75902900792425 13.45811240724288,178.57284161821008 13.62990455981344,178.88315391167998 14.08801696728915,179.1934660921106 14.145281017990783,179.3175909324782 14.431601272430271,179.44171575497603 15.34782608691603,179.3175909324782 16.034994697896764,179.37965334602632 16.664899257710204,179.13140366511652 17.69565217383206,179.13140366511652 18.611876988317817,179.3175909324782 19.184517497429624,179.1934660921106 20.55885471892543,179.37965334602632 21.417815482709557,179.3175909324782 21.875927889719605,179.56584055919666 22.27677624602802,179.56584055919666 23.937433722196147,179.8761524905567 25.598091198364273,180.49677601386793 26.915164368925616,181.1173990846146 29.205726405140013,182.48276824696222 29.377518557943404,182.73101695021614 30.007423117756844,182.85514127463102 30.40827147406526,183.41370051080594 30.980911982944235,183.59988684137352 31.267232237616554,183.91019730170956 31.66808059392497,184.03432145429542 31.954400848364457,184.28256970481016 33.09968186635524,185.02731402218342 33.156945917289704,185.21349999972153 36.87910922593437,187.69597580772825 37.566277836915106,187.75803761027055 37.85259809112176,188.37865538551705 37.85259809112176,188.56484062963864 38.367974549299106,188.6269023687928 38.99787910934538,188.9372109961696 39.627783669158816,188.99927270814078 39.79957582172938,189.3095811996609 40.60127253434621,190.11638274835423 42.261930010747164,190.98524509905837 42.83457051962614,191.5437989991624 43.235418875934556,191.79204505920643 43.865323435747996,192.5988442544476 44.953340403037146,193.2815198993194 45.984093319159,194.2124403505586 48.217391304438934,195.70191095449263 48.73276776261628,196.01221700233873 49.53446447523311,196.81901219690917 49.93531283154152,197.12931783730164 50.85153764579445,197.5016844564234 51.13785790023394,197.56374554376816 51.42417815490626,197.8119898479781 52.168610816588625,198.12229512631893 52.56945917289704,198.49466131115332 53.14209968177602,198.55672232608777 54.11558854742907,199.36351510853274 56.74973488855176,201.10122004250297 57.09331919415854,201.53564572165487 57.37963944859803,201.72182808764046 57.83775185584091,201.72182808764046 58.23860021214932,201.47358492395142 59.44114528107457,199.92206350987544 59.78472958644852,199.611758887826 60.2428419936914,199.54969794978388 60.930010604672134,198.991149303969 62.87698833527975,197.0672567182919 63.67868504789658,196.13633938966086 63.90774125116877,195.26748229761142 63.90774125116877,194.83305341895903 64.7667020149529,194.02625634172 65.05302226939239,193.46770407096483 65.56839872756973,192.90915143373422 65.68292682943866,192.5367828051676 65.85471898200922,192.28853696223814 65.85471898200922,192.04029104701476 66.65641569462605,190.42669083259534 67.0,189.3716428843327 66.82820784742944,188.9372109961696 66.08377518551424,188.6269023687928 65.4538706257008,188.06834655435523 65.22481442196295,187.69597580772825 63.33510074252263,186.57886259030784 61.96076352056116,185.33762396208476 61.50265111355111,185.21349999972153 61.101802757242694,184.90319001459284 60.930010604672134,185.08937601925572 60.815482502570376,185.3996859365725" stroke="#fff900" stroke-linecap="round" stroke-linejoin="round" stroke-width="0.5"><title>2023-12-11 2.7km</title><desc>10361669003</desc></polyline><polyline fill="none" points="164.06516853906214,167.0458966663573 165.52134831435978,163.1004129940411 153.1438202247955,154.9463860495016 148.28988764062524,162.8373804424191 141.73707865178585,162.96889672300313 133.0,180.59199158032425 167.58426966285333,205.053613950382 170.7393258428201,204.00150798843242 187.0,181.64411119872238 186.7573033706285,179.01381100167055 175.59325842699036,171.51743439305574" stroke="#ffff00" stroke-linecap="round" stroke-linejoin="round" stroke-width="0.5"><title>2023-12-06 1.2km</title><desc>1701838156000</desc></polyline><polyline fill="none" points="43.943820224609226,226.91438163723797 44.18651685398072,226.38831764634233 45.521348314359784,225.07315699779429 45.885393258649856,223.8895115937339 45.39999999944121,222.96889796492178 41.51685393229127,220.4700871744426 41.03146067401394,220.4700871744426 40.42471910081804,220.0755377856549 37.75505617912859,217.97127292095684 35.93483146093786,216.78762285597622 34.114606741815805,215.20942156028468 33.14382022479549,214.9463878767565 32.77977528097108,215.34093838755507 32.173033707775176,217.05065627081785 29.867415729910135,220.86463647685014 28.28988764062524,222.70586541329976 26.469662921503186,223.23193047824316 25.620224718935788,223.23193047824316 23.31460674153641,221.78525118005928 22.707865168806165,221.91676752781495 21.615730336867273,222.8373816938838 21.37303370749578,223.6264791765716 21.37303370749578,225.8622535020113 20.28089887648821,226.25680162478238 19.674157303757966,227.04589761118405 18.824719101190567,228.624088547891 18.217977527994663,230.20227810367942 16.8831460676156,232.43804427667055 15.184269662946463,234.14774595049676 13.485393258277327,236.9095683073392 13.0,238.88229597255122 13.0,240.59199153701775 13.485393258277327,241.38108125107829 14.092134831473231,241.64411107904743 15.912359550595284,243.09077444614377 18.582022471819073,244.2744072478963 19.310112359467894,245.19501000049058 20.766292134765536,246.2471268569352 21.00898876413703,247.16772860265337 21.858426966238767,248.0883298786357 23.071910112630576,248.21984430821612 26.591011236421764,250.1925596013898 27.80449438188225,251.24467354267836 30.352808989118785,252.55981510551646 31.56629213457927,254.00646971701644 33.750561797525734,255.4531231680885 34.478651685640216,256.89977545908187 34.842696629464626,257.1628030234715 36.5415730336681,257.68885803746525 39.817977528553456,259.2670221591834 41.39550561783835,260.7136713905493 46.12808988755569,263.21242642134894 46.4921348313801,264.13301950716414 47.3415730339475,264.7905857095029 48.06966292113066,265.0536121232435 48.919101123232394,265.0536121232435 50.496629213448614,264.00150623801164 51.46741573046893,262.6863730183104 51.83146067382768,261.5027523005847 52.55955056194216,260.4506443440914 54.74382022442296,258.0833991972031 57.292134831659496,254.66403961158358 58.38426966313273,254.13798371492885 59.2337078647688,253.08587146212813 61.29662921326235,249.66650240088347 62.631460674107075,248.35135872801766 63.1168539323844,246.77318505488802 63.96629213448614,245.9840977002168 65.66516853962094,243.2222892404534 66.3932584268041,242.82774482946843 67.0,241.51259616960306 66.7573033706285,240.59199153701775 66.87865168508142,239.27684124663938 66.7573033706285,239.01381107361522 64.93707865197212,238.48775061243214 63.359550561290234,237.6986596324714 61.66067415708676,236.38350723218173 60.56853932514787,236.1204766369192 59.2337078647688,235.33138462121133 58.62696629203856,234.6738076779293 56.68539325799793,233.22713755851146 55.95730337081477,232.8325909607811 55.95730337081477,232.43804427667055 55.350561797618866,231.25440370687284 55.22921348316595,231.78046627808362 55.59325842699036,231.51743501168676" stroke="#ffff00" stroke-linecap="round" stroke-linejoin="round" stroke-width="0.5"><title>2023-12-06 1.3km</title><desc>10335782949</desc></polyline></svg>