<?xml version="1.0" encoding="utf-8" ?>
<svg baseProfile="full" height="300mm" version="1.1" viewBox="0,0,200,300" width="200mm" xmlns="http://www.w3.org/2000/svg" xmlns:ev="http://www.w3.org/2001/xml-events" xmlns:xlink="http://www.w3.org/1999/xlink"><defs /><rect fill="#222222" height="300" width="200" x="0" y="0" /><text fill="#FFFFFF" style="font-size:12px; font-family:Arial; font-weight:bold;" x="10" y="20">人生苦短，及时行乐</text><text fill="#FFFFFF" style="font-size:4px; font-family:Arial" x="10" y="280">ATHLETE</text><text fill="#FFFFFF" style="font-size:9px; font-family:Arial" x="10" y="290">PPZ</text><text fill="#FFFFFF" style="font-size:4px; font-family:Arial" x="120" y="280">STATISTICS</text><text fill="#FFFFFF" style="font-size:3px; font-family:Arial" x="120" y="285">Number: 11</text><text fill="#FFFFFF" style="font-size:3px; font-family:Arial" x="120" y="290">Weekly: 5.5</text><text fill="#FFFFFF" style="font-size:3px; font-family:Arial" x="141" y="285">Total: 27.7 km</text><text fill="#FFFFFF" style="font-size:3px; font-family:Arial" x="141" y="290">Avg: 2.5 km</text><text fill="#FFFFFF" style="font-size:3px; font-family:Arial" x="167" y="285">Min: 1.2 km</text><text fill="#FFFFFF" style="font-size:3px; font-family:Arial" x="167" y="290">Max: 4.8 km</text><polyline fill="none" points="15.013525957823731,85.82615631684894 15.494902941398323,85.92397674149834 15.58516112563666,85.9891903459793 15.855935678700916,85.66312222828856 15.705505371442996,85.20662646382698 15.76567749446258,84.97837840684224 15.886021740268916,84.91316465492127 16.24705447780434,84.88055777532281 16.57800115388818,84.71752334194025 16.818689645500854,84.65230955192237 17.30006662895903,85.17401960567804 17.540755120571703,85.46748124345322 17.931873919442296,85.72833587083733 17.99204604246188,85.82615631684894 18.322992718429305,85.95658354493207 18.53359514870681,86.18483110255329 18.894627886242233,86.28265144870966 19.436176992487162,86.67393261936377 19.526435176841915,86.70653936814051 19.5565212382935,86.90217981080059 19.67686548421625,87.0 19.767123668571003,86.96739327258547 19.97772609873209,86.77175285856356 20.128156405990012,86.34786500094924 20.158242467441596,85.85876312741311 20.21841459046118,85.76094268850284 20.51927520497702,85.56530174656655 20.66970551223494,84.94577153207501 20.790049758157693,84.68491644816822 20.88030794262886,84.13059888943098 20.790049758157693,83.90235028311145 20.790049758157693,83.67410156031838 20.88030794262886,83.44585272099357 21.211254618596286,82.9241406507499 21.361684925854206,82.23939263462671 21.482029171776958,81.97853597163339 21.42185704887379,81.71767915651435 21.45194311020896,81.2611793637916 21.75280372495763,80.54382160489331 21.843061909195967,79.9242844323162 22.08375040104147,79.33735368747148 22.143922523828223,78.94606609610491 22.264266769750975,78.5221708191093 22.234180708182976,78.16348988609388 22.414697077008896,78.00045300327474 22.44478313846048,77.51134199797525 22.625299507169984,77.08744536055019 23.016418306156993,75.81575303678983 23.07659042906016,75.2288168981031 23.25710679788608,74.77231047963141 23.287192859337665,74.15276530905976 23.557967412401922,73.20714207738638 23.557967412401922,72.97888789424906 23.708397719776258,72.71802582792589 23.708397719776258,72.42455582137336 23.888914088602178,72.03326217961148 24.09951651864685,71.2506738686061 24.219860764569603,70.43547625440988 24.460549256182276,69.42462914821226 24.370291071827523,69.03333288061549 24.0393443958601,68.64203627040843 21.933320093667135,67.72900951458723 21.75280372495763,67.5985769687104 21.42185704887379,67.46814438464935 21.241340680164285,67.46814438464935 21.120996434241533,67.30510360124754 21.00065218831878,67.27249543741345 20.51927520497702,67.17467093165033 20.248500651912764,67.0116300410591 19.285746685112827,66.65293987269979 18.563681210158393,66.26164117871667 18.052218165365048,66.09859995526494 17.119550260016695,65.6420842128864 17.14963632146828,65.44643446640112 17.179722383036278,65.51165105804102 17.14963632146828,65.67469249566784 17.23989450582303,65.67469249566784 17.26998056739103,65.44643446640112 17.390324813197367,65.18556800438091 17.3301526902942,64.72905132957385 17.390324813197367,64.56600954709575 17.60092724347487,64.1747090263234 17.781443612184376,63.94645023101475 17.961959981010295,63.489932290744036 18.1424763497198,63.29428160216776 18.17256241105497,63.03341388414265 18.503509087255225,62.446460962091805 19.01497213204857,61.59863871394191 19.85738185304217,60.457336994295474 20.338758836267516,60.066032876697136 21.361684925854206,58.76168334388058 21.542201294680126,58.5660305856436 21.7828897862928,58.435595365881454 21.843061909195967,58.2725512876641 21.7828897862928,58.10950715004583 22.05366433947347,58.14211598230759 22.294352831086144,57.848636406008154 22.65538556862157,57.750809837831184 22.89607406023424,57.32689446135191 23.85882802703418,56.805151907523395 23.919000150053762,56.7725429777056 23.919000150053762,56.67471617393312 24.340205010259524,56.609498292848 24.761409870814532,56.34862667336711 25.03218442387879,56.34862667336711 25.363131100079045,56.02253693487728 26.08519657503348,55.8268829776498 26.65683174272999,55.53340188114089 27.469155402155593,55.23992059190641 28.010704508516937,54.979048173030606 28.040790569852106,54.88122097670566 27.95053238561377,54.84861190652009 28.221306938678026,54.84861190652009 28.341651184600778,54.8160028338898 28.58233967621345,54.52252107363893 29.003544536652043,54.196430002804846 29.274319089832716,53.707292950479314 29.364577274187468,53.38120128490846 29.725610011606477,52.565971079980955 29.75569607305806,52.40292486050748 29.60526576580014,51.91378584533231 29.63535182736814,51.718130089342594 29.575179704348557,51.48986493246048 29.244233028264716,50.70724065232207 28.97345847520046,49.72895837482065 28.73276998347137,49.239816433080705 28.823028167826124,48.78328347101342 28.79294210637454,48.75067395591759 28.73276998347137,48.457188212603796 28.702683922019787,47.90282572724391 28.61242573778145,47.60933942726115 28.461995430407114,47.34846255421871 28.4920814918587,47.21802406068309 28.371737245935947,46.85931800698745 28.371737245935947,46.5984406961652 28.281479061581194,46.10929532800219 28.281479061581194,45.52232017944334 28.191220877226442,45.359271390218055 28.221306938678026,45.131002985464875 28.070876631420106,44.90273446403444 28.070876631420106,44.18531835183967 27.830188139691018,43.37007137184264 27.920446324162185,43.1091920241015 27.830188139691018,42.75048267230159 27.860274201026186,42.45699298850377 27.679757832433097,41.96784308718634 27.70984389388468,41.54391273952206 27.55941358662676,40.46778005087981 27.679757832433097,40.33733954891795 27.679757832433097,39.978627972101094 27.619585709413514,39.84818732726853 27.499241463607177,39.78296699060593 27.43906934070401,39.55469573731534 27.52932752505876,39.3264243673766 27.55941358662676,39.130763100343756 27.469155402155593,38.152455480070785 27.589499648078345,37.728521512734005 27.920446324162185,37.43502853056998 28.251393000246026,37.04370425443631 28.43190936895553,36.91326275290339 31.470601576264016,36.456717197725084 32.192667051334865,36.22844424514915 32.43335554306395,36.00017117592506 32.64395797322504,35.86972936979146 32.734216157579795,35.93495027767494 33.1253349565668,35.93495027767494 33.63679800136015,35.8371189123427 33.937658615992405,35.804508452507434 34.17834710760508,35.64145611738786 34.44912166078575,35.70667705856613 34.71989621385001,35.674066589126596 35.38178956601769,35.31535126877134 35.89325261092745,35.28274077086826 36.01359685661737,35.21751976775704 36.46488777862396,35.21751976775704 37.09669506934006,35.08707773315837 37.30729749938473,35.18490926272352 37.42764174530748,35.05446721854969 37.87893266719766,35.08707773315837 37.999276913003996,35.021856701612705 38.570912080816925,34.85880408092635 38.81160057254601,34.8914146097668 39.44340786302928,34.7609724799986 41.76003459538333,34.20659300338593 42.42192794755101,33.97831890129601 43.89614495902788,33.68482345578377 44.97924317175057,33.358717179187806 45.49070621654391,33.13044264394557 45.97208319976926,33.0978319865535 46.24285775294993,33.0 46.63397655193694,33.16305329898023 46.69414867495652,33.22827460191911 46.72423473629169,33.423938453546725 46.81449292076286,33.61960221949266 46.754320797743276,34.23920357975294 46.66406261338852,34.69575140075176 46.87466504354961,35.08707773315837 46.96492322802078,36.03278162155766 46.81449292076286,36.42410678297165 46.57380442903377,37.56546987980255 46.24285775294993,38.31550689882715 46.15259956859518,38.772050554922316 46.00216926133726,39.00032220807043 45.94199713843409,39.84818732726853 45.76148076960817,40.20689900883008 45.731394708156586,40.59822051477386 45.85173895396292,41.11998198973015 45.85173895396292,41.5113026961335 45.911911076982506,41.60913281913963 46.062341384240426,41.73957294996944 46.09242744569201,41.8374030230334 46.062341384240426,42.22872310117236 46.09242744569201,42.39177303263568 46.09242744569201,42.78309262532275 46.3331159374211,43.37007137184264 46.42337412177585,44.283147889509564 46.87466504354961,45.39188115281286 46.87466504354961,45.815807850070996 47.29586990410462,47.185414431325626 47.35604202700779,47.77238739549648 47.23569778108504,47.93543530427269 47.56664445728529,49.07676900018123 47.56664445728529,49.40286380646285 47.807332948897965,50.02244328291272 47.83741901034955,50.54419375481666 47.927677194587886,50.70724065232207 47.987849317723885,51.131162307574414 47.987849317723885,51.392036972392816 48.04802144051064,51.587692871136824 48.22853780933656,51.65291148496908 48.37896811659448,51.783348684199154 48.348882055142894,51.718130089342594 48.40905417816248,51.783348684199154 48.709914792561904,51.91378584533231 48.67982873134315,52.305097100295825 48.830259038484655,52.761626464751316 50.12395968136843,55.174702501506545 50.66550878749695,55.98992794789956 51.02654152503237,56.38123563415138 51.29731607821304,56.902978682745015 51.35748820111621,57.16384997867863 51.32740213966463,57.32689446135191 51.568090631393716,57.71820097696036 51.62826275418047,58.17472481218283 51.80877912300639,58.5660305856436 52.04946761461906,58.892118468444096 52.139725798973814,59.283423613786 52.320242167799734,59.511684790370055 52.410500352154486,59.83777198320604 52.68127490533516,60.457336994295474 52.71136096678674,60.81603213454946 52.92196339694783,61.30516140724649 52.89187733549625,61.53342155137216 53.04230764287058,62.2182012842386 53.162651888560504,62.60950351782958 53.162651888560504,62.935588450724026 53.25291007303167,63.359498507838 53.22282401158009,63.62036603552406 53.28299613459967,64.07688384255744 53.67411493358668,64.9573097252578 53.88471736374777,65.0551347162982 54.666954961721785,65.5768676402513 55.02798769925721,65.90295040846104 55.81022529711481,66.29424941629986 56.171258034650236,66.55511523128371 56.65263501810841,66.55511523128371 57.10392593976576,66.815980893909 57.6454750461271,66.91380547822337 58.21711021394003,67.10945458256174 58.939175688894466,67.43553623274784 59.14977811917197,67.50075253430987 59.20995024207514,67.43553623274784 59.14977811917197,67.23988727116375 59.17986418050714,67.17467093165033 59.20995024207514,67.27249543741345 59.42055267223623,67.37031992178527 59.36038054933306,67.5985769687104 59.51081085659098,67.69640138166142 60.08244602452032,67.92465826217085 60.293048454564996,67.95726637839107 60.74433937657159,68.18552312563406 60.95494180673268,68.15291502600303 61.315974544151686,68.34856358793331 61.79735152760986,68.41377975631622 62.30881457251962,68.60942820410128 62.519417002564296,68.60942820410128 62.79019155574497,68.77246851180098 63.27156853908673,68.80507656626287 63.33174066210631,69.06594091595616 63.572429153718986,69.22898105726927 63.542343092150986,69.45723715508939 63.722859460976906,69.16376500789193 63.81311764533166,69.16376500789193 64.05380613706075,69.29419709707145 64.98647404229268,69.65288514614804 64.89621585793793,69.7833170927479 64.83604373491835,69.7833170927479 64.65552736620884,69.68549313640688 64.80595767358318,69.7833170927479 64.83604373491835,69.7833170927479 64.80595767358318,69.718101124221 64.71569948922843,69.65288514614804 64.56526918185409,69.68549313640688 64.62544130475726,69.718101124221 64.83604373491835,69.718101124221 64.83604373491835,69.65288514614804 64.7758716121316,69.6202771536482 64.62544130475726,69.6202771536482 64.68561342766043,69.718101124221 64.86612979648635,69.718101124221 64.83604373491835,69.65288514614804 64.7758716121316,69.58766915870365 64.47501099738292,69.55506116140168 64.38475281314459,69.65288514614804 64.354666751693,69.58766915870365" stroke="#ffc000" stroke-linecap="round" stroke-linejoin="round" stroke-width="0.5"><title>2023-12-13 4.8km</title><desc>10373312158</desc></polyline><polyline fill="none" points="113.61518942192197,53.541807609261014 113.44965520408005,52.91389717604034 112.87028544116765,52.10658329038415 112.5392170054838,51.38897050311789 113.20135387731716,51.030163952265866 113.78072363929823,51.20956724055577 114.1945591843687,51.83747854421381 113.94625785760581,53.272703177062795 113.532422313001,53.81091198278591 113.44965520408005,54.16971772222314 114.02902496652678,55.87404355581384 113.94625785760581,56.5019524784293 112.87028544116765,57.39896466874052 112.62198411440477,57.757769361371174 112.04261435195804,58.02687281242106 111.54601169843227,58.834182812366635 110.71834060875699,59.551791256293654 109.64236819231883,60.17969830124639 109.39406686555594,60.80760502582416 109.0629984298721,61.256109632900916 106.24891672562808,62.51192166248802 105.83508118102327,63.588330952916294 105.25571141811088,63.947133840760216 104.84187587350607,64.3956373030087 104.75910876505077,64.57503864215687 104.84187587350607,64.84414060181007 104.51080743782222,65.47204494534526 106.00061539839953,66.7278526709415 106.82828648854047,67.17635511921253 108.73192999418825,68.4321611050982 112.29091567872092,71.03346942574717 112.70475122332573,71.481970304274 112.87028544116765,71.93047101947013 113.03581965947524,71.75107075297274 113.78072363929823,71.93047101947013 114.27732629328966,72.28927147365175 114.36009340221062,72.55837174586486 113.69795653084293,73.18627215176821 113.20135387731716,73.54507223982364 112.5392170054838,73.54507223982364 112.125381460879,73.90387222333811 111.21494326228276,73.72447224473581 110.55280639091507,74.17297214223072 110.0562037373893,75.15967134130187 109.14576553879306,75.96697009715717 108.81469710310921,76.86396809341386 107.57319046882913,77.7609654358821 106.33168383454904,79.01676061621401 105.42124563641846,79.46525858447421 104.84187587350607,80.45195353857707 103.60036923922598,80.9901504527079 102.85546525893733,81.70774597197305 101.77949284249917,83.77083075849805 100.86905464390293,84.57812386355363 100.45521909929812,85.29571729002055 99.87584933685139,85.65451384603512 99.29647957440466,85.83391208481044 98.71710981149226,86.46180571510922 97.64113739551976,87.0 97.31006895937026,86.91030096891336 96.64793208800256,86.28240756795276 96.23409654339775,85.56481471692678 95.40642545372248,84.66782306472305 95.24089123588055,84.7575222592568 94.57875436451286,84.39872544142418 93.17171351239085,84.66782306472305 92.17850820487365,86.10300939413719 91.93020687811077,86.73090288683306 91.68190555134788,86.91030096891336 90.44039891660213,86.82060193119105 89.94379626354203,86.19270848436281 89.28165939170867,85.92361119471025 88.61952252034098,85.38541643880308 87.70908432174474,83.95022927201353 85.63990659825504,81.79744538257364 85.63990659825504,81.34894826461095 85.88820792501792,81.16954937193077 86.13650925178081,81.16954937193077 86.30204346962273,81.52834713156335 86.55034479685128,81.4386477015214 87.21248166821897,80.63135253614746 87.87461853958666,80.27255451492965 88.20568697573617,79.5549581584055 88.7850567381829,79.10646022309083 90.10933048138395,76.14636974874884 90.52316602598876,75.4287709853379 91.8474397691898,74.53177194239106 91.93020687811077,74.17297214223072 93.08894640300423,72.46867166180164 93.33724773023278,71.21286979666911 94.41322014620528,68.79096257977653 94.90982279973105,68.34246071998496 95.24089123588055,67.53515696048271 96.23409654339775,66.54845164576545 96.89623341476545,65.11324250267353 95.90302810724825,64.30593662359752 95.15812412695959,63.05012642557267 94.82705569127575,62.78102407336701 93.50278194760904,62.15311835624743 93.00617929454893,61.52521231852006 92.5095766405575,61.34581053466536 89.86102915462106,59.28268813889008 88.20568697573617,58.74448172736447 87.29524877713993,58.11657394957729 86.96418034145609,57.66806819813792 87.54355010390282,56.95045865501743 87.29524877713993,55.96374485024717 86.55034479685128,55.69464094785508 86.63311190530658,55.15643296635244 86.88141323253512,55.15643296635244 86.79864612361416,54.97703025350347 86.71587901422754,55.06673161336221 87.12971455883235,54.797627514693886 87.21248166821897,54.43882195826154 87.46078299498186,54.08001629705541 88.61952252034098,53.63150907366071 89.03335806494579,51.83747854421381 90.27486469922587,50.8507606376661 93.75108327483758,46.36566926818341 95.73749388940632,43.046691125724465 95.82026099832729,42.41877533472143 98.05497294012457,39.54829906439409 98.79987692041323,38.023355820798315 99.54478090116754,37.126329500461 100.62075331714004,34.79405800555833 101.61395862465724,33.8073264262639 102.44162971433252,33.8073264262639 102.60716393217444,33.269108867738396 103.26930080354214,33.0 104.26250611105934,33.89702932990622 104.42804032890126,33.89702932990622 104.75910876505077,34.43524661392439 106.99382070591673,36.319005252677016 108.15256023127586,37.48514010722283 109.39406686555594,38.29246358945966 109.64236819231883,38.920381487114355 109.31129975710064,40.17621632094961 109.55960108339787,40.53502603794914" stroke="#ffff00" stroke-linecap="round" stroke-linejoin="round" stroke-width="0.5"><title>2023-12-13 1.9km</title><desc>10372191603</desc></polyline><polyline fill="none" points="141.78551271231845,87.0 141.95364644099027,86.51407635520445 141.95364644099027,85.72444982785964 142.62618135637604,83.78075057105161 142.7943150852807,82.86963998299325 143.3547608477529,80.92593406361993 143.5789391528815,79.8325974905747 143.63498372910544,79.1644466559519 143.97125118691474,78.19258993980475 144.02729576290585,77.76740226981929 144.3075186444912,77.2207320893649 144.47565237339586,76.43109675095184 144.41960779717192,75.45923684496665 144.7558752547484,74.9125651496579 145.54049932258204,71.99697671330068 145.70863305125386,71.5717858801363 145.87676677992567,70.11398709000787 146.43721254263073,68.59544396976708 146.4932571190875,67.44134934653994 146.94161372911185,65.98354332585586 147.05370288155973,65.3153813801473 147.78228237340227,63.67534524056828 148.17459440696985,60.698975107690785 148.5108618645463,59.48412709828699 148.67899559345096,58.63373243721435 148.79108474613167,58.269277316576336 149.23944135615602,57.6011091809487 149.23944135615602,57.72259433649015 149.18339677993208,57.783336907450575 149.23944135615602,57.6011091809487 149.74384254263714,56.75071259692777 149.6877979664132,56.386256652127486 149.85593169508502,56.021800547954626 150.24824372888543,55.65734428411815 150.58451118692756,54.928431277978234 151.20100152562372,54.199517633824144 153.2746508475393,52.25574479653733 154.28345322050154,50.858655266987626 155.5724784748163,49.88676551618846 156.8054591526743,48.489672011870425 157.0296374578029,48.489672011870425 157.47799406782724,48.85413141286699 157.75821694917977,49.218590654432774 157.70217237295583,49.46156339341542 157.6461277967319,49.218590654432774 158.48679644078948,49.58304973633494 158.71097474568523,49.58304973633494 159.1593313559424,48.91487463086378 159.6637325421907,48.55041525652632 160.5604457629379,47.57852281141095 162.9703625421971,45.513247599010356 163.69894203380682,45.14878673560452 164.42752152541652,43.994659615913406 167.3418394913897,41.078962924249936 167.90228525432758,40.04631789762061 168.63086474547163,39.438879048335366 169.47153338976204,38.46697596786544 170.6484694913961,37.55581579939462 171.4891381354537,36.462422281038016 171.8814501692541,36.097957455785945 172.72211881331168,35.85498081706464 173.56278745713644,35.36902732675662 173.9550994914025,34.94381779007381 174.73972355900332,34.518608036334626 176.08479338954203,33.668187877337914 178.21448728768155,33.0" stroke="#ffff00" stroke-linecap="round" stroke-linejoin="round" stroke-width="0.5"><title>2023-12-12 1.9km</title><desc>10367724574</desc></polyline><polyline fill="none" points="65.3549668872729,126.8604229647899 66.14172185398638,126.395325806865 67.0,126.31780959415482 67.0,126.16277715179604 66.78543046303093,125.54264715558384 66.35629139048979,125.31009831395932 65.56953642331064,125.31009831395932 63.63841059617698,124.14735334180295 63.70993377454579,123.1396400037338 63.63841059617698,122.9846070978092 62.13642384065315,121.82185958162881 60.84900662256405,120.42656088323565 59.99072847701609,119.65139414818259 58.703311257995665,118.72119331982685 57.48741721827537,118.1785757940379 57.41589403990656,117.55844113969943 57.20132450340316,117.40340741950786 56.27152317855507,116.78327231277945 55.27019867533818,116.6282384795486 55.19867549650371,116.6282384795486 55.19867549650371,116.08561988524161 54.84105960233137,115.62051801232155 53.982781456783414,115.31044998409925 52.480794701725245,114.22521117294673 52.40927152335644,113.99265985487727 51.98013245034963,113.91514273756184 51.83708609268069,113.60507421178045 51.336423840839416,113.0624540738063 49.69139072811231,111.8996957030613 48.33245033118874,111.20204006979475 47.688741721678525,110.73693605989683 46.90198675496504,110.5819013445871 42.46754966909066,107.94630772602977 41.823841059580445,107.71375503402669 40.750993377529085,107.17113188840449 40.10728476801887,107.09361427352997 39.53509933780879,106.31843781407224 38.24768211878836,105.69829623942496 37.103311258368194,105.77581395593006 36.03046357585117,105.15567206480773 35.02913907263428,104.84560098324437 32.38278145669028,103.60531575325876 30.380132450256497,102.83013674942777 29.378807947039604,102.5200649893959 28.592052980326116,102.05495718005113 27.519205297809094,101.89992119825911 24.944370861165226,100.89218676585006 24.157615893986076,100.81466869311407 23.156291390769184,100.4270782439853 22.655629139393568,100.117005783075 19.365562913939357,99.18678785732482 18.650331126060337,98.87671503442107 17.935099337715656,98.95423324860167 17.291390728205442,98.79919681465253 16.71920529799536,98.41160563053563 15.717880794778466,98.41160563053563 15.145695364568383,99.10926966014085 13.78675496717915,100.03948765364476 13.286092715337873,100.73715061455732 13.0,101.4348131174338 13.286092715337873,102.90765467501478 13.286092715337873,103.52779787807958 13.071523178834468,104.61304761300562 13.071523178834468,105.85333166690543 13.143046357668936,109.10907042236067 13.429139073006809,112.13224747881759 13.286092715337873,114.22521117294673 13.35761589417234,117.8685085120378 13.286092715337873,118.87622684775852 13.35761589417234,120.27152758132434 13.35761589417234,120.96917726140236 13.429139073006809,122.90709063614486 13.500662251841277,123.29467288719025 13.78675496717915,123.604738586233 14.573509933892637,123.9923205828527 15.360264901071787,124.14735334180295 16.36158940428868,123.9923205828527 19.58013245044276,123.91480419476284 20.36688741715625,123.75977140181931 22.798675496596843,124.22486971277976 23.370860927272588,124.14735334180295 24.515231788158417,124.53493514057482 25.588079470209777,124.53493514057482 29.664900662377477,125.8527121989755 32.45430463599041,127.48055219196249 34.24238410592079,129.03087367699482 34.59999999962747,129.41845369478688 36.81721854303032,130.58119290077593 38.24768211878836,131.51138334959978 39.89271523151547,132.8291517587495 40.82251655636355,133.29424610128626 41.75231788074598,133.5267931962735 42.32450331142172,134.1469185340684 43.03973509930074,134.30194981204113 43.82649006601423,135.61971476156032 44.32715231785551,135.61971476156032 44.54172185435891,135.92977686511585 45.61456953641027,136.54990080109565 46.11523178825155,136.62741626770003 46.7589403972961,137.24753979675006 47.18807947030291,137.40257062244928 47.61721854284406,137.86766296398127 48.47549668839201,138.1777244117693 50.621192052960396,140.50318238820182 52.480794701725245,141.58839436946437 52.69536423822865,141.58839436946437 53.911258277948946,141.12330365594244 54.48344370862469,140.81324306718307 55.770860927179456,139.10790821281262 56.200000000186265,138.72033172787633 56.843708609230816,138.5653010943788 57.48741721827537,138.72033172787633 58.13112582778558,138.72033172787633 58.774834437295794,138.48778576910263 59.418543046340346,137.5576014253893 60.41986754955724,135.92977686511585" stroke="#ffff00" stroke-linecap="round" stroke-linejoin="round" stroke-width="0.5"><title>2023-12-12 2.1km</title><desc>10366736030</desc></polyline><polyline fill="none" points="126.4001205204986,113.74683050252497 125.07210058090277,112.65490782767301 124.65995646174997,111.96004703146173 124.29360613366589,110.6695893840515 124.20201855176128,110.07399272132898 124.29360613366589,110.1732588679879 124.24781234259717,109.72656109381933 123.51511168642901,106.15296834288165 121.31700971792452,100.69327650521882 119.85160840535536,98.06268206925597 119.6226394502446,97.3678063689731 119.57684565917589,97.16927032422973 119.07311395811848,96.92110018676613 118.43200088385493,95.53134574420983 117.51612506341189,93.99268572818255 117.42453748150729,94.0919542213087 117.33294989936985,93.84378296131035 116.73763061617501,93.1489029515651 116.41707407892682,93.0 115.91334237786941,93.1489029515651 115.54699204978533,93.39707446505781 114.76849760254845,94.14158846251667 113.76103420020081,94.78683326783357 112.34142667870037,95.33280916354852 111.37975706742145,95.63061401288724 111.37975706742145,95.43207746115513 110.4180874559097,96.07732104242314 109.54800542676821,96.32549148763064 105.24338907143101,96.97073422151152 101.99202990927733,98.21158391272184 100.9845665069297,98.7079231555108 99.56495898519643,99.65096671902575 98.23693904583342,100.7429102648166 95.6266929579433,103.32386076933471 94.25287922751158,104.1179974162369 93.65755994431674,104.61433234991273 92.00898346770555,106.64930179191288 86.1931720089633,112.15857875993242 82.62125630979426,115.78177262929967 82.02593702659942,116.57589473522967 81.38482395233586,117.81670866993954 80.92688604211435,118.75972574722255 80.05680401274003,122.43251664261334 79.69045368465595,123.52442362619331 79.14092819252983,124.96375288208947 79.09513440146111,124.91412088955985 75.47742491122335,140.44875782512827 74.97369321016595,142.03694353741594 74.88210562802851,142.48362010106212 74.60734288184904,142.38435866788495 74.65313667291775,142.5828815199202 74.56154909101315,143.178449728759 74.0120235986542,145.6103478386649 73.5998794795014,147.0" stroke="#fff400" stroke-linecap="round" stroke-linejoin="round" stroke-width="0.5"><title>2023-12-12 2.9km</title><desc>10366295050</desc></polyline><polyline fill="none" points="170.72639090102166,146.33159222296672 170.9025944476016,146.28384878428187 170.68234001426026,146.1883618963766 170.285882034339,146.28384878428187 170.1096784879919,146.14061844709795 169.66916962130927,145.9973880785983 169.44891518796794,146.04513153829612 168.52384656807408,145.90190114889992 167.55472706165165,145.66318376350682 167.1582690817304,145.42446629109327 166.71776021528058,145.32897927780868 166.0569969152566,145.0902616835083 165.3081318421755,144.94703108508838 164.73547031567432,144.66056979435962 164.29496144899167,144.51733910193434 164.07470701588318,144.2786212117062 162.79723130259663,143.8011851698393 162.09241711627692,143.65795428934507 160.50658519635908,142.94179941678885 159.93392367009073,142.89405573089607 159.22910948377103,142.70308095187647 158.30404086387716,142.32113122672308 157.6873284506146,142.27338749548653 157.24681958393194,141.9391812789254 156.93846337753348,141.84369375702227 156.10149653069675,141.3662559389486 155.44073323113844,140.65009855892276 155.17642791103572,140.50686698878417 154.82402081787586,140.22040375461802 154.51566461124457,139.79070866829716 154.03110485803336,138.45387770666275 153.8549013112206,136.35313782136654 153.50249421806075,135.30276534997392 153.6346468781121,134.8730670348741 153.41439244477078,134.58660133479862 152.66552737168968,134.3001355092856 152.53337471163832,133.7272034821217 151.82856052508578,132.10389334789943 151.5202043184545,131.53095939802006 151.16779722529463,130.3373453913373 150.94754279172048,129.76440989482217 150.5510848122649,129.04823981877416 150.4189321519807,128.61853739700746 150.15462683234364,128.2365794518264 150.06652505882084,127.80687649716856 149.6700670788996,127.18619395321002 149.53791441908106,126.99521459062817 148.52474402589723,124.89443792228121 148.34854047908448,123.93953720730497 148.0842351592146,123.65306672104634 147.77587895281613,123.46208632725757 147.467522745952,123.03238023736048 146.67460678634234,122.60267386538908 146.63055589958094,122.17296721111052 146.10194525960833,121.79100550385192 145.9697925997898,121.5522793235723 145.9257417130284,121.69551504211267 145.6614363931585,121.60002456657821 145.39713107328862,121.60002456657821 145.26497841323726,121.5045340770157 145.30902929976583,121.170317253971 145.9257417130284,120.31090178212617 146.2340979196597,119.11726730992086 146.19004703313112,116.72999183344655 145.70548727968708,115.15438524790807 145.1768766399473,114.48594494414283 145.35308018652722,114.19947031931952 145.35308018652722,114.00848716625478 145.1768766399473,113.14906228822656 144.95662220660597,112.71934942580992 144.56016422668472,111.14373318274738 144.47206245339476,110.95274913776666 144.3399097933434,110.0933202461456 143.85535004013218,108.85192096506944 143.45889206021093,107.22854912071489 143.37079028692096,107.03756393311778 143.37079028692096,106.41686168813612 143.19458674034104,105.8439052470494 143.32673940015957,104.45925844303565 143.19458674034104,103.83855375210987 143.23863762710243,103.50432790542254 143.81129915337078,102.07192948571173 143.76724826684222,101.3079823795706 144.0315535867121,100.54403438133886 144.1196553602349,100.01881961518666 144.60421511344612,98.63416048319777 144.73636777326465,97.82246238819789 144.8244695465546,97.48823346826248 144.8244695465546,96.8197751159314 144.47206245339476,95.76933918223949 144.64826599997468,95.38736206101021 144.64826599997468,94.957637532847 144.4280115668662,93.85945134557551 144.0756044734735,93.47747310920386 144.0756044734735,93.42972581385402 144.1196553602349,93.33423121302621 144.95662220660597,93.23873659811215 145.57333461963572,93.0 145.88169082649983,93.04774732654914 146.0138434865512,93.23873659811215 145.79358905297704,94.28917659493163 145.88169082649983,94.57565993780736 145.9257417130284,95.33961490512593 146.05789437284693,96.10356898052851 146.0138434865512,96.8197751159314 146.2781488064211,97.15400437742937 145.9697925997898,97.87020936293993 145.4411819598172,98.20443808787968 145.4411819598172,98.29993197781732 145.57333461963572,98.39542585395975 145.57333461963572,98.82514812401496 145.39713107328862,99.15937636099989 145.26497841323726,99.97107279731426 144.95662220660597,100.59178115741815 144.91257131984457,101.06924872600939 144.56016422668472,101.8331961107906 144.3399097933434,102.5493959740852 144.20775713329203,103.79080721305218 144.16370624676347,104.98446964472532 144.295858906582,106.22587626345921 144.47206245339476,106.94207131827716 144.64826599997468,108.18347422283841 145.0887748664245,109.47262090008007 145.6614363931585,110.18881240091287 145.57333461963572,110.37979666871252 145.6614363931585,110.85725709446706 146.05789437284693,111.85992285446264 145.83763993973844,112.09865257091587 146.19004703313112,112.62385764031205 146.05789437284693,113.00582469877554 146.49840323952958,114.05623295978876 146.36625057971105,114.58143645798555 146.63055589958094,115.34536806645337 146.7186576728709,116.25253569299821 146.7627085596323,116.20479005988454 147.07106476603076,116.58675502805272 147.42347185942344,117.68490306916647 147.33537008590065,118.3055946251261 147.467522745952,118.73530381900491 147.467522745952,119.06952188583091 147.37942097289488,119.26050356158521 147.42347185942344,119.59472136007389 147.15916653955355,120.59737373149255 147.29131919937208,121.02708142035408 147.11511565279216,121.45678882708307 147.15916653955355,121.74326027469942 147.29131919937208,122.07747680519242 147.68777717929333,122.79365450999467 147.9080316128675,123.41434122016653 148.0842351592146,123.60532162786694 148.39259136584587,124.27375261607813 149.31765998573974,125.4673776825075 149.80221973895095,126.61325569800101 150.24272860540077,127.28168361366261 150.5510848122649,127.56815251143416 150.77133924537338,127.95011084672296 150.99159367848188,128.66628212452633 151.12374633853324,128.90500570950098 151.2118481118232,129.33470794325694 151.43210254516453,129.76440989482217 151.7845096385572,130.71930211025756 152.0488149584271,131.1967476955615 152.18096761824563,131.91291542019462 152.40122205158696,132.24712675693445 152.5774255983997,132.438104587025 153.23818889795803,134.44336843775818 153.45844333153218,135.1595326096285 153.45844333153218,135.6369749555597 153.72274865116924,136.35313782136654 153.8549013112206,137.21253222576343 153.98705397127196,137.59448493213858 153.98705397127196,138.54936572303995 154.29541017790325,139.0745495641022 154.3835119511932,139.45650118379854 154.69186815805733,140.1249159820145 155.30858057085425,140.7933300975128 156.10149653069675,141.27076833351748 156.89441249053925,141.98692503455095 157.42302313051187,142.0824125353829 157.86353199696168,142.46436239976902 158.03973554377444,142.55984983115923 158.30404086387716,142.41661867906805 158.74454973009415,142.03466878674226 159.58151657693088,141.89143751963275 160.94709406327456,142.0824125353829 162.44482420943677,142.0824125353829 163.4139437158592,142.2256437606993 164.20685967593454,142.1301562807057 164.6033176558558,141.89143751963275 166.18914957530797,141.3662559389486 166.8939637618605,140.7933300975128 168.12738858815283,140.07717209047405 168.4357447947841,140.07717209047405 168.7881518881768,140.2681476357393 169.272711641388,140.1726598701789 169.8013222811278,140.2681476357393 170.285882034339,140.1249159820145 171.21095065423287,140.2681476357393 172.2241210474167,139.83845258079236 172.62057902733795,139.59973298374098 173.45754587370902,139.6952208330622 174.118309173733,140.3158915131935 174.77907247352414,140.5546108489507 174.8671742468141,140.8888177726185 175.1755304534454,141.41399973642547 175.21958133997396,141.70046244811965 175.96844641305506,142.9895430993638 176.4530061664991,143.61021065543173 176.80541325965896,144.2786212117062 176.80541325965896,144.66056979435962 176.36490439320914,144.99477462144569 175.88034463999793,145.0902616835083 174.69097070000134,145.8064142051735 174.3385636068415,145.90190114889992 173.85400385363027,146.33159222296672 173.41349498718046,146.57030936458614 173.23729144060053,146.90451321651926 173.10513878054917,147.0 172.79678257391788,146.95225660991855 172.4443754805252,146.7135396077647 172.13601927412674,146.7135396077647 171.43120508734137,146.52256594324717 171.0787979941815,146.57030936458614" stroke="#ffdf00" stroke-linecap="round" stroke-linejoin="round" stroke-width="0.5"><title>2023-12-11 3.6km</title><desc>10363351419</desc></polyline><polyline fill="none" points="13.0,196.3546349761018 13.0,196.5331721077091 13.03294691897463,196.5331721077091 13.230628432123922,196.31892754198634 13.494203782873228,196.17609777944745 13.955460646771826,196.17609777944745 14.284929835353978,195.92614559471258 14.449664429645054,195.961853057408 14.647345942794345,196.28322010528063 15.47101891413331,197.03307572987978 15.50396583287511,197.140197868197 15.998169615631923,197.53297884156927 16.064063453348354,197.6758082083834 16.45942647953052,197.9257594999217 16.690054911654443,197.99717413124745 16.854789505829103,198.17571066398523 16.92068334366195,198.35424713150132 17.184258694411255,198.53278353394126 17.579621720709838,198.71131987136323 17.876143990200944,198.60419807670405 17.843197071459144,198.06858875218313 18.073825503350236,197.60439353022957 18.00793166575022,197.10449049144518 18.337400854332373,196.92595356801758 18.469188529648818,196.6760017660854 18.469188529648818,196.28322010528063 18.66687004279811,195.67619328235742 18.831604637089185,194.71209031084436 19.52348993299529,192.3196784403699 19.688224527286366,191.60552337756963 19.688224527286366,191.24844545553788 19.75411836488638,190.96278293040814 20.083587553584948,190.1057943548658 20.149481391184963,188.96314058749704 20.28126906650141,188.7488927092345 20.41305674193427,188.17756457539508 20.808419768232852,186.9991981938365 20.94020744378213,186.7492413239961 21.07199511898216,185.67799615077092 21.30262355110608,184.9995396619488 21.368517388706096,184.4996237528394 21.665039658430032,183.2141233565926 21.796827333862893,182.7499140506552 22.12629652232863,182.00003654960892 22.356924954336137,180.3217351231724 22.719341061776504,178.92909765648074 23.04881025024224,178.50059302343288 23.279438682249747,177.92925292943255 23.345332519966178,177.50074742126162 23.6418547895737,177.28649452648824 24.136058572330512,176.42948200978572 24.333740085479803,176.42948200978572 24.696156193036586,176.0723930184031 25.091519219102338,175.78672163761803 25.717510677408427,175.07254245647346 25.981086028157733,174.67974346270785 26.376449054456316,174.35836223338265 27.529591214261018,173.14425346261123 27.76021964615211,173.21567170895287 27.990848078159615,173.57276278440258 28.089688834850676,173.53705368857482 28.089688834850676,173.71559914157842 28.254423429025337,173.8584354571649 28.51799877989106,173.9298535992857 28.68273337406572,173.82272638214636 28.814521049614996,173.46563548906124 29.012202562764287,173.25138082820922 29.275777913513593,173.07283520587953 29.868822452728637,172.5014887766156 30.297132397885434,172.18010611712816 31.18669920694083,171.32308466016548 31.713849908555858,171.0731197858695 32.14215985359624,170.50177102256566 32.63636363646947,170.07325901239528 33.19646125694271,169.39478089567274 33.92129347170703,168.7877207309648 34.18486882245634,168.21636930000386 34.97559487493709,167.57359814285883 35.56863941438496,166.9665357194026 35.964002440683544,166.35947254303028 36.42525930458214,165.930956906348 37.281879194662906,165.4310215228179 37.64429530221969,165.07392450759653 38.33618059800938,164.85966617343365 39.15985356946476,164.35972969562863 40.609517998760566,163.93121230823454 42.882855399744585,163.57411419876735 44.4972544235643,163.50269454566296 45.32092739478685,163.39556504640495 46.90237949974835,162.64565789492917 47.46247712022159,162.18142908252776 48.0884685786441,161.78861974342726 48.3520439293934,161.5029400261119 48.64856619911734,161.3601001049101 48.94508846872486,161.28868012866587 49.17571690061595,161.3601001049101 49.93349603423849,162.68136778532062 50.88895668101031,163.71695347392233 51.152532031876035,164.71682723189588 51.383160463767126,165.03821479182807 51.44905430159997,165.57386025588494 51.67968273349106,165.85953759713448 51.94325808424037,166.7165686203516 52.30567419168074,167.39505044944235 53.35997559502721,169.85900286660763 53.524710189318284,170.71602688694838 53.72239170235116,171.2873754002503 53.92007321550045,172.394361246872 53.95302013424225,172.82287122515845 54.282489322824404,174.00127173107467 54.51311775483191,174.39407126925653 55.07321537530515,175.07254245647346 55.468578401603736,175.42963217728538 55.86394142790232,175.67959482697188 56.42403904837556,176.1438108375005 56.75350823672488,176.17951974316384 57.24771201959811,176.3937731224578 57.70896888349671,176.32235533971107 57.8737034779042,176.3580642323941 58.40085417951923,176.57231753345695 58.89505796227604,176.7151530154515 59.05979255656712,176.9294061601977 59.25747406959999,177.07224153805873 59.75167785247322,177.28649452648824 60.34472239180468,177.42932980007026 61.333129957318306,177.92925292943255 61.62965222692583,177.96496170485625 61.82733374007512,177.8935441513895 61.99206833448261,177.92925292943255 63.1122635754291,178.3934668066795 63.67236119590234,178.50059302343288 63.837095790193416,178.6434279428504 64.39719341078307,178.6077192168741 64.99023794999812,178.8933889514301 65.8139109214535,179.1433498322731 67.0,179.3576019143511" stroke="#fff600" stroke-linecap="round" stroke-linejoin="round" stroke-width="0.5"><title>2023-12-11 2.8km</title><desc>10362547167</desc></polyline><polyline fill="none" points="117.82802547770552,181.89518789137946 117.82802547770552,181.33603468560614 116.45222929934971,181.77093165525002 111.17834394914098,175.80661100067664 99.31210191105492,167.41921442712191 85.95541401277296,161.26840445119888 75.86624203831889,158.22404772799928 73.0,160.70923770562513 73.34394904482178,178.72664820519276 74.3184713376686,179.4100597227225 81.31210191105492,179.28580312390113 86.81528662424535,181.14965020201635 99.54140127403662,189.0398909949581 109.45859872619621,196.80580466933316 117.31210191105492,201.77595227194251 123.61783439503051,196.18453418038553 127.0,189.4126564686303 121.89808917208575,185.3122272863984 120.80891719763167,185.37435514840763" stroke="#fffb00" stroke-linecap="round" stroke-linejoin="round" stroke-width="0.5"><title>2023-12-11 2.6km</title><desc>1702269198000</desc></polyline><polyline fill="none" points="177.8377518558409,181.9242083998979 178.0095440086443,181.36564818618353 177.89501590654254,181.3035859176307 176.86426299042068,181.9242083998979 176.46341463411227,181.80008393956814 176.2916224815417,181.55183496477548 176.1770943799056,180.7450252964627 175.8907741252333,180.37265134532936 175.5471898196265,180.18646430881927 174.63096500537358,180.0002772314474 174.11558854742907,179.62790295452578 173.88653234369121,178.63490408600774 173.54294803831726,177.95221669174498 173.14209968177602,177.76602912560338 172.39766702032648,177.02127845323412 172.2258748675231,176.71096548094647 171.53870625654235,176.2765271293465 171.19512195140123,175.84208855603356 170.45068928971887,175.34558705770178 170.04984093317762,174.91114800912328 168.7900318133179,174.2905204120325 168.56097560981289,173.79401800851338 167.70201484649442,173.17338959680637 167.0148462355137,172.98720098496415 166.8430540827103,172.49069782102015 166.55673382850364,172.18038319633342 165.8123011663556,171.87006845866563 165.18239660654217,171.37356464273762 164.95334040303715,171.31150164548308 164.83881230116822,171.31150164548308 164.89607635210268,171.37356464273762 165.06786850490607,171.37356464273762 164.09437963948585,170.93912356632063 163.1781548250001,170.07024074805668 162.4909862142522,169.82198835117742 161.80381760350429,169.20135704230051 160.944856839953,168.70485166937578 160.71580063621514,168.3324724495178 160.02863202546723,167.83596656954614 158.9406150584109,167.27739710832248 158.19618239672855,166.96708058257354 157.90986214228906,166.90501726372167 157.96712619322352,166.90501726372167 156.53552492056042,166.03613032615976 156.02014846238308,165.9120035484084 155.04665959696285,165.2293059466756 154.35949098621495,164.91898867400596 154.13043478270993,164.67073477432132 153.72958642616868,164.608671288006 153.84411452827044,164.67073477432132 153.27147401915863,164.23629027570132 152.64156945911236,164.17422675772104 151.61081654275768,163.55359132948797 149.83563096495345,162.93295544869034 149.20572640514,162.80882821819978 147.77412513270974,161.93993709760252 146.05620360537432,161.2572363091167 145.1399787911214,161.0710450898623 144.56733828224242,160.76072630059207 143.13573700957932,160.38834360410692 142.9066808060743,160.2642160024261 142.96394485677592,160.2021521947463 143.07847295864485,160.51247118774336 142.73488865350373,160.45040739816613 141.70413573714904,160.14008838264272 140.73064687172882,159.64357772225048 140.15800636261702,159.70564157067565 139.29904559906572,159.20913065690547 136.60763520677574,158.4022998037981 135.92046659626067,158.27817191235954 135.17603393434547,158.4022998037981 134.08801696728915,159.33325841237092 133.22905620373785,160.2642160024261 133.11452810186893,160.69866252929205 133.17179215257056,161.0710450898623 133.11452810186893,161.7537460278836 133.2863202544395,162.80882821819978 133.0,163.1191462603747 133.11452810186893,163.2432734457543 133.05726405093446,163.3053370314883 133.22905620373785,163.8018455550773 133.22905620373785,164.85692520579323 133.34358430537395,164.91898867400596 133.34358430537395,165.10517905122833 133.11452810186893,165.53962310624775 133.11452810186893,165.97406693943776 133.22905620373785,166.84295394050423 133.40084835630842,168.20834600680973 133.2863202544395,169.20135704230051 133.45811240724288,170.0081776555744 133.34358430537395,170.69087142311037 133.40084835630842,172.05625731498003 133.5153764579445,172.24244613031624 133.34358430537395,176.64890287286835 133.45811240724288,178.75902900792425 133.45811240724288,178.57284161821008 133.62990455981344,178.88315391167998 134.08801696728915,179.1934660921106 134.14528101799078,179.3175909324782 134.43160127243027,179.44171575497603 135.34782608691603,179.3175909324782 136.03499469789676,179.37965334602632 136.6648992577102,179.13140366511652 137.69565217383206,179.13140366511652 138.61187698831782,179.3175909324782 139.18451749742962,179.1934660921106 140.55885471892543,179.37965334602632 141.41781548270956,179.3175909324782 141.8759278897196,179.56584055919666 142.27677624602802,179.56584055919666 143.93743372219615,179.8761524905567 145.59809119836427,180.49677601386793 146.91516436892562,181.1173990846146 149.20572640514,182.48276824696222 149.3775185579434,182.73101695021614 150.00742311775684,182.85514127463102 150.40827147406526,183.41370051080594 150.98091198294424,183.59988684137352 151.26723223761655,183.91019730170956 151.66808059392497,184.03432145429542 151.95440084836446,184.28256970481016 153.09968186635524,185.02731402218342 153.1569459172897,185.21349999972153 156.87910922593437,187.69597580772825 157.5662778369151,187.75803761027055 157.85259809112176,188.37865538551705 157.85259809112176,188.56484062963864 158.3679745492991,188.6269023687928 158.99787910934538,188.9372109961696 159.62778366915882,188.99927270814078 159.79957582172938,189.3095811996609 160.6012725343462,190.11638274835423 162.26193001074716,190.98524509905837 162.83457051962614,191.5437989991624 163.23541887593456,191.79204505920643 163.865323435748,192.5988442544476 164.95334040303715,193.2815198993194 165.984093319159,194.2124403505586 168.21739130443893,195.70191095449263 168.73276776261628,196.01221700233873 169.5344644752331,196.81901219690917 169.93531283154152,197.12931783730164 170.85153764579445,197.5016844564234 171.13785790023394,197.56374554376816 171.42417815490626,197.8119898479781 172.16861081658863,198.12229512631893 172.56945917289704,198.49466131115332 173.14209968177602,198.55672232608777 174.11558854742907,199.36351510853274 176.74973488855176,201.10122004250297 177.09331919415854,201.53564572165487 177.37963944859803,201.72182808764046 177.8377518558409,201.72182808764046 178.23860021214932,201.47358492395142 179.44114528107457,199.92206350987544 179.78472958644852,199.611758887826 180.2428419936914,199.54969794978388 180.93001060467213,198.991149303969 182.87698833527975,197.0672567182919 183.67868504789658,196.13633938966086 183.90774125116877,195.26748229761142 183.90774125116877,194.83305341895903 184.7667020149529,194.02625634172 185.0530222693924,193.46770407096483 185.56839872756973,192.90915143373422 185.68292682943866,192.5367828051676 185.85471898200922,192.28853696223814 185.85471898200922,192.04029104701476 186.65641569462605,190.42669083259534 187.0,189.3716428843327 186.82820784742944,188.9372109961696 186.08377518551424,188.6269023687928 185.4538706257008,188.06834655435523 185.22481442196295,187.69597580772825 183.33510074252263,186.57886259030784 181.96076352056116,185.33762396208476 181.5026511135511,185.21349999972153 181.1018027572427,184.90319001459284 180.93001060467213,185.08937601925572 180.81548250257038,185.3996859365725" stroke="#fff900" stroke-linecap="round" stroke-linejoin="round" stroke-width="0.5"><title>2023-12-11 2.7km</title><desc>10361669003</desc></polyline><polyline fill="none" points="44.06516853906214,227.0458966663573 45.521348314359784,223.1004129940411 33.14382022479549,214.9463860495016 28.28988764062524,222.8373804424191 21.73707865178585,222.96889672300313 13.0,240.59199158032425 47.58426966285333,265.053613950382 50.73932584282011,264.0015079884324 67.0,241.64411119872238 66.7573033706285,239.01381100167055 55.59325842699036,231.51743439305574" stroke="#ffff00" stroke-linecap="round" stroke-linejoin="round" stroke-width="0.5"><title>2023-12-06 1.2km</title><desc>1701838156000</desc></polyline><polyline fill="none" points="103.94382022460923,226.91438163723797 104.18651685398072,226.38831764634233 105.52134831435978,225.07315699779429 105.88539325864986,223.8895115937339 105.3999999994412,222.96889796492178 101.51685393229127,220.4700871744426 101.03146067401394,220.4700871744426 100.42471910081804,220.0755377856549 97.75505617912859,217.97127292095684 95.93483146093786,216.78762285597622 94.1146067418158,215.20942156028468 93.14382022479549,214.9463878767565 92.77977528097108,215.34093838755507 92.17303370777518,217.05065627081785 89.86741572991014,220.86463647685014 88.28988764062524,222.70586541329976 86.46966292150319,223.23193047824316 85.62022471893579,223.23193047824316 83.31460674153641,221.78525118005928 82.70786516880617,221.91676752781495 81.61573033686727,222.8373816938838 81.37303370749578,223.6264791765716 81.37303370749578,225.8622535020113 80.28089887648821,226.25680162478238 79.67415730375797,227.04589761118405 78.82471910119057,228.624088547891 78.21797752799466,230.20227810367942 76.8831460676156,232.43804427667055 75.18426966294646,234.14774595049676 73.48539325827733,236.9095683073392 73.0,238.88229597255122 73.0,240.59199153701775 73.48539325827733,241.38108125107829 74.09213483147323,241.64411107904743 75.91235955059528,243.09077444614377 78.58202247181907,244.2744072478963 79.3101123594679,245.19501000049058 80.76629213476554,246.2471268569352 81.00898876413703,247.16772860265337 81.85842696623877,248.0883298786357 83.07191011263058,248.21984430821612 86.59101123642176,250.1925596013898 87.80449438188225,251.24467354267836 90.35280898911878,252.55981510551646 91.56629213457927,254.00646971701644 93.75056179752573,255.4531231680885 94.47865168564022,256.89977545908187 94.84269662946463,257.1628030234715 96.5415730336681,257.68885803746525 99.81797752855346,259.2670221591834 101.39550561783835,260.7136713905493 106.12808988755569,263.21242642134894 106.4921348313801,264.13301950716414 107.3415730339475,264.7905857095029 108.06966292113066,265.0536121232435 108.9191011232324,265.0536121232435 110.49662921344861,264.00150623801164 111.46741573046893,262.6863730183104 111.83146067382768,261.5027523005847 112.55955056194216,260.4506443440914 114.74382022442296,258.0833991972031 117.2921348316595,254.66403961158358 118.38426966313273,254.13798371492885 119.2337078647688,253.08587146212813 121.29662921326235,249.66650240088347 122.63146067410707,248.35135872801766 123.1168539323844,246.77318505488802 123.96629213448614,245.9840977002168 125.66516853962094,243.2222892404534 126.3932584268041,242.82774482946843 127.0,241.51259616960306 126.7573033706285,240.59199153701775 126.87865168508142,239.27684124663938 126.7573033706285,239.01381107361522 124.93707865197212,238.48775061243214 123.35955056129023,237.6986596324714 121.66067415708676,236.38350723218173 120.56853932514787,236.1204766369192 119.2337078647688,235.33138462121133 118.62696629203856,234.6738076779293 116.68539325799793,233.22713755851146 115.95730337081477,232.8325909607811 115.95730337081477,232.43804427667055 115.35056179761887,231.25440370687284 115.22921348316595,231.78046627808362 115.59325842699036,231.51743501168676" stroke="#ffff00" stroke-linecap="round" stroke-linejoin="round" stroke-width="0.5"><title>2023-12-06 1.3km</title><desc>10335782949</desc></polyline></svg>