<?xml version="1.0" encoding="utf-8" ?>
<svg baseProfile="full" height="300mm" version="1.1" viewBox="0,0,200,300" width="200mm" xmlns="http://www.w3.org/2000/svg" xmlns:ev="http://www.w3.org/2001/xml-events" xmlns:xlink="http://www.w3.org/1999/xlink"><defs /><rect fill="#222222" height="300" width="200" x="0" y="0" /><text fill="#FFFFFF" style="font-size:12px; font-family:Arial; font-weight:bold;" x="10" y="20">人生苦短，及时行乐</text><text fill="#FFFFFF" style="font-size:4px; font-family:Arial" x="10" y="280">ATHLETE</text><text fill="#FFFFFF" style="font-size:9px; font-family:Arial" x="10" y="290">PPZ</text><text fill="#FFFFFF" style="font-size:4px; font-family:Arial" x="120" y="280">STATISTICS</text><text fill="#FFFFFF" style="font-size:3px; font-family:Arial" x="120" y="285">Number: 15</text><text fill="#FFFFFF" style="font-size:3px; font-family:Arial" x="120" y="290">Weekly: 7.5</text><text fill="#FFFFFF" style="font-size:3px; font-family:Arial" x="141" y="285">Total: 45.1 km</text><text fill="#FFFFFF" style="font-size:3px; font-family:Arial" x="141" y="290">Avg: 3.0 km</text><text fill="#FFFFFF" style="font-size:3px; font-family:Arial" x="167" y="285">Min: 1.2 km</text><text fill="#FFFFFF" style="font-size:3px; font-family:Arial" x="167" y="290">Max: 5.2 km</text><polyline fill="none" points="48.99244917719625,52.69718132118578 51.606195547035895,53.150435831572395 55.4327202324057,53.92096698170644 55.53727008716669,53.98895493266173 55.60000000009313,54.07960551074939 47.04782187810633,53.558364325610455 47.424201355315745,53.89830432814779 47.25692158762831,53.53570164553821 46.25324298162013,53.17309853981715 46.23233301076107,53.263749355915934 46.169603097834624,53.12777312181424 46.10687318490818,52.651855833799345 46.00232333014719,52.74250680199475 45.939593417337164,52.83315774373477 45.91868344636168,52.81049501080997 45.75140367867425,52.47055381798418 45.62594385293778,52.33457723679021 45.66776379488874,52.1759378167917 45.73049370769877,52.1759378167917 45.8977734753862,52.33457723679021 45.98141335917171,52.357240004464984 45.939593417337164,52.357240004464984 45.939593417337164,52.425228297535796 45.855953533551656,52.40256553486688 45.814133591600694,52.26658892384148 45.79322362062521,52.107949469093 45.83504356245976,52.1759378167917 45.91868344636168,52.15327503584558 46.02323330112267,52.311914467427414 46.00232333014719,52.28925169646391 45.939593417337164,52.33457723679021 45.83504356245976,52.28925169646391 45.855953533551656,52.33457723679021 47.50784123921767,51.47339084011037 47.38238141336478,51.97197272916674 47.570571152027696,52.85582047511707 48.17696030985098,52.039961106551345 48.114230397040956,52.357240004464984 48.28151016461197,52.83315774373477 48.114230397040956,52.94647138376604 48.13514036790002,52.923808659019414 48.17696030985098,52.94647138376604 48.42787996144034,53.24108665436506 48.574249758035876,53.33173745061504 48.74152952572331,53.42238822046784 48.80425943864975,53.37706283884472 48.90880929341074,53.42238822046784 49.096999032073654,53.35440014555934 49.201548886834644,53.37706283884472 49.368828654522076,53.58102700402378 49.577928364044055,53.739665706583764 49.64065827685408,53.852979015995516 49.91248789941892,53.943629633722594 50.267957405769266,54.011617579701124 50.267957405769266,54.10226815115311 50.372507260530256,54.21558132825885 50.39341723138932,54.35155708628008 50.477057115291245,54.44220755851711 50.51887705724221,54.64617102450575 50.602516941027716,54.872796940704575 50.14249757991638,54.487532784813084 49.682478218805045,54.19291869614972 49.598838335019536,54.12493078986881 49.577928364044055,53.98895493266173 49.51519845123403,53.87564167290111 49.22245885769371,53.58102700402378 47.92604065837804,52.60653033977724 47.94695062923711,52.60653033977724 47.40329138445668,52.58386759032146 46.441432720283046,52.40256553486688 46.085963214049116,52.26658892384148 44.53862536314409,51.79067031660816 43.5349467570195,51.60936779831536 42.71945788967423,51.337413822475355 42.48944820917677,51.31475098035298 42.44762826722581,51.269425291277 42.5521781219868,51.24676244423608 42.677637947839685,51.269425291277 42.133978702826425,51.08812246876187 40.62846079398878,50.770842274825554 39.95934172323905,50.70285361967399 39.311132623581216,50.43089885025984 38.68383349478245,50.04562918609008 38.41200387221761,49.81899974870612 38.14017424976919,49.479055282630725 38.14017424976919,49.0711214322946 38.24472410464659,48.88981732688262 38.05653436598368,47.3034018909384 37.88925459829625,46.60084389534313 37.65924491768237,46.05692693655146 37.42923523718491,45.309039563144324 37.0528557599755,44.425170345872175 36.7601161665516,43.94923972568358 36.32100677653216,43.40531812404515 36.15372700872831,43.13335696593276 36.15372700872831,42.97471284720814 36.028267183108255,42.68008784018457 36.00735721201636,42.38546255376423 36.09099709591828,42.0908369878307 36.383736689342186,42.02284643301391 36.613746369839646,41.93219233662239 36.237366892630234,42.0908369878307 36.279186834581196,42.0908369878307 36.04917715396732,41.93219233662239 35.92371732823085,41.66022988889017 35.254598257597536,40.70835944652208 35.150048402836546,40.66303220987902 34.96185866417363,40.66303220987902 33.91636011621449,41.456257896788884 33.0172313649673,41.90952880840632 32.47357212018687,42.06817347119795 32.32720232347492,42.06817347119795 32.306292352383025,42.04550995293539 32.34811229433399,42.02284643301391 32.536302032880485,41.977519388106884 32.15992255567107,42.18149103791802 31.783543078461662,42.27214506152086 30.340755082317628,42.38546255376423 29.525266214972362,42.52144348990987 28.73068731848616,42.79340518367826 27.97792836406734,43.08803008322138 27.47608906100504,43.31466443114914 26.618780251708813,43.88124957753462 25.155082284705713,45.26371299781022 24.005033881869167,46.17024304816732 23.921393998200074,46.21556948122452 23.921393998200074,46.19290626552538 23.94230396905914,46.21556948122452 23.879574056249112,46.328885534981964 23.273184898425825,47.008780989504885 22.290416263393126,47.91530594739015 22.290416263393126,47.960632125876145 22.33223620534409,47.937969037448056 22.353146176203154,47.98329521261621 22.206776379491203,48.20992598918383 19.112100677681156,51.405402338685235 18.40116166509688,52.49321657582186 18.150242013623938,53.17309853981715 17.64840271056164,55.144747821905185 17.334753146162257,56.028586542088306 17.29293320432771,56.16456150665181 17.31384317530319,56.096574031806085 17.29293320432771,56.595148501801305 17.16747337859124,57.4563207020401 16.561084220767953,59.60924076024094 15.82923523732461,62.804599873226834 15.620135527686216,63.37114947804366 15.578315585735254,63.4164734017977 15.578315585735254,62.73661385127343 15.682865440496244,62.21538718853844 15.766505324281752,62.079414871899644 15.850145208183676,61.98876662767725 15.912875120993704,61.966104562510736 16.101064859656617,61.98876662767725 16.121974830632098,61.966104562510736 16.017424975754693,61.8754562853137 16.03833494684659,61.80747006001184 16.08015488879755,61.89811835711589 16.03833494684659,61.94344249571441 15.850145208183676,62.011428691243054 15.724685382447205,62.011428691243054 15.682865440496244,61.89811835711589 15.620135527686216,61.8754562853137 16.226524685509503,62.30603536666604 16.435624395031482,62.50999367056647 16.47744433686603,62.555317719932646 16.47744433686603,62.75927586029866 16.101064859656617,63.46179731894517 15.9337850920856,63.82438841817202 15.578315585735254,64.82151175945182 15.327395934262313,65.41071950260084 14.721006776439026,66.33985252017737 13.926427880069241,67.33696779015008 13.90551790909376,67.314306115004 13.968247822020203,67.2236593978887 13.90551790909376,67.11035096427076 13.926427880069241,66.95171908781049 14.198257502517663,66.74776369909523 14.616456921678036,66.33985252017737 14.741916747414507,66.27186727162916 14.80464666034095,66.18122025040793 14.825556631200016,66.09057320278953 14.762826718389988,65.954602581769 14.637366892537102,65.7506465385959 14.616456921678036,65.52402855595574 14.532817037776113,65.18410127205425 14.302807357278652,64.66287871464738 14.156437560566701,64.18697909422917 14.01006776385475,63.91503612685483 13.926427880069241,63.620430976880016 13.759148112265393,63.39381144073559 13.529138431767933,63.21251569283777 13.34094869310502,63.23517766708392 13.069119070773013,63.12186777917668 13.069119070773013,63.25783963970025 13.00638915784657,63.39381144073559 12.860019361018203,63.50712122945697 12.755469506373629,63.5297831822827 12.692739593447186,63.64309292144026 12.734559535398148,63.71107874508016 12.525459825759754,64.07366955341422 12.400000000023283,64.18697909422917 12.525459825759754,64.23230289900675" stroke="#ffb800" stroke-linecap="round" stroke-linejoin="round" stroke-width="0.5"><title>2023-12-15 5.2km</title><desc>10381979162</desc></polyline><polyline fill="none" points="107.6217709062621,74.60651516419603 107.65572088817134,74.68010670054355 110.20196952053811,75.60000000000582 108.70817032281775,75.01126848164131 108.30077054165304,74.09137410865515 108.60632037755568,74.23855732099037 107.79152081522625,74.60651516419603 107.45202099753078,74.31214891106356 107.31622107035946,74.09137410865515 107.24832110689022,73.79700755490921 107.28227108868305,73.72341588968993 107.68967086973134,73.6866200529912 107.75757083343342,73.64982421370223 107.75757083343342,73.57623252691701 108.06312066933606,73.64982421370223 108.06312066933606,73.6866200529912 107.96127072395757,73.64982421370223 107.82547079690266,73.39225326309679 107.79152081522625,73.09788630140247 107.79152081522625,73.17147805800778 107.68967086973134,72.9139068632503 107.68967086973134,72.95070275623584 107.75757083343342,72.877110967529 107.82547079690266,72.95070275623584 108.02917068754323,73.53943667953718 107.9952207057504,73.6866200529912 108.26682055974379,73.90739503264194 108.30077054165304,73.79700755490921 108.02917068754323,73.24506980378646 107.9952207057504,73.13468218108756 108.02917068754323,73.09788630140247 108.40262048691511,74.16496572017786 108.60632037755568,73.90739503264194 108.74212030461058,73.6866200529912 106.67117141687777,73.3554574023583 106.39957156288438,73.31866153879673 106.29772161750589,73.20827393219224 105.82242187287193,73.24506980378646 105.48292205506004,73.09788630140247 105.1434222375974,72.84031506910105 104.32862267503515,72.54594778540195 103.98912285757251,72.28837627122994 103.7514729850227,72.28837627122994 103.03852336807176,71.99400866532233 102.52927364164498,71.92041673709173 101.98607393319253,71.5892529268167 101.307074297918,71.40527293836931 100.76387458969839,71.331680924166 99.43982530094218,70.81653652427485 99.06637550145388,70.74294442409882 98.69292570196558,70.77974047552561 98.14972599386238,70.41177984088426 97.77627619449049,70.22779942292254 97.57257630384993,70.00702283275314 97.19912650447804,69.8598383856588 96.89357666845899,69.56546936254017 96.65592679614201,69.49187707994133 96.28247699665371,69.05032315879362 96.0108771425439,68.93993461810169 95.94297717907466,68.53517642890802 95.73927728855051,67.9832329202327 94.92447772598825,66.62176968317362 94.9584277078975,66.47458424817887 94.68682785378769,66.03302768568392 94.48312796314713,64.7819486593944 93.97387823660392,63.56766310741659 93.77017834596336,62.94212092450471 93.77017834596336,62.79493441586965 93.63437841914129,62.463764614163665 93.63437841914129,62.279781297111185 93.43067852850072,61.8382210622658 93.36277856479865,61.58064408003702 93.19302865606733,61.359863704885356 92.92142880195752,60.36635082078283 92.68377892964054,60.10877308691852 92.51402902067639,59.7776015214331 92.20847918477375,59.55682035710197 92.07267925783526,59.372835979564115 91.83502938540187,58.82088244435727 91.6313294947613,57.937755531602306 91.0881297866581,57.27540933218552 91.02022982318886,57.05462707238621 90.88442989601754,56.7970476471819 90.9523298596032,56.686656424659304 90.81652993254829,56.46587390717468 90.61283004190773,56.24509129294893 90.40913015126716,56.13469994961633 90.13753029727377,55.80352577471058 90.00173037010245,55.4723513823119 90.00173037010245,55.21477114892332 90.10358031536452,55.104379580094246 89.89988042472396,54.368435170239536 89.89988042472396,53.926868008915335 89.9338304066332,53.74288157746196 90.10358031536452,53.48530046080123 90.10358031536452,53.301313868461875 90.17148027883377,53.04373252615915 90.17148027883377,52.74935368829756 90.20543026074301,52.71255632152315 90.13753029727377,52.60216420493089 90.06963033368811,52.01340584177524 90.10358031536452,51.93981099812663 90.13753029727377,51.68222896053339 90.03568035189528,51.35105186171131 89.89988042472396,51.16706449066987 89.96778038830962,50.615101974632125 89.9338304066332,50.394316799065564 89.69618053431623,50.210329078981886 89.69618053431623,50.06313885451527 89.49248064367566,49.95274615800008 89.42458068009,49.73196069247206 89.32273073471151,49.621567923459224 89.11903084418736,48.95921080184053 89.11903084418736,48.701627241884125 89.01718089880887,48.701627241884125 89.01718089880887,48.22325742416433 89.11903084418736,47.85528033258743 89.22088078944944,47.708089420804754 89.11903084418736,47.37690971212578 89.1529808259802,47.229718660673825 89.01718089880887,46.78814524851623 89.05113088071812,46.493762758997036 88.77953102660831,45.97859298874391 88.91533095366322,46.0889865552017 88.71163106302265,45.94179512790288 88.54188115417492,45.573816371528665 88.40608122712001,45.50022058797185 88.37213124532718,45.24263526118011 88.06658140942454,44.61707034820574 88.06658140942454,44.43308052021894 87.96473146416247,44.028302662365604 87.93078148236964,44.028302662365604 88.03263142774813,43.88111063351971 87.93078148236964,43.18194790970301 87.89683150069322,41.93081219482701 87.7610315735219,41.52603232834372 87.7610315735219,41.26844497141428 87.7270815919619,41.23164676682791 87.7610315735219,41.047655703587225 87.65918162825983,40.71647162066074 87.25178184709512,40.31169077937375 87.2178318654187,40.05410280212527 87.31968181068078,40.017304508859525 87.25178184709512,39.943707914382685 87.31968181068078,39.79651469315286 87.45548173773568,39.61252310636337 87.52338170132134,39.465329788508825 87.7270815919619,39.31813642758061 87.82893153710756,39.06054794287775 87.79498155543115,38.839757708250545 87.93078148236964,38.43497536040377 87.93078148236964,38.03019268764183 87.9986814459553,37.809402001905255 87.93078148236964,37.77260354490136 88.03263142774813,37.515014270553365 88.44003120879643,36.96303681095014 88.64373109943699,36.74224565792247 88.91533095366322,36.26386449459824 89.05113088071812,36.07987161865458 89.18693080788944,36.04307303545647 89.2887807530351,35.89587867559749 89.18693080788944,35.564691208826844 89.25483077135868,35.38069807778811 89.08508086251095,35.12310758148669 89.1529808259802,34.79191960711614 89.05113088071812,34.46073141525267 89.05113088071812,34.12954300575075 89.18693080788944,33.90875061205588 89.18693080788944,33.72475687667611 89.56038060726132,32.988781263818964 89.59433058882132,32.73118954553502 89.35668071662076,32.547195380408084 89.2887807530351,32.547195380408084 89.08508086251095,32.40000000002328 88.77953102660831,32.43679884917219 88.74558104481548,32.547195380408084 87.96473146416247,32.767988370440435 87.89683150069322,32.9151836434321 88.1344813730102,33.319970422569895 88.16843135480303,33.83515312595409 88.20238133659586,33.90875061205588 88.30423128197435,33.9455493510759 88.37213124532718,34.12954300575075 88.50793117238209,34.276737881300505 88.47398119070567,34.534328810026636 88.64373109943699,34.86551695349044 88.50793117238209,35.63828844251111 88.50793117238209,35.78548287754529 88.74558104481548,36.116670199262444 88.71163106302265,36.411058747034986 88.57583113596775,36.52145440818276 88.60978111776058,36.852641246514395 88.54188115417492,37.11023085922352 88.40608122712001,37.515014270553365 88.27028130006511,37.66220815764973 88.10053139133379,38.10378956142813 88.03263142774813,38.582168979075504 87.82893153710756,38.839757708250545 87.86288151878398,39.35493477189448 87.7610315735219,39.64932142908219 87.42153175594285,39.90690961308428 87.28573182888795,40.164497665537056 87.18388188350946,40.20129594806349 87.11598192004021,40.422085586498724 86.98018199286889,40.458883850078564 87.14993190183304,41.45243595415377 87.08203193824738,41.82041771808872 87.14993190183304,42.07800479303114 87.38758177415002,42.409187981742434 87.55733168299776,43.29234208833077 87.65918162825983,43.51313037335058 87.62523164658342,43.62352447959711 87.93078148236964,44.10189866065048 87.93078148236964,44.543474425096065 88.06658140942454,44.764262162236264 88.06658140942454,45.68421002666582 88.10053139133379,45.94179512790288 88.47398119070567,46.60415621276479 88.47398119070567,46.97213421727065 88.57583113596775,47.08252756629372 88.64373109943699,47.37690971212578 88.60978111776058,47.85528033258743 88.81348100816831,48.11286432493944 88.98323091713246,48.4440435503202 88.98323091713246,49.17999660570058 89.1529808259802,49.511175130232004 89.18693080788944,49.915948587004095 89.2887807530351,50.17353152690339 89.42458068009,50.32072171906475 89.49248064367566,50.541506926878355 89.45853066188283,50.79908954707207 89.79803047946189,51.27745692137978 89.79803047946189,51.46144425214152 89.69618053431623,51.86621614359319 89.83198046137113,52.270987710304325 89.69618053431623,52.822948413930135 89.69618053431623,53.33811119227903 89.56038060726132,53.632489686482586 88.98323091713246,54.25804341613548 88.94928093533963,54.368435170239536 89.25483077135868,54.69961028758553 89.35668071662076,54.69961028758553 89.39063069829717,54.84679915878223 89.79803047946189,55.14117677239119 89.76408049790189,55.2515683331294 89.86593044316396,55.398757043352816 90.17148027883377,55.58274287058157 90.5788800601149,55.913917190540815 90.91837987781037,56.57626517795143 91.32577965897508,56.870641782152234 91.39367962256074,57.05462707238621 91.73317944002338,57.27540933218552 91.80107940384187,57.422597451659385 92.1405792213045,57.68017655736185 92.242429166683,57.86416155245388 92.61587896605488,58.78408552048495 92.54797900258563,59.188851534971036 92.68377892964054,59.59361722457106 92.68377892964054,59.7776015214331 92.81957885657903,59.88799206740805 92.85352883848827,60.182366738590645 93.02327874721959,60.40314762914204 93.36277856479865,61.32306696634623 93.43067852850072,61.654237516981084 93.36277856479865,61.727830943098525 93.43067852850072,61.87501776320278 93.43067852850072,62.206187951465836 93.90597827313468,62.94212092450471 94.04177820018958,63.05251077792491 94.21152810915373,63.3836801929865 94.24547809071373,63.56766310741659 94.21152810915373,63.86203563091112 94.38127801788505,64.23000104364473 94.4491779813543,64.56116968553397 94.58497790852562,64.7083556788275 94.65287787199486,65.11311693891184 95.02632767136674,65.59147073663189 95.16212759853806,65.92263848465518 95.06027765315957,66.10662047291407 95.06027765315957,66.54817697103135 95.19607758021448,67.13691836717771 95.12817761662882,67.28410360886483 95.39977747073863,67.68886280193692 95.39977747073863,67.90964040672407 95.26397754380014,68.0568254229729 95.36582748906221,68.09362167032668 95.63742734317202,68.38799155232846 95.77322727022693,68.7191574643366 96.0108771425439,69.01352698123083 96.72382675961126,69.45508093468379 96.75777674128767,69.52867322260863 96.92752665025182,69.56546936254017 97.19912650447804,69.82304226717679 97.4028263950022,69.93343061453197 97.64047626731917,69.93343061453197 97.64047626731917,70.04381893781829 97.70837623102125,70.00702283275314 98.3194759025937,70.48537198931444 98.72687568375841,70.44857591649634 99.1003254832467,70.558964126918 99.64352519146632,70.41177984088426 100.15277491789311,70.33818768174388 100.69597462611273,70.48537198931444 102.12187386036385,70.522168059455 102.6990235503763,70.669352313329 103.10642333165742,70.59576019179076 103.47987313102931,70.48537198931444 103.7514729850227,70.30139159812825 103.98912285757251,70.30139159812825 104.2607227115659,70.08061504023499 104.60022252926137,69.93343061453197 104.93972234695684,69.89663450146327 105.27922216441948,69.82304226717679 106.09402172698174,69.8598383856588 106.33167159929872,69.67585776632768 106.26377163571306,69.56546936254017 106.60327145329211,69.49187707994133 106.80697134393267,69.38148863590322 106.77302136225626,69.30789632644155 106.87487130751833,69.27110016762163 106.94277127098758,69.16071167535847 107.18042114353739,69.05032315879362 107.31622107035946,69.08711933373706 107.38412103394512,69.19750784209464 107.45202099753078,69.12391550582834 108.87792023166548,69.01352698123083 109.21742004924454,68.86634224426234 109.45506992179435,68.82954605334089 109.52296988526359,68.7191574643366 109.89641968463548,68.68236126258853 110.13406955695245,68.5719726413372 110.23591950221453,68.5719726413372 110.64331928349566,68.86634224426234 111.15256900992244,68.90313843250624 111.69576871814206,69.38148863590322 112.17106846289244,70.41177984088426 112.34081837174017,70.48537198931444 112.51056828070432,70.74294442409882 112.61241822584998,71.14770084171323 112.78216813469771,71.36847693257732 112.71426817111205,71.4788649417751 113.01981800713111,71.92041673709173 112.85006809816696,72.28837627122994 112.95191804354545,72.54594778540195 112.81611811649054,72.7667232642707 112.00131855416112,73.20827393219224 111.69576871814206,73.57623252691701 111.45811884570867,73.6130283716775 111.08466904633678,73.28186567267403" stroke="#ffc000" stroke-linecap="round" stroke-linejoin="round" stroke-width="0.5"><title>2023-12-14 4.9km</title><desc>10379184693</desc></polyline><polyline fill="none" points="145.19346938759554,64.92507451906567 144.40000000002328,66.10354451579042 144.51755102025345,66.16724550613435 144.6057142856298,66.03984351624968 144.69387755088974,65.88059097656514 144.7232653060928,65.65763732345658 144.81142857123632,65.62578679234139 144.92897959169932,65.49838464448112 145.07591836724896,65.08432740721037 145.04653061216231,65.46653410166618 144.9877551018726,66.80425489813206 145.1640816326253,66.39019889905467 145.1640816326253,64.92507451906567 145.19346938759554,64.25621175492415 145.45795918360818,63.30069174314849 145.57551020395476,63.0458860535291 145.3991836734349,62.79108021527645 145.42857142840512,62.631826490862295 145.57551020395476,62.50442346956697 145.86938775493763,61.9311094135046 145.7812244896777,61.89925861050142 145.8399999999674,61.61260127936839 145.81061224488076,61.58075045316946 145.8987755101407,61.58075045316946 145.95755102031399,61.45334712511976 145.95755102031399,61.2940929128963 146.07510204066057,61.03928605240071 146.01632653048728,60.81632992750383 146.04571428557392,60.62522458701278 146.31020408158656,59.988206181442365 146.80979591829237,57.63123000017367 146.98612244892865,56.99420722670038 147.16244897956494,56.83495138809667 147.42693877557758,56.35718352391268 147.5738775508944,55.974968856113264 147.89714285708033,55.65645637741545 148.48489795916248,54.637214884132845 148.86693877528887,54.15944461518666 149.9836734692799,53.012793836707715 150.3657142855227,52.56687327628606 150.65959183662198,52.3439128252794 150.98285714280792,52.05724922101945 151.24734693870414,52.025397697783774 151.51183673471678,52.18465529064997 151.71755102020688,52.025397697783774 152.07020408147946,52.216506802185904 152.3346938774921,52.08910074189771 152.48163265292533,51.80243697031983 152.7167346937349,51.70688233792316 152.8342857141979,51.420218315382954 153.06938775500748,51.26096044378937 153.24571428564377,51.037999325897545 153.5689795917133,50.78318648034474 153.62775510188658,50.56022511853371 153.9510204080725,50.24170868983492 154.0097959182458,50.1461537158757 153.9510204080725,50.17800537619041 153.98040816315915,50.1461537158757 154.27428571425844,49.85948866864783 154.27428571425844,49.7639336110733 154.3918367344886,49.668378532573115 155.1265306121204,49.15875109413173 155.4204081632197,49.15875109413173 155.56734693865292,49.031344141520094 155.65551020391285,49.031344141520094 155.77306122449227,48.87208539858693 155.89061224472243,48.80838188508642 155.94938775512855,48.71282659744611 156.50775510189123,48.266901645372855 156.71346938761417,48.012087182549294 156.8604081631638,47.598013363283826 157.56571428559255,46.99282784402021 157.80081632651854,46.54690113518154 158.47673469374422,46.037270053057 159.3877551020123,45.145414227910805 160.53387755097356,44.189852393523324 161.20979591831565,43.96688766457373 161.41551020403858,43.87133131726296 161.65061224484816,43.680218559951754 162.09142857126426,43.45725357072661 163.06122448970564,43.1387319600035 165.05959183664527,42.94761888196808 165.91183673462365,42.82021011679899 166.0587755101733,42.91576669414644 166.4408163264161,42.94761888196808 166.91102040815167,42.85206231154734 168.20408163254615,42.310574684350286 168.76244897954166,41.96019997948315 169.23265306116082,41.80093865701929 169.79102040815633,41.355006645055255 170.2024489796022,41.19574510183884 170.4081632652087,41.25944972608704 170.61387755093165,41.832790926186135 170.81959183665458,42.11946124385577 171.1428571428405,43.04317543140496 171.3779591837665,43.520957864966476 171.7599999998929,43.90318343532272 172.02448979590554,44.09429609501967 172.40653061226476,44.285408671043115 172.58285714278463,44.3172607588931 172.8179591835942,44.54022530897055 172.8767346937675,44.7631897450774 172.84734693868086,44.92244998694514 172.99428571411408,45.272822314465884 172.99428571411408,45.33652634383179 173.17061224475037,45.97356612602016 173.69959183665924,46.99282784402021 173.93469387746882,47.215791027614614 174.1110204081051,47.66171705335728 174.2285714284517,47.85282806772739 174.2873469387414,48.20319804362953 174.2873469387414,48.61727128888015 174.46367346937768,49.190602826391114 174.58122448960785,49.41356488777092 174.52244897955097,49.92319202874205 174.55183673463762,50.20985703414772 174.6693877549842,50.305411994108 174.7281632652739,50.78318648034474 174.9044897959102,51.32466359940008 174.99265306105372,51.45206988279824 175.02204081625678,51.67503078922164 175.25714285706636,52.31206132302759 175.52163265296258,52.6305762414122 175.78612244897522,53.07649673675769 176.28571428568102,53.490565360407345 176.49142857140396,53.617971011728514 176.78530612238683,53.93648497748654 177.1379591836594,54.22314734803513 177.1967346938327,54.35055278553045 177.54938775510527,54.509809530252824 178.75428571435623,54.76462020096369 178.9893877551658,55.051282027794514 179.40081632649526,55.27424109625281 179.81224489794113,55.43349750404013 179.95918367337435,55.529051320889266 180.95836734690238,55.81571264585364 181.42857142852154,56.038671324029565 181.84000000008382,56.35718352391268 182.98612244892865,56.707546675461344 184.3085714285262,56.707546675461344 184.63183673471212,56.83495138809667 184.925714285695,56.803100213437574 185.01387755107135,56.77124903645017 185.043265306158,56.61199311655946 185.16081632650457,56.51643953664461 185.07265306112822,56.54829073237488 185.10204081633128,56.4527371385484 184.98448979586829,56.35718352391268 185.043265306158,55.879415136849275 185.21959183667786,55.752010145399254 185.4840816325741,55.81571264585364 185.68979591841344,55.91126637897105 185.68979591841344,55.974968856113264 185.39591836731415,55.943117618735414 185.10204081633128,56.006820091221016 185.043265306158,55.91126637897105 185.13142857141793,55.720158891781466 185.19020408170763,55.720158891781466 185.16081632650457,55.81571264585364 184.808163265232,55.91126637897105 184.71999999985565,55.974968856113264 184.690612244769,56.038671324029565 184.7493877550587,56.038671324029565 184.66122448979877,56.16607623183518 184.51428571424913,56.261629888322204 184.45551020407584,56.229778671840904 184.45551020407584,56.2934811024752 185.21959183667786,56.77124903645017 185.68979591841344,57.18531415631878 186.01306122448295,57.66308111444232 186.51265306118876,57.66308111444232 186.51265306118876,57.75863444330753 186.65959183662198,57.694932226324454 186.86530612246133,57.726783335994696 186.92408163263462,57.53567664339789 186.92408163263462,57.24901644757483 187.07102040806785,57.21716530312551 187.59999999997672,56.707546675461344 186.92408163263462,55.879415136849275 186.98285714280792,55.752010145399254 186.92408163263462,55.306092382466886 186.83591836725827,55.14683592822985 186.65959183662198,54.76462020096369 186.3069387753494,54.38240413906169 186.2187755102059,54.095741873199586 186.36571428575553,54.82832284539472 186.24816326529253,54.923876794666285 185.95428571419325,54.669066216854844" stroke="#fff400" stroke-linecap="round" stroke-linejoin="round" stroke-width="0.5"><title>2023-12-14 2.9km</title><desc>10378325155</desc></polyline><polyline fill="none" points="41.14078947377857,96.571409369295 40.750000000116415,96.14787450619042 40.67894736852031,96.18637768959161 40.60789473680779,96.34039039516938 40.57236842124257,96.30188722300227 40.536842105328105,96.34039039516938 40.64342105272226,96.45589989493601 40.78552631591447,96.84093137813034 40.71447368420195,97.14895636242 40.64342105272226,97.26446568529354 40.64342105272226,97.45698116710992 40.8210526315961,97.5339873402263 40.92763157899026,97.91901803715155 41.31842105265241,98.07303023728309 41.53157894744072,97.8805149801774 41.56710526323877,98.22704239253653 41.602631579036824,98.22704239253653 41.53157894744072,98.53506656826357 41.638157894834876,98.95859951633611 41.81578947370872,99.11261141326395 42.20657894748729,99.61314976791618 42.59736842114944,99.92117313487688 42.846052631619386,100.19069343368756 43.23684210528154,100.42171072296333 43.41447368438821,100.69123076615506 43.592105263262056,100.76823646749835 43.73421052645426,100.96075067183119 43.98289473692421,101.15326480584918 43.98289473692421,101.07625916058896 44.089473684318364,101.11476198464516 44.16052631579805,101.19176762420102 44.33815789478831,101.26877325255191 44.551315789460205,101.46128727425821 44.906578947557136,101.69230400770903 45.04868421051651,101.7308067867416 45.11973684222903,101.61529844120378 45.43947368429508,101.88481787501951 45.759210526244715,101.9618234023219 46.04342105274554,102.15433717131964 46.71842105279211,102.34685087017715 47.03815789485816,102.30834813602269 47.25131578964647,102.38535360156675 47.5,102.61636993059074 47.71315789478831,103.00139692114317 47.89078947377857,103.1169049635646 48.885526315891184,103.5404342362599 49.80921052629128,104.07947100093588 50.16447368438821,104.34898917691316 50.83947368420195,104.65700978101813 51.26578947377857,105.08053781828494 51.40789473685436,105.38855799558223 51.514473684248514,105.46556301185046 51.763157894834876,105.58107051518164 52.047368421102874,105.61957301065559 52.296052631689236,105.7735829645826 52.65131578966975,105.85058792468044 52.86447368422523,106.08160273756948 53.29078947380185,106.31261744941003 53.36184210528154,106.50512963210349 53.575000000186265,106.85165138408775 53.575000000186265,107.00566097858245 53.184210526407696,108.23773611753131 52.9000000001397,108.58425673245802 53.04210526321549,108.31474071828416 53.00657894753385,108.35324301439687 52.9710526317358,108.31474071828416 53.07763157901354,108.1992338130076 53.43289473687764,108.1607315056026 53.85921052633785,107.96821992655168 54.49868421058636,107.96821992655168 55.315789473825134,107.77570827733143 55.60000000009313,107.8912152753328 55.52894736849703,108.1992338130076 55.315789473825134,108.31474071828416 55.315789473825134,108.8922748657642 55.17368421063293,109.3543017290358 55.351315789623186,109.50831059354823 55.28026315791067,109.70082161104074 55.17368421063293,109.73932380619226 55.20921052643098,110.12434560258407 55.031578947557136,110.39386069303146 54.96052631584462,110.62487351815798 54.81842105276883,110.77888201217866 54.71184210537467,111.1639030505903 54.64078947377857,111.2794093072589 54.49868421058636,111.39491553881089 54.39210526319221,111.89544224998099 54.250000000116415,112.04945037333528 54.250000000116415,112.20345845189877 54.10789473692421,112.47297248116229 53.930263158050366,112.54997646415723 53.894736842252314,112.93499621120282 53.717105263262056,113.24301180665498 53.681578947464004,113.20450986700598 53.75263157906011,113.28151374342269 53.75263157906011,113.35851760866353 53.610526315984316,114.01305000926368 53.43289473687764,114.24406125099631 53.50394736859016,114.32106497581117 53.468421052675694,114.20555938439793 53.255263157887384,114.47507239173865 53.04210526321549,114.47507239173865 53.00657894753385,114.8600907351065 52.54473684204277,115.32211237651063 52.43815789488144,115.5531230456545 52.43815789488144,115.78413361369167 52.58026315795723,115.89963885981706 52.54473684204277,116.01514408065123 52.11842105269898,116.4386630076333 52.047368421102874,116.66967318832758 51.62105263164267,117.59371290035779 51.19473684229888,117.9017257783562 50.875000000116415,118.51775099543738 50.76842105272226,118.82576333446195 50.626315789530054,118.90276639119838 50.342105263262056,119.24928000735235 49.98684210528154,119.51879044048837 50.02236842107959,119.94230655755382 49.84473684220575,120.13481377111748 49.84473684220575,120.05781089418451 49.77368421072606,120.09631233403343 49.56052631593775,120.55832939420361 49.31184210523497,120.55832939420361 48.885526315891184,120.36582233489025 48.74342105269898,120.13481377111748 48.38815789471846,120.01930945142522 47.961842105258256,119.44178747362457 47.85526315809693,119.595793396089 47.53552631591447,119.71129780850606 47.144736842252314,119.24928000735235 46.7894736842718,119.0567724708817 46.57631578948349,119.0567724708817 46.29210526321549,118.59475409705192 46.00789473694749,118.47924944045371 45.79473684215918,118.28674162327661 45.58157894737087,117.67071613663575 45.22631578950677,117.17019489972154 45.08421052643098,117.09319159033475 45.08421052643098,116.97768660529982 44.94210526323877,116.90068326785695 44.69342105276883,116.74667655938538 44.48026315798052,116.4386630076333 44.23157894751057,116.2846561644401 44.0539473684039,116.09214754716959 43.7697368421359,116.09214754716959 43.7697368421359,116.01514408065123 43.69868421065621,115.93814060295699 43.41447368438821,115.78413361369167 43.272368421196006,115.51462127448758 43.059210526407696,115.47611950046849 42.95263157901354,115.36061416161829 42.88157894753385,115.09110160628916 42.70394736842718,114.89859255391639 42.70394736842718,114.9755961833871 42.59736842114944,114.93709437004873 42.52631578955334,114.66758159853634 42.34868421056308,114.62907976275892 42.34868421056308,114.59057792427484 42.27763157908339,114.62907976275892 42.13552631577477,114.55207608290948 41.957894736900926,114.16705751497648 41.53157894744072,113.9360462394834 41.389473684248514,113.9360462394834 41.35394736856688,113.74353676609462 41.282894736970775,113.78203866633703 40.963157894904725,113.55102722239099 40.92763157899026,113.43552146255388 40.71447368420195,113.39701953699114 40.64342105272226,113.39701953699114 40.64342105272226,113.47402338526445 40.50131578941364,113.28151374342269 40.43026315793395,113.32001567742554 40.181578947464004,113.28151374342269 40.07500000006985,113.24301180665498 40.0394736842718,113.0890040313243 39.8263157895999,113.24301180665498 39.68421052629128,113.43552146255388 39.04473684215918,113.74353676609462 38.51184210530482,113.9360462394834 38.33421052643098,114.051551889861 38.26315789471846,114.24406125099631 38.15657894744072,114.35956683399854 37.76578947366215,114.12855564279016 37.80131578957662,114.09005376775167 37.76578947366215,114.12855564279016 37.375,113.78203866633703 37.090789473732,113.78203866633703 36.91315789485816,113.97454812572687 36.34473684220575,114.051551889861 36.273684210609645,114.20555938439793 36.13157894730102,114.28256311485893 36.20263157912996,114.43657054199139 35.98947368434165,114.47507239173865 35.740789473755285,114.70608343140339 35.13684210518841,114.8600907351065 34.959210526314564,115.01409799378598 34.959210526314564,115.09110160628916 34.675000000046566,115.24510879768059 34.49736842117272,115.12960340836435 34.07105263171252,115.05259980147821 33.964473684318364,114.74458526150556 33.85789473692421,114.70608343140339 33.57368421065621,114.78308708890108 33.3605263158679,114.66758159853634 33.21842105255928,114.78308708890108 32.685526315821335,114.78308708890108 32.3657894738717,114.89859255391639 32.117105263168924,114.82158891338622 31.690789473592304,114.43657054199139 31.406578947324306,114.47507239173865 31.228947368450463,114.55207608290948 31.122368421172723,114.70608343140339 31.15789473685436,114.8600907351065 30.94473684206605,114.8600907351065 30.80263157899026,115.01409799378598 30.66052631579805,115.05259980147821 30.482894736807793,115.24510879768059 30.340789473732002,115.28361058846349 30.411842105328105,115.3991159440775 30.30526315793395,115.47611950046849 30.234210526454262,115.66862834224594 30.127631579060107,116.09214754716959 30.021052631665953,116.36165959163918 29.843421052675694,116.47716471142485 29.665789473685436,116.4386630076333 29.31052631593775,116.51566641239333 28.919736842275597,116.4386630076333 28.351315789390355,116.13064927619416 27.78289473685436,115.89963885981706 27.67631578957662,115.78413361369167 27.534210526384413,115.5531230456545 27.534210526384413,115.20660700404551 28.031578947324306,113.85904245858546 28.422368421102874,113.24301180665498 28.600000000093132,112.66548241779674 28.706578947487287,112.54997646415723 28.67105263157282,111.93394428511965 28.848684210446663,111.47191967905383 28.919736842275597,111.39491553881089 29.061842105234973,111.35641346441116 29.203947368543595,111.1639030505903 29.559210526407696,110.89438835307374 29.914473684271798,110.43236283751321 29.87894736859016,110.39386069303146 30.021052631665953,110.16284776676912 30.198684210539795,109.93183473940007 31.051315789460205,109.50831059354823 31.442105263238773,109.20029281949974 31.79736842098646,108.73826582156471 32.22368421056308,107.85271294545964 32.117105263168924,107.46768949259422 31.477631579036824,106.38962233095663 31.122368421172723,106.19711010609171 30.838157894904725,106.19711010609171 30.696052631596103,106.15860765276011 29.701315789483488,105.00353274581721 28.777631578966975,104.38749176223064 28.067105263122357,103.69444479650701 27.49868421058636,102.88588885343052 26.752631578943692,102.5008617786516 26.50394736859016,102.15433717131964 26.07763157901354,101.76930956306751 25.651315789553337,101.46128727425821 25.402631578966975,101.38428167405073 24.692105263005942,100.88374499848578 24.336842105258256,100.76823646749835 23.590789473615587,100.69123076615506 23.057894736877643,100.38320784844109 22.45394736842718,99.88267022385844 21.921052631689236,99.26662326519727 21.352631578803994,98.7660845821083 19.82500000006985,97.68799965266953 19.469736842089333,97.5339873402263 18.90131578943692,97.37997498281766 18.652631578966975,97.18745947285788 18.33289473678451,97.11045324927545 17.835526315728202,97.2259625805309 16.982894736807793,97.03344701437163 16.094736841972917,96.99494389275787 15.846052631619386,96.91793764106114 14.140789473662153,96.91793764106114 13.501315789530054,96.84093137813034 13.039473684155382,96.68691881845007 12.826315789483488,96.30188722300227 12.861842105165124,95.9553585468966 12.755263157770969,95.68583608607878 12.719736842205748,95.37781024808646 12.790789473685436,94.91577115401742 12.613157894695178,94.45373165557976 12.54210526321549,92.49005927619874 12.506578947417438,91.10393319901777 12.54210526321549,90.41086879561772 12.471052631502971,89.98732898995513 12.506578947417438,89.6792998270248 12.400000000023283,87.79261728216079 12.577631578897126,85.90592799437582 12.506578947417438,84.98183282176615 12.648684210609645,84.44277655737824 12.861842105165124,84.09624009663821 13.430263157817535,83.48017471595085 13.998684210469946,83.44167060579639 16.414473684155382,84.48128059445298 17.125,84.6738007380336 17.800000000046566,85.05884081454133 18.29736842098646,85.21285676653497 18.475000000093132,85.3668726736505 18.972368421033025,85.52088853571331 21.03289473685436,85.90592799437582 22.205263157957233,86.52199054413359 23.199999999953434,86.75301381482859 23.768421052605845,86.94553312993958 24.159210526384413,86.9840369844751 24.5144736841321,86.94553312993958 25.651315789553337,87.56159446641686 26.113157894695178,87.6771058869781 28.2447368419962,88.83221870230045 29.203947368543595,89.40977416204987 29.665789473685436,89.83331443098723 30.127631579060107,90.2953579731984 31.93947368429508,91.33495446457528 32.40131578943692,91.75849318903056 32.43684210535139,91.91250718638184 32.6500000001397,92.14352809815318 32.721052631619386,92.41305236742483 33.50263157906011,92.56706617376767 33.9289473684039,92.79808679915732 34.31973684206605,93.33713453178643 35.13684210518841,93.68366492644418 35.95394736842718,94.5307382667961 37.268421052605845,95.41631348765804 39.18684210523497,97.49548425513785 40.181578947464004,97.99602414292167" stroke="#ffcd00" stroke-linecap="round" stroke-linejoin="round" stroke-width="0.5"><title>2023-12-14 4.4km</title><desc>10377368240</desc></polyline><polyline fill="none" points="80.01082076621242,122.66092505349661 80.39592235302553,122.73918139320449 80.46812890039291,122.79135227677762 80.68474854284432,122.53049778263085 80.56440429703798,122.16530117104412 80.61254199547693,121.98270272547961 80.708817392122,121.93053172394866 80.99764358217362,121.90444622025825 81.26240092294756,121.77401867354638 81.4549517162377,121.72184764154372 81.84005330305081,122.13921568455407 82.03260409634095,122.37398499474511 82.34549913543742,122.58266869667568 82.39363683387637,122.66092505349661 82.65839417465031,122.76526683595148 82.82687611877918,122.94786488206591 83.1157023088308,123.02612115896773 83.54894159385003,123.33914609550266 83.62114814133383,123.36523149450659 83.6452169904951,123.52174384862883 83.74149238725659,123.60000000000582 83.81369893474039,123.57391461808584 83.98218087886926,123.4174022868392 84.1025251246756,123.07829200074775 84.12659397383686,122.68701050194795 84.17473167227581,122.60875415080227 84.41542016388848,122.45224139725906 84.53576440969482,121.95661722566001 84.6320398064563,121.74793315853458 84.7042463539401,121.30447911156807 84.6320398064563,121.12188022650662 84.6320398064563,120.9392812482547 84.7042463539401,120.75668217678322 84.96900369483046,120.33931252060574 85.08934794052038,119.79151410769555 85.18562333728187,119.58282877731835 85.13748563895933,119.37414332519984 85.1615544881206,119.00894349103328 85.40224297984969,118.43505728393211 85.47444952721708,117.93942754584714 85.66700032062363,117.469882949983 85.71513801894616,117.15685287688393 85.81141341570765,116.81773665529909 85.78734456642997,116.53079190888093 85.93175766151398,116.40036240260815 85.95582651067525,116.00907359839766 86.10023960564286,115.66995628844597 86.41313464485575,114.6526024294435 86.46127234317828,114.18305351849995 86.60568543814588,113.81784838371095 86.62975428742357,113.32221224723617 86.84637392987497,112.56571366189746 86.84637392987497,112.38311031542253 86.96671817568131,112.17442066234071 86.96671817568131,111.93964465710451 87.11113127076533,111.62660974371829 87.27961321477778,111.00053909487906 87.37588861153927,110.34838100353954 87.5684394048294,109.53970331855817 87.4962328573456,109.22666630448657 87.23147551657166,108.9136290163151 85.54665607481729,108.18320761166979 85.40224297984969,108.0788615749625 85.13748563895933,107.9745155077253 84.99307254399173,107.9745155077253 84.89679714723025,107.84408288099803 84.80052175046876,107.8179963499133 84.41542016388848,107.73973674530862 84.19880052132066,107.60930403287057 83.42859734792728,107.32235189815401 82.85094496805687,107.00931294297334 82.4417745321989,106.87887996420613 81.69564020796679,106.51366737030912 81.71970905712806,106.35714757311507 81.74377790628932,106.40932084643282 81.71970905712806,106.53975399653427 81.79191560461186,106.53975399653427 81.81598445377313,106.35714757311507 81.9122598504182,106.14845440350473 81.86412215209566,105.78324106367654 81.9122598504182,105.65280763769988 82.08074179466348,105.33976722104126 82.22515488963109,105.1571601848118 82.3695679847151,104.79194583260687 82.51398107956629,104.63542528174003 82.53804992872756,104.42673110731994 82.80280726961792,103.95716876967344 83.21197770547587,103.27891097115935 83.88590548222419,102.36586959543638 84.27100706892088,102.05282630136935 85.08934794052038,101.00934667509864 85.2337610356044,100.85282446851488 85.42631182889454,100.74847629270516 85.47444952721708,100.61804103013128 85.42631182889454,100.48760572003084 85.64293147146236,100.51369278584025 85.8354822647525,100.27890912481234 86.12430845480412,100.20064787028241 86.31685924809426,99.86151556906407 87.08706242148764,99.44412152603036 87.1352001199266,99.41803438216448 87.1352001199266,99.33977293915814 87.47216400806792,99.28759863428422 87.8091278965585,99.07890133868204 88.0257475390099,99.07890133868204 88.29050487990025,98.818029547896 88.86815725988708,98.6615063821373 89.32546539406758,98.42672150491853 89.97532432165463,98.19193647350767 90.40856360667385,97.98323853840702 90.4326324557187,97.90497678137035 90.36042590835132,97.8788895252219 90.57704555080272,97.8788895252219 90.6733209475642,97.85280226709438 90.86587174085435,97.61801685890532 91.2028356292285,97.3571440022497 91.41945527167991,96.96583436039509 91.49166181928013,96.70496102792094 91.78048800921533,96.05277686397312 91.8045568583766,95.92233988843509 91.68421261257026,95.53102867625421 91.70828146173153,95.37450407148572 91.660143763409,95.19189194598584 91.39538642251864,94.5657925218693 91.17876678006724,93.78316669986816 90.98621598666068,93.39185314648785 91.05842253414448,93.02662677681656 91.03435368498322,93.00053916472825 90.98621598666068,92.76575057007722 90.96214713749941,92.32226058180095 90.88994059013203,92.0874715418031 90.76959634420928,91.87877004337497 90.79366519337054,91.77441924856976 90.69738979660906,91.48745440560742 90.69738979660906,91.2787525569438 90.62518324912526,90.88743626241921 90.62518324912526,90.41785614355467 90.55297670164146,90.28741711218026 90.57704555080272,90.10480238837772 90.45670130499639,89.92218757123919 90.45670130499639,89.34825468147756 90.26415051158983,88.69605709749158 90.33635705919005,88.48735361927538 90.26415051158983,88.20038613784709 90.2882193607511,87.96559439081466 90.1438062657835,87.57427446974907 90.16787511494476,87.23513019163511 90.04753086913843,86.37422404071549 90.1438062657835,86.269871639146 90.1438062657835,85.98290237769834 90.09566856746096,85.878549861809 89.99939317081589,85.82637359248474 89.95125547237694,85.64375658985227 90.02346201997716,85.46113949391292 90.04753086913843,85.30461048026336 89.97532432165463,84.52196438406827 90.0715997182997,84.18281721018138 90.33635705919005,83.94802282447927 90.6011144000804,83.63496340357233 90.74552749504801,83.5306102023169 93.17648126091808,83.16537375818007 93.75413364102133,82.98275539610768 93.94668443431146,82.80013694072841 94.11516637844034,82.69578349584481 94.18737292592414,82.74796022212831 94.50026796513703,82.74796022212831 94.90943840099499,82.66969512987998 95.15012689272407,82.6436067619943 95.34267768601421,82.51316489389865 95.55929732858203,82.56534164684126 95.77591697091702,82.53925327130128 96.30543165269773,82.25228101501125 96.71460208867211,82.22619261668297 96.81087748520076,82.17401581420563 97.17191022273619,82.17401581420563 97.67735605535563,82.06966218654998 97.84583799936809,82.147927410173 97.94211339612957,82.04357377483393 98.303146133665,82.06966218654998 98.39942153031006,82.01748536128434 98.85672966449056,81.88704326475272 99.04928045789711,81.91313168781926 99.55472629028372,81.80877798399888 101.40802767616697,81.36527440272039 101.93754235794768,81.18265512102516 103.1169159670826,80.94785876464448 103.98339453723747,80.68697374334442 104.39256497309543,80.5043541151681 104.77766655967571,80.47826558924862 104.99428620224353,80.40000000002328 105.30718124145642,80.53044263916672 105.35531893977895,80.58261968154693 105.3793877888238,80.73915076284902 105.45159433642402,80.89568177561159 105.40345663810149,81.39136286379653 105.33125009061769,81.75660112060723 105.49973203474656,82.06966218654998 105.57193858223036,82.82622529723449 105.45159433642402,83.13928542638314 105.25904354313388,84.05237590384786 104.99428620224353,84.65240551906754 104.92207965475973,85.01764044395532 104.80173540895339,85.20025776646798 104.75359771063086,85.878549861809 104.60918461554684,86.1655192070757 104.58511576638557,86.47857641184237 104.68139116303064,86.8959855917783 104.68139116303064,87.20904215693008 104.72952886146959,87.2873062553117 104.84987310727593,87.39165835996391 104.87394195643719,87.46992241844418 104.84987310727593,87.78297848094371 104.87394195643719,87.91341842612019 104.87394195643719,88.2264741002582 105.06649274972733,88.69605709749158 105.13869929732755,89.42651831160765 105.49973203474656,90.31350492226193 105.49973203474656,90.65264628003933 105.83669592323713,91.74833154506632 105.88483362144325,92.21790991639136 105.78855822468176,92.34834824342397 106.05331556568854,93.26141520016245 106.05331556568854,93.52229104517028 106.24586635897867,94.01795462635346 106.26993520813994,94.43535500386497 106.34214175562374,94.5657925218693 106.39027945406269,94.90492984605953 106.39027945406269,95.11362957791425 106.43841715238523,95.27015429691528 106.58283024735283,95.32232918799855 106.70317449315917,95.42667894737679 106.6791056439979,95.37450407148572 106.72724334243685,95.42667894737679 106.96793183393311,95.53102867625421 106.94386298488826,95.84407768023084 107.06420723069459,96.20930117179523 108.09916774497833,98.13976200119941 108.53240702988114,98.79194235833711 108.82123321993276,99.10498850731528 109.03785286238417,99.5223829462193 109.08599056082312,99.7310799829429 109.06192171166185,99.86151556906407 109.25447250495199,100.17456078156829 109.30261020327453,100.5397798497579 109.44702329824213,100.85282446851488 109.63957409153227,101.11369477474364 109.71178063913248,101.42673889105208 109.85619373410009,101.60934783230186 109.92840028158389,101.87021758657647 110.14501992415171,102.36586959543638 110.16908877331298,102.65282570762793 110.33757071744185,103.04412912580301 110.31350186828058,103.22673724108608 110.43384611420333,103.77456102738506 110.53012151073199,104.08760281425202 110.53012151073199,104.34847076059668 110.6023280583322,104.68759880625294 110.57825920917094,104.89629282843089 110.62639690749347,105.26150707405759 110.93929194670636,105.96584778020042 111.10777389083523,106.0441077730502 111.73356396926101,106.46149411221268 112.02239015931264,106.72236032679211 112.648180237622,107.03539953305153 112.93700642767362,107.24409218502115 113.32210801437031,107.24409218502115 113.68314075167291,107.45278471513302 114.11638003680855,107.53104438257287 114.57368817098904,107.68756366605521 115.15134055097587,107.94842898621573 115.31982249522116,108.00060202745954 115.3679601935437,107.94842898621573 115.31982249522116,107.79190981693682 115.34389134438243,107.73973674530862 115.3679601935437,107.8179963499133 115.53644213767257,107.89625593743403 115.48830443935003,108.0788615749625 115.60864868515637,108.15712110532331 116.06595681945328,108.33972660973086 116.23443876358215,108.36581310271868 116.59547150111757,108.54841850048979 116.76395344524644,108.52233202080242 117.05277963518165,108.67885087034665 117.43788122187834,108.73102380504133 117.84705165785272,108.88754256328684 118.01553360198159,108.88754256328684 118.232153244433,109.01797480945243 118.61725483112969,109.04406125302194 118.66539252956863,109.25275273277657 118.85794332285877,109.38318484582123 118.83387447358109,109.56578972408897 118.97828756866511,109.33101200632518 119.05049411614891,109.33101200632518 119.24304490955546,109.43535767766298 119.98917923378758,109.72230811690679 119.91697268618736,109.82665367421578 119.86883498786483,109.82665367421578 119.72442189278081,109.74839450913714 119.84476613870356,109.82665367421578 119.86883498786483,109.82665367421578 119.84476613870356,109.77448089938844 119.77255959133618,109.72230811690679 119.65221534541342,109.74839450913714 119.70035304373596,109.77448089938844 119.86883498786483,109.77448089938844 119.86883498786483,109.72230811690679 119.8206972895423,109.6962217229302 119.70035304373596,109.6962217229302 119.7484907420585,109.77448089938844 119.8929038370261,109.77448089938844 119.86883498786483,109.72230811690679 119.8206972895423,109.67013532697456 119.5800087978132,109.64404892912717 119.5078022503294,109.72230811690679 119.48373340128455,109.67013532697456" stroke="#ffc300" stroke-linecap="round" stroke-linejoin="round" stroke-width="0.5"><title>2023-12-13 4.8km</title><desc>10373312158</desc></polyline><polyline fill="none" points="176.89215153711848,96.8334460874321 176.75972416298464,96.33111774077406 176.2962283527013,95.68526663223747 176.0313736044336,95.11117640242446 176.56108310143463,94.82413116178941 177.02457891125232,94.9676537924679 177.355647347169,95.46998283528956 177.15700628608465,96.61816254165024 176.82593785016797,97.04872958618216 176.75972416298464,97.33577417774359 177.22321997303516,98.69923484465107 177.15700628608465,99.20156198274344 176.2962283527013,99.91917173494585 176.09758729138412,100.20621548907366 175.6340914813336,100.42149824992521 175.23680935846642,101.06734624982346 174.5746724868659,101.64143300504657 173.71389455371536,102.14375864103204 173.51525349216536,102.64608402061276 173.25039874366485,103.00488770630909 170.99913338036276,104.00953732995549 170.6680649444461,104.87066476233304 170.20456913439557,105.15770707261981 169.87350069871172,105.51650984236039 169.80728701176122,105.66003091371385 169.87350069871172,105.87531248142477 169.6086459502112,106.37763595627621 170.80049231857993,107.38228213676484 171.46262919041328,107.74108409538167 172.98554399516433,108.74572888406692 175.8327325428836,110.82677554053953 176.16380097856745,111.18557624338428 176.2962283527013,111.54437681561103 176.4286557273008,111.4008566023549 177.02457891125232,111.54437681561103 177.42186103435233,111.83141717890976 177.4880747217685,112.0466973966686 176.95836522453465,112.54901772143785 176.56108310143463,112.83605779183563 176.0313736044336,112.83605779183563 175.70030516851693,113.123097778589 174.97195460950024,112.979577795777 174.44224511249922,113.33837771374965 174.04496298963204,114.12773707305314 173.31661243084818,114.77357607765589 173.05175768211484,115.49117447476601 172.0585523750633,116.20877234864747 171.0653470675461,117.213408492913 170.33699650876224,117.57220686750952 169.87350069871172,118.36156283086166 168.88029539119452,118.79212036216632 168.28437220701016,119.36619677755516 167.4235942736268,121.01666460681008 166.69524371507578,121.66249909077305 166.36417527939193,122.23657383193495 165.9006794693414,122.52361107681645 165.4371836592909,122.66712966782507 164.97368784900755,123.16944457200589 164.11290991608985,123.59999999997672 163.8480551673565,123.52824077516561 163.31834567012265,123.02592605428072 162.9872772344388,122.45185177354142 162.32514036260545,121.73425845173188 162.1927129884716,121.8060178073938 161.66300349123776,121.51898035313934 160.53737080981955,121.73425845173188 159.74280656361952,122.88240751525154 159.54416550230235,123.3847223094781 159.34552444075234,123.52824077516561 158.35231913323514,123.4564815449412 157.9550370106008,122.95416678744368 157.42532751336694,122.73888895573327 156.89561801590025,122.30833315104246 156.16726745734923,121.16018341755262 154.51192527846433,119.43795630603563 154.51192527846433,119.07915861165384 154.71056634001434,118.93563949753297 154.9092074013315,118.93563949753297 155.04163477569818,119.2226777052274 155.2402758372482,119.15091816114727 155.7699853342492,118.50508202891797 156.29969483148307,118.218043611967 156.5645495802164,117.64396652666619 157.02804539026693,117.28516817843774 158.08746438496746,114.91709579899907 158.4185328206513,114.34301678824704 159.477951815119,113.62541755387792 159.54416550230235,113.33837771374965 160.47115712240338,111.97493732941803 160.6697981839534,110.97029583726544 161.5305761168711,109.0327700637863 161.92785823973827,108.67396857589483 162.1927129884716,108.02812556829304 162.9872772344388,107.23876131657744 163.51698673167266,106.09059400204569 162.72242248570547,105.44474929885473 162.1264993015211,104.44010114046978 161.86164455278777,104.22481925867032 160.80222555808723,103.72249468497466 160.40494343522005,103.22016985475784 160.00766131235287,103.07664842769736 157.88882332341745,101.42615051107714 156.5645495802164,100.9955853818683 155.83619902166538,100.49325915967347 155.5713442726992,100.13445455842884 156.03484008298256,99.56036692397902 155.83619902166538,98.77099588018609 155.2402758372482,98.55571275821421 155.3064895241987,98.12514637305867 155.5051305857487,98.12514637305867 155.43891689856537,97.98162420280278 155.37270321138203,98.05338529072469 155.70377164706588,97.83810201170854 155.7699853342492,97.55105756659759 155.96862639579922,97.26401303766761 156.89561801590025,96.905207258882 157.2266864515841,95.46998283528956 158.2198917591013,94.68060851009795 161.00086661987007,91.09253541450016 162.58999511157162,88.43735290056793 162.65620879852213,87.93502026773058 164.4439783517737,85.63863925152691 165.03990153619088,84.41868465667358 165.6358247208409,83.7010636003688 166.49660265352577,81.8352464044583 167.29116689949296,81.04586114099948 167.9533037710935,81.04586114099948 168.08573114546016,80.61528709420236 168.615440642694,80.39999999996508 169.4100048886612,81.11762346391333 169.54243226279505,81.11762346391333 169.80728701176122,81.54819729109295 171.59505656454712,83.05520420212997 172.52204818464816,83.9881120857317 173.51525349216536,84.63397087156773 173.71389455371536,85.13630518963328 173.44903980544768,86.14097305672476 173.6476808662992,86.42802083032439" stroke="#ffff00" stroke-linecap="round" stroke-linejoin="round" stroke-width="0.5"><title>2023-12-13 1.9km</title><desc>10372191603</desc></polyline><polyline fill="none" points="19.428410169901326,171.59999999997672 19.562917152885348,171.21126108412864 19.562917152885348,170.57955986220622 20.100945085287094,169.024600456818 20.235452068271115,168.2957119863131 20.683808678295463,166.74074725084938 20.8631513225846,165.86607799242483 20.907986983424053,165.33155732473824 21.177000949624926,164.55407195183216 21.22183661069721,164.21392181579722 21.4460149158258,163.77658567146864 21.58052189880982,163.1448774007149 21.535686237970367,162.36738947592676 21.80470020393841,161.93005211965647 22.432399458251894,159.59758137061726 22.566906441235915,159.25742870406248 22.701413424219936,158.0911896719481 23.149770034244284,156.8763551757438 23.1946056955494,155.95307947718538 23.55329098342918,154.78683466062648 23.642962305340916,154.2523051041062 24.225825898814946,152.94027619238477 24.539675525855273,150.55918008612934 24.808689491823316,149.5873016785481 24.943196475040168,148.9069859497249 25.032867796951905,148.61542185320286 25.391553085064515,148.08088734472403 25.391553085064515,148.1780754691572 25.346717424225062,148.22666952596046 25.391553085064515,148.08088734472403 25.79507403424941,147.40057007747237 25.750238373409957,147.10900532169035 25.884745356161147,146.81744043831713 26.198594983434305,146.52587542729452 26.467608949635178,145.9427450223011 26.96080122049898,145.3596141070011 28.61972067807801,143.80459583719494 29.42676257668063,142.68692421354353 30.457982779946178,141.9094124129042 31.444367322139442,140.7917376094265 31.623709966428578,140.7917376094265 31.98239525454119,141.08330513024703 32.20657355943695,141.37487252347637 32.161737898597494,141.56925071467413 32.11690223752521,141.37487252347637 32.78943715291098,141.6664397890563 32.96877979673445,141.6664397890563 33.32746508507989,141.13189970463281 33.73098603403196,140.8403322051745 34.44835661049001,140.06281824910548 36.37629003403708,138.41059807920828 36.95915362727828,138.11902938847197 37.54201722051948,137.19572769268416 39.87347159325145,134.86317033937667 40.32182820350863,134.03705431806156 40.904691796517,133.55110323859844 41.57722671190277,132.77358077425743 42.51877559325658,132.04465263948077 43.191310508642346,131.1699378248304 43.50516013568267,130.87836596457055 44.17769505083561,130.6839846536168 44.85022996598855,130.29522186139366 45.164079593261704,129.95505423203576 45.79177884734236,129.61488642904442 46.86783471168019,128.93455030181212 48.571589830331504,128.39999999996508" stroke="#ffff00" stroke-linecap="round" stroke-linejoin="round" stroke-width="0.5"><title>2023-12-12 1.9km</title><desc>10367724574</desc></polyline><polyline fill="none" points="120.28397350967862,155.4883383718552 120.91337748314254,155.11626064550364 121.5999999998603,155.05424767534714 121.5999999998603,154.93022172147175 121.42834437056445,154.4341177244787 121.0850331124384,154.24807865120238 120.45562913874164,154.24807865120238 118.91072847670875,153.31788267346565 118.96794701972976,152.5117120030336 118.91072847670875,152.387685678259 117.70913907256909,151.45748766534962 116.67920529772528,150.34124870662345 115.99258278147317,149.72111531859264 114.96264900639653,148.9769546558964 113.98993377457373,148.54286063526524 113.93271523155272,148.04675291175954 113.7610596024897,147.9227259356412 113.01721854298376,147.42661785025848 112.21615894022398,147.30259078368545 112.15894039697014,147.30259078368545 112.15894039697014,146.86849590821657 111.8728476818651,146.49641440989217 111.18622516538016,146.2483599873376 109.98463576147333,145.38016893836902 109.92741721845232,145.19412788393674 109.58410596009344,145.1321141900844 109.46966887405142,144.88405936944764 109.06913907267153,144.44996325910324 107.75311258248985,143.51975656248396 106.66596026485786,142.96163205587072 106.15099337720312,142.5895488479291 105.5215894037392,142.4655210757046 101.9740397350397,140.35704618081218 101.45907284761779,140.17100402724463 100.600794701837,139.73690551077016 100.0858278144151,139.67489141889382 99.6280794700142,139.05475025129272 98.59814569517039,138.55863699159818 97.68264900660142,138.62065116479062 96.8243708605878,138.12453765183454 96.02331125806086,137.8764807865955 93.90622516535223,136.88425260264194 92.3041059600655,136.26410939957714 91.50304635753855,136.01605199155165 90.87364238407463,135.6439657440642 90.01536423829384,135.51993695861893 87.95549668883905,134.71374941273825 87.3260927151423,134.6517349545029 86.52503311261535,134.34166259522317 86.12450331123546,134.09360462648328 83.49245033110492,133.34943028585985 82.920264900662,133.10137202753685 82.34807947021909,133.1633865989279 81.83311258256435,133.03935745178023 81.37536423839629,132.7292845044285 80.57430463586934,132.7292845044285 80.11655629146844,133.2874157281476 79.02940397360362,134.03159012296237 78.62887417222373,134.58972049166914 78.39999999990687,135.1478504940169 78.62887417222373,136.3261237400584 78.62887417222373,136.8222383024986 78.4572185431607,137.69043809041614 78.4572185431607,138.68266533355927 78.51443708594888,141.2872563378769 78.74331125826575,143.70579798310064 78.62887417222373,145.38016893836902 78.68609271524474,148.29480680968845 78.62887417222373,149.1009814782883 78.68609271524474,150.21722206508275 78.68609271524474,150.77534180920338 78.74331125826575,152.3256725089741 78.80052980128676,152.63573830982205 79.02940397360362,152.88379086897476 79.65880794706754,153.19385646627052 80.28821192053147,153.31788267346565 81.08927152329125,153.19385646627052 83.66410596016794,153.13184335583355 84.29350993363187,153.00781712151365 86.23894039727747,153.37989577028202 86.69668874167837,153.31788267346565 87.61218543048017,153.62794811249478 88.47046357602812,153.62794811249478 91.73192052962258,154.6821697591804 93.96344370860606,155.98444175359327 95.39390728459693,157.22469894163078 95.67999999970198,157.53476295585278 97.45377483428456,158.4649543206324 98.59814569517039,159.20910667971475 99.91417218511924,160.2633214070229 100.65801324509084,160.63539688108722 101.40185430436395,160.82143455703044 101.85960264899768,161.317534827278 102.4317880794406,161.4415598496562 103.06119205290452,162.49577180930646 103.46172185405158,162.49577180930646 103.63337748334743,162.7438214921276 104.49165562889539,163.23992064088816 104.8921854305081,163.3019330141833 105.40715231793001,163.7980318373884 105.75046357605606,163.922056498006 106.09377483441494,164.29413037124323 106.78039735066704,164.54217952943873 108.49695364246145,166.40254591056146 109.98463576147333,167.2707154955715 110.15629139053635,167.2707154955715 111.12900662235916,166.89864292478887 111.58675496676005,166.65059445379302 112.61668874160387,165.28632657031994 112.95999999996275,164.9762653823127 113.47496688715182,164.85224087553797 113.98993377457373,164.9762653823127 114.50490066222847,164.9762653823127 115.01986754965037,164.7902286152821 115.53483443683945,164.04608114034636 116.3358940393664,162.7438214921276" stroke="#ffff00" stroke-linecap="round" stroke-linejoin="round" stroke-width="0.5"><title>2023-12-12 2.1km</title><desc>10366736030</desc></polyline><polyline fill="none" points="187.12009641644545,144.9974644020549 186.05768046481535,144.12392626219662 185.7279651693534,143.56803762519849 185.43488490697928,142.5356715072703 185.36161484126933,142.0591941770981 185.43488490697928,142.1386070944427 185.3982498741243,141.78124887510785 184.8120893491432,138.9223746743519 183.05360777419992,134.55462120418088 181.88128672423773,132.45014565545716 181.69811156019568,131.89424509520177 181.6614765273407,131.7354162594129 181.25849116640165,131.53688014941872 180.7456007071305,130.42507659539115 180.0129000507295,129.19414858261007 179.93962998501956,129.27356337709352 179.86635991930962,129.07502636910067 179.39010449289344,128.51912236129283 179.13365926314145,128.40000000002328 178.7306739022024,128.51912236129283 178.43759363982826,128.71765957208117 177.8147980819922,129.31327077007154 177.00882736011408,129.82946661431924 175.87314134300686,130.26624733084464 175.10380565398373,130.50449121033307 175.10380565398373,130.3456619689823 174.33446996472776,130.86185683394433 173.63840434141457,131.0603931901569 170.1947112570051,131.5765873772616 167.59362392732874,132.56926713022403 166.78765320545062,132.96633852444938 165.65196718811058,133.72077337524388 164.5895512367133,134.59432821188238 162.50135436630808,136.6590886155027 161.40230338205583,137.29439793303027 160.92604795540683,137.6914658799651 159.60718677425757,139.3194414335594 154.95453760703094,143.7268630079925 152.0970050478354,146.62541810344555 151.6207496211864,147.2607157882012 151.10785916191526,148.2533669359982 150.74150883359835,149.00778059777804 150.04544321028516,151.9460133140965 149.7523629476782,152.81953890097793 149.312742554117,153.97100230568321 149.2761075210292,153.93129671167117 146.38193992897868,166.35900626014336 145.97895456803963,167.62955482996767 145.90568450232968,167.98689608089626 145.68587430543266,167.90748693433125 145.72250933828764,168.06630521596526 145.64923927281052,168.54275978304213 145.2096188790165,170.48827827096102 144.87990358355455,171.60000000000582" stroke="#fff400" stroke-linecap="round" stroke-linejoin="round" stroke-width="0.5"><title>2023-12-12 2.9km</title><desc>10366295050</desc></polyline><polyline fill="none" points="42.58111272088718,219.06527377836755 42.72207555815112,219.02707902740804 42.545872011454776,218.950689517078 42.228705627378076,219.02707902740804 42.087742790346965,218.91249475767836 41.735335697070695,218.79791046286118 41.55913215037435,218.83610523064272 40.81907725450583,218.72152091911994 40.04378164932132,218.53054701079964 39.72661526536103,218.33957303289208 39.37420817220118,218.26318342221202 38.84559753222857,218.07220934677753 38.2465054737404,217.95762486805324 37.78837625263259,217.7284558354877 37.4359691592399,217.6138712815591 37.259765612659976,217.42289696936496 36.23778504214715,217.04094813583652 35.673933693091385,216.92636343149934 34.40526815713383,216.35343953341362 33.94713893602602,216.31524458469357 33.383287586970255,216.16246476146625 32.643232690985315,215.85690498139593 32.1498627604451,215.8187099964125 31.797455667052418,215.55134502315195 31.550770701956935,215.47495500560035 30.881197224603966,215.0930047511647 30.352586584864184,214.52007884712657 30.14114232896827,214.40549359103898 29.859216654207557,214.1763230036886 29.61253168899566,213.83256693460862 29.224883886403404,212.76310216530692 29.083921049023047,211.0825102570816 28.801995374495164,210.24221227999078 28.90771750244312,209.89845362785854 28.731513955863193,209.66928106785053 28.132421897375025,209.4401084074343 28.026699769310653,208.98176278569736 27.46284842013847,207.6831146783079 27.216163454810157,207.2247675184044 26.93423778016586,206.26987631304655 26.758034233469516,205.8115279158519 26.440867849742062,205.2385918550135 26.33514572167769,204.8948299176118 26.123701465781778,204.58926356144366 26.053220047033392,204.24550119772903 25.736053663073108,203.7489551625622 25.630331535241567,203.59617167248507 24.81979522074107,201.91555033781333 24.678832383360714,201.15162976580905 24.467388127348386,200.9224533768429 24.220703162252903,200.7696690618177 23.974018196808174,200.42590418990585 23.33968542900402,200.0821390922938 23.304444719688036,199.73837376886513 22.881556207779795,199.432804403099 22.775834079715423,199.24182345884037 22.740593370515853,199.35641203369596 22.529149114503525,199.28001965326257 22.317704858607613,199.28001965326257 22.21198273054324,199.2036272616242 22.24722343974281,198.93625380317098 22.740593370515853,198.24872142568347 22.98727833572775,197.2938138479367 22.952037626411766,195.38399346673395 22.56438982381951,194.12350819833227 22.14150131191127,193.58875595530844 22.282464149175212,193.35957625543233 22.282464149175212,193.206789732998 22.14150131191127,192.5192498305696 21.965297765214927,192.17547954063048 21.648131381254643,190.91498654618044 21.577649962739088,190.7621993102075 21.471927834674716,190.074656196899 21.084280032198876,189.08153677207883 20.767113648238592,187.78283929658937 20.69663222960662,187.63005114646512 20.69663222960662,187.13348935049726 20.555669392226264,186.67512419761624 20.66139152017422,185.56740675441688 20.555669392226264,185.07084300168208 20.590910101658665,184.80346232434385 21.049039322766475,183.6575435885752 21.01379861345049,183.04638590366812 21.225242869462818,182.4352275050478 21.29572428809479,182.0150556921435 21.683372090687044,180.90732838655822 21.789094218635,180.25796991056995 21.85957563726697,179.99058677459834 21.85957563726697,179.45582009272766 21.577649962739088,178.61547134577995 21.71861280000303,178.30988964880817 21.71861280000303,177.96611002628924 21.542409253423102,177.08756107644876 21.260483578662388,176.78197848732816 21.260483578662388,176.74378065107157 21.29572428809479,176.66738497040933 21.965297765214927,176.590989278513 22.45866769575514,176.40000000002328 22.705352661199868,176.43819786122185 22.811074789147824,176.590989278513 22.63487124245148,177.43134127595113 22.705352661199868,177.66052795024007 22.740593370515853,178.27169192410656 22.846315498347394,178.88285518440534 22.811074789147824,179.45582009272766 23.022519045160152,179.72320350192604 22.775834079715423,180.29616749033448 22.352945567807183,180.56355047030956 22.352945567807183,180.63994558225386 22.45866769575514,180.7163406831678 22.45866769575514,181.06011849921197 22.317704858607613,181.32750108881737 22.21198273054324,181.9768582378747 21.965297765214927,182.47342492593452 21.930057055898942,182.85539898078423 21.648131381254643,183.46655688862666 21.471927834674716,184.03951677927398 21.36620570672676,185.03264577046502 21.330964997410774,185.98757571578608 21.436687125242315,186.98070101073245 21.577649962739088,187.55365705461008 21.71861280000303,188.5467793782591 22.0710198932793,189.57809672004078 22.529149114503525,190.151049920707 22.45866769575514,190.30383733497 22.529149114503525,190.68580567557365 22.846315498347394,191.4879382835643 22.670111951767467,191.67892205671524 22.952037626411766,192.09908611222636 22.846315498347394,192.40465975899133 23.19872259174008,193.24498636781937 23.093000463675708,193.66514916636515 23.304444719688036,194.27629445312778 23.374926138320006,195.00202855441603 23.410166847752407,194.96383204788435 23.65685181284789,195.26940402240143 23.93877748749219,196.14792245530407 23.868296068860218,196.64447570013 23.974018196808174,196.98824305518065 23.974018196808174,197.25561750866473 23.90353677829262,197.4084028492507 23.93877748749219,197.67577708803583 23.72733323171269,198.47789898517658 23.833055359544232,198.82166513625998 23.69209252228029,199.16543106167228 23.72733323171269,199.39460821973626 23.833055359544232,199.66198144416558 24.150221743504517,200.2349236079899 24.32642529020086,200.7314729760983 24.467388127348386,200.88425730227027 24.714073092793114,201.41900209287996 25.454127988545224,202.373902146006 25.84177579113748,203.29060455836589 26.194182884297334,203.82534689092427 26.440867849742062,204.05452200912987 26.61707139632199,204.36008867737837 26.793274942901917,204.9330256996036 26.898997070849873,205.12400456759497 26.969478489481844,205.4677663545881 27.145682036178187,205.8115279158519 27.427607710822485,206.57544168818276 27.639051966834813,206.95739815646084 27.744774094666354,207.53033233617316 27.920977641362697,207.79770140556502 28.06194047862664,207.9504836696142 28.590551118482836,209.55469475020072 28.766754665179178,210.12762608769117 28.766754665179178,210.50957996444777 28.978198920958675,211.0825102570816 29.083921049023047,211.7700257805991 29.189643176971003,212.07558794572833 29.189643176971003,212.83949257840868 29.436328142415732,213.25963965128176 29.506809560931288,213.56520094705047 29.753494526376016,214.0999327856407 30.246864456799813,214.63466407801025 30.881197224603966,215.0166146667907 31.515529992524534,215.58954002763494 31.938418504432775,215.66593002830632 32.29082559759263,215.9714899198152 32.43178843497299,216.04787986492738 32.643232690985315,215.9332949432428 32.99563978414517,215.62773502938217 33.66521326149814,215.51315001572948 34.75767525052652,215.66593002830632 35.95585936761927,215.66593002830632 36.731154972687364,215.7805150085769 37.36548774060793,215.70412502458203 37.68265412468463,215.51315001572948 38.95131966029294,215.0930047511647 39.51517100946512,214.63466407801025 40.501910870545544,214.0617376723967 40.74859583587386,214.0617376723967 41.030521510518156,214.2145181085507 41.41816931311041,214.13812789611984 41.84105782490224,214.2145181085507 42.228705627378076,214.0999327856407 42.96876052336302,214.2145181085507 43.77929683786351,213.87076206461643 44.0964632218238,213.67978638701607 44.766036698943935,213.75617666647304 45.29464733891655,214.25271321056061 45.82325797888916,214.44368867916637 45.893739397404715,214.71105421805987 46.14042436273303,215.1311997891462 46.175665072049014,215.36036995850736 46.77475713053718,216.39163447948522 47.16240493324585,216.88816852433956 47.444330607773736,217.42289696936496 47.444330607773736,217.7284558354877 47.091923514497466,217.99581969712744 46.70427571190521,218.07220934677753 45.75277656002436,218.64513136414462 45.470850885496475,218.72152091911994 45.08320308290422,219.06527377836755 44.73079598962795,219.25624749163399 44.58983315236401,219.52361057317466 44.48411102441605,219.60000000000582 44.23742605908774,219.56180528792902 43.95550038444344,219.37083168618847 43.70881541934796,219.37083168618847 43.144964069942944,219.2180527545861 42.86303839541506,219.25624749163399" stroke="#ffe000" stroke-linecap="round" stroke-linejoin="round" stroke-width="0.5"><title>2023-12-11 3.6km</title><desc>10363351419</desc></polyline><polyline fill="none" points="78.40000000002328,211.0837079808698 78.40000000002328,211.22653768616146 78.4263575351797,211.22653768616146 78.58450274576899,211.05514203358325 78.79536302632187,210.9408782235405 79.16436851746403,210.9408782235405 79.42794386832975,210.74091647577006 79.55973154376261,210.76948244593223 79.71787675423548,211.02657608420122 80.37681513128337,211.62646058388054 80.40317266632337,211.71215829456924 80.79853569250554,212.02638307324378 80.85125076270197,212.14064656672417 81.1675411836477,212.34060759993736 81.3520439293934,212.39773930501542 81.48383160470985,212.54056853117072 81.53654667490628,212.68339770520106 81.74740695557557,212.82622682713554 82.0636973765213,212.96905589709058 82.3009151922306,212.88335846137488 82.2745576571906,212.45487100174068 82.45906040270347,212.08351482418948 82.40634533262346,211.68359239315032 82.66992068348918,211.54076285441988 82.77535082376562,211.34080141287996 82.77535082376562,211.02657608420122 82.9334960343549,210.5409546258743 83.06528370967135,209.76967224865803 83.6187919464428,207.8557427523192 83.75057962187566,207.28441870203824 83.75057962187566,206.99875636445358 83.80329469195567,206.7702263443207 84.06687004282139,206.0846354838868 84.11958511301782,205.17051246998017 84.22501525329426,204.99911416738178 84.3304453935707,204.54205166033353 84.64673581463285,203.599358555075 84.7521659550257,203.39939305919688 84.85759609518573,202.54239692061674 85.04209884093143,201.99963172955904 85.09481391101144,201.59969900228316 85.33203172683716,200.5712986852741 85.4374618671136,200.19993124052417 85.7010372178629,199.60002923969296 85.88553996349219,198.25738809851464 86.17547284951434,197.14327812517877 86.43904820014723,196.80047441873467 86.62355094589293,196.34340234354022 86.67626601597294,196.00059793703258 86.91348383168224,195.8291956211906 87.30884685786441,195.14358560784603 87.46699206845369,195.14358560784603 87.75692495435942,194.85791441472247 88.07321537530515,194.62937731010607 88.57400854199659,194.05803396517877 88.78486882254947,193.74379477018374 89.10115924361162,193.48668978671776 90.02367297140881,192.51540277007734 90.2081757170381,192.57253736717394 90.39267846255098,192.85821022751043 90.47175106790382,192.8296429508482 90.47175106790382,192.97247931326274 90.60353874333669,193.08674836572027 90.81439902388956,193.1438828794344 90.94618669932242,193.05818110573455 91.05161683971528,192.77250839126646 91.20976205018815,192.60110466257902 91.42062233085744,192.45826816471526 91.89505796227604,192.00119102129247 92.2377059183782,191.7440848936967 92.9493593655061,191.05846772814402 93.37107992684469,190.8584958286956 93.71372788283043,190.40141681805835 94.10909090912901,190.0586072099104 94.5571690055076,189.5158247165382 95.13703477743547,189.03017658478348 95.34789505798835,188.57309543999145 95.98047589999624,188.05887851427542 96.45491153153125,187.57322857552208 96.7712019525934,187.08757803443586 97.14020744373556,186.74476552510168 97.82550335582346,186.34481721825432 98.11543624172918,186.05913960607722 98.66894447850063,185.88773293874692 99.32788285554852,185.48778375651455 100.48761439905502,185.14496984658763 102.30628431984223,184.85929135902552 103.597803538898,184.8021556365129 104.2567419159459,184.71645203712978 105.52190359984525,184.11652631594916 105.96998169622384,183.74514326601638 106.47077486291528,183.430895794736 106.68163514358457,183.20235202088952 106.91885295929387,183.08808008395135 107.15607077500317,183.03094410293852 107.34057352051605,183.08808008395135 107.94679682748392,184.14509422826814 108.71116534492467,184.97356277913786 108.92202562547754,185.7734617855167 109.10652837110683,186.03057183345663 109.15924344130326,186.4590882047196 109.34374618681613,186.68763007770758 109.55460646748543,187.3732548962871 109.84453935327474,187.9160403595306 110.68798047606833,189.88720229326282 110.8197681515012,190.5728215095587 110.97791336185765,191.02990032019443 111.13605857244693,191.91548899750342 111.16241610748693,192.25829698011512 111.42599145823624,193.2010173848539 111.61049420386553,193.51525701541686 112.05857230024412,194.05803396517877 112.37486272130627,194.34370574183413 112.691153142252,194.54367586158332 113.13923123874702,194.91504866999458 113.4028065893799,194.94361579453107 113.79816961567849,195.11501849797787 114.16717510682065,195.0578842717514 114.29896278236993,195.08645138592692 114.72068334370852,195.25785402674228 115.11604636989068,195.37212241234374 115.24783404532354,195.54352492815815 115.40597925568,195.65779323043535 115.80134228197858,195.8291956211906 116.27577791339718,195.9434638400562 117.06650396587793,196.34340234354022 117.30372178158723,196.371969363885 117.4618669920601,196.31483532112907 117.59365466760937,196.34340234354022 118.48981086036656,196.71477344536106 118.93788895674516,196.80047441873467 119.06967663217802,196.9147423542745 119.51775472855661,196.88617537348182 119.99219036009163,197.1147111611208 120.65112873713952,197.31467986581265 121.60000000009313,197.48608153147507" stroke="#fff700" stroke-linecap="round" stroke-linejoin="round" stroke-width="0.5"><title>2023-12-11 2.8km</title><desc>10362547167</desc></polyline><polyline fill="none" points="180.26242038211785,199.5161503131385 180.26242038211785,199.06882774853148 179.16178343934007,199.41674532421166 174.94267515931278,194.64528880058788 165.4496815286111,187.93537154170917 154.7643312101718,183.01472356100567 146.6929936306551,180.57923818245763 144.39999999990687,182.56739016453503 144.67515923571773,196.98131856421242 145.4547770700883,197.5280477782362 151.04968152870424,197.4286424991442 155.4522292993497,198.919720161648 165.63312101899646,205.23191279603634 173.56687898095697,211.44464373547817 179.8496815287508,215.42076181754237 184.89426751597784,210.94762734434335 187.60000000009313,205.53012517496245 183.5184713373892,202.24978182913037 182.64713375805877,202.29948411876103" stroke="#fffb00" stroke-linecap="round" stroke-linejoin="round" stroke-width="0.5"><title>2023-12-11 2.6km</title><desc>1702269198000</desc></polyline><polyline fill="none" points="48.270201484672725,247.53936671983683 48.407635206822306,247.09251854888862 48.31601272523403,247.04286873404635 47.49141039233655,247.53936671983683 47.17073170724325,247.4400671516196 47.03329798509367,247.24146797176218 46.941675503738225,246.59602023713524 46.71261930000037,246.29812107619364 46.43775185570121,246.14917144697392 45.704772004392,246.0002217850997 45.292470837943256,245.70232236356242 45.10922587499954,244.90792326873634 44.834358430467546,244.36177335330285 44.51367974537425,244.21282330038957 43.91813361621462,243.61702276254073 43.78069989383221,243.3687723847106 43.230965005233884,243.02122170344228 42.95609756093472,242.673670844757 42.36055143154226,242.27646964613814 42.039872746448964,241.92891840724042 41.03202545060776,241.4324163295678 40.848780487896875,241.03521440678742 40.16161187714897,240.5387116773636 39.61187698831782,240.38976078794803 39.47444326616824,239.9925582567812 39.24538706266321,239.7443065569969 38.64984093303792,239.4960547668743 38.145917285233736,239.0988517141668 37.96267232229002,239.0492013163166 37.871049840701744,239.0492013163166 37.91686108172871,239.0988517141668 38.05429480387829,239.0988517141668 37.275503711542115,238.75129885302158 36.54252385976724,238.05619259836385 35.99278897140175,237.85759068088373 35.44305408280343,237.3610856338055 34.755885471822694,236.96388133545406 34.572640508878976,236.66597795957932 34.02290562028065,236.2687732555787 33.15249204658903,235.8219176866114 32.55694591719657,235.57366446597734 32.32788971369155,235.5240138109657 32.373700954485685,235.5240138109657 31.22841993626207,234.82890426088125 30.81611876981333,234.7296028386918 30.03732767747715,234.18344475730555 29.48759278887883,233.93519093916984 29.30434782616794,233.7365878194105 28.983669140841812,233.6869370303466 29.075291622662917,233.7365878194105 28.617179215187207,233.38903222046793 28.11325556738302,233.3393814061419 27.288653234252706,232.84287306352053 25.868504771962762,232.3463643589057 25.364581123925745,232.24706257448997 24.219300106167793,231.5519496780471 22.844962884206325,231.00578904722352 22.111983032897115,230.85683607182 21.653870625654235,230.608581040462 20.508589607430622,230.3106748832506 20.325344644952565,230.2113728018594 20.37115588528104,230.16172175575048 20.462778366869316,230.40997695014812 20.187910922570154,230.3603259184747 19.36330858967267,230.1120707060909 18.584517497336492,229.71486217773054 18.126405090093613,229.76451325649396 17.43923647911288,229.36730452545453 15.286108165280893,228.72183984296862 14.736373276915401,228.6225375298527 14.14082714729011,228.72183984296862 13.27041357383132,229.46660672983853 12.583244962850586,230.2113728018594 12.491622481262311,230.55893002339872 12.537433722056448,230.85683607182 12.491622481262311,231.40299682226032 12.629056203411892,232.24706257448997 12.399999999906868,232.4953170082299 12.491622481262311,232.59461875649868 12.445811240701005,232.64426962513244 12.583244962850586,233.041476443992 12.583244962850586,233.88554016454145 12.67486744420603,233.93519093916984 12.67486744420603,234.0841432409361 12.491622481262311,234.43169848492835 12.491622481262311,234.77925355150364 12.583244962850586,235.47436315234518 12.720678685000166,236.56667680537794 12.629056203411892,237.3610856338055 12.766489925794303,238.00654212437803 12.67486744420603,238.55269713839516 12.720678685000166,239.64500585192582 12.81230116635561,239.79395690420642 12.67486744420603,243.3191222982132 12.766489925794303,245.0072232062812 12.766489925794303,244.8582732945215 12.903923647711053,245.10652312927414 13.27041357383132,245.35477287363028 13.316224814159796,245.45407274592435 13.54528101789765,245.55337260389933 14.278260869439691,245.45407274592435 14.827995758270845,245.50372267671628 15.33191940607503,245.30512293201173 16.156521738972515,245.30512293201173 16.889501590747386,245.45407274592435 17.347613997757435,245.35477287363028 18.44708377518691,245.50372267671628 19.134252385934815,245.45407274592435 19.50074231182225,245.6526724472642 19.82142099668272,245.6526724472642 21.14994697785005,245.90092199237552 22.47847295855172,246.39742081105942 23.53213149518706,246.89391926763346 25.364581123925745,247.98621459747665 25.502014846308157,248.18481356010307 26.005938494112343,248.2841130196466 26.32661717920564,248.7309604085749 26.78472958621569,248.8799094730639 27.013785789953545,249.12815784133272 27.334464475046843,249.22745716333156 27.563520678551868,249.42605576378992 28.479745493037626,250.02185121766524 28.525556733831763,250.17079999973066 31.503287380561233,252.1567806461244 32.053022269392386,252.2064300881466 32.28207847289741,252.70292430836707 32.28207847289741,252.85187250364106 32.69437963934615,252.9015218949644 33.19830328738317,253.14976879692404 33.702226935187355,253.1994181664195 33.839660657336935,253.44766495970543 34.48101802752353,254.09310619864846 35.80954400845803,254.78819607920013 36.26765641570091,255.235039199295 36.58833510079421,255.4336360472953 37.0922587485984,256.0790754035115 37.96267232229002,256.6252159193973 38.7872746551875,257.3699522804236 40.57391304336488,258.5615287635592 40.986214210046455,258.8097736018244 41.62757158000022,259.4552097574924 41.94825026509352,259.70345426979475 42.68123011640273,260.00134756509215 42.910286320140585,260.05099643493304 43.13934252387844,260.2495918783243 43.7348886532709,260.4978361009853 44.0555673383642,260.79572904884117 44.51367974537425,260.84537786082365 45.292470837943256,261.49081208673306 47.39978791074827,262.8809760339209 47.674655355280265,263.22851657727733 47.90371155878529,263.3774624700891 48.270201484672725,263.3774624700891 48.59088016953319,263.17886793910293 49.55291622481309,261.93765080784215 49.82778366911225,261.68940711021423 50.194273594999686,261.63975835975725 50.74400848359801,261.19291944312863 52.301590668270364,259.6538053745753 52.94294803822413,258.9090715116472 53.12619300093502,258.2139858380542 53.12619300093502,257.8664427351323 53.81336161191575,257.2210050733411 54.04241781542078,256.7741632566904 54.45471898210235,256.3273211469059 54.54634146345779,256.0294262440875 54.683775185607374,255.83082956977887 54.683775185607374,255.6322328375536 55.32513255556114,254.3413526660297 55.60000000009313,253.49731430743122 55.46256627771072,253.14976879692404 54.86702014831826,252.9015218949644 54.363096500514075,252.45467724342598 54.17985153757036,252.1567806461244 52.66808059392497,251.2630900721997 51.56861081649549,250.27009916963289 51.20212089060806,250.17079999973066 50.88144220574759,249.92255201161606 50.74400848359801,250.07150081539294 50.652386002009735,250.3197487491998" stroke="#fff900" stroke-linecap="round" stroke-linejoin="round" stroke-width="0.5"><title>2023-12-11 2.7km</title><desc>10361669003</desc></polyline><polyline fill="none" points="103.25213483115658,235.63671733310912 104.41707865195349,232.48033039527945 94.51505617983639,225.95710883964784 90.63191011268646,232.26990435400512 85.38966292142868,232.37511737842578 78.39999999990687,246.47359326435253 106.06741573056206,266.04289116035216 108.59146067406982,265.20120639086235 121.60000000009313,247.31528895895462 121.4058426967822,245.21104880131315 112.47460674168542,239.21394751453772" stroke="#ffff00" stroke-linecap="round" stroke-linejoin="round" stroke-width="0.5"><title>2023-12-06 1.2km</title><desc>1701838156000</desc></polyline><polyline fill="none" points="169.15505617996678,235.5315053097438 169.3492134832777,235.11065411707386 170.4170786519535,234.0585255982587 170.70831460691988,233.11160927498713 170.31999999983236,232.37511837191414 167.21348314592615,230.37606973946095 166.8251685393043,230.37606973946095 166.3397752805613,230.06043022847734 164.2040449436754,228.37701833678875 162.74786516884342,227.43009828485083 161.29168539354578,226.16753724822775 160.5150561798364,225.95711030147504 160.22382022487,226.27275071002077 159.738426966127,227.64052501658443 157.8939325842075,230.69170918152668 156.63191011268646,232.1646923306398 155.17573033692315,232.58554438257124 154.4961797753349,232.58554438257124 152.6516853934154,231.42820094397757 152.16629213513806,231.53341402218211 151.29258426977322,232.26990535506047 151.09842696599662,232.90118334128056 151.09842696599662,234.68980280158576 150.22471910109743,235.00544129987247 149.7393258428201,235.6367180889938 149.0597752807662,236.89927083835937 148.57438202248886,238.16182248294353 147.50651685427874,239.95043542131316 146.1474157301709,241.31819676037412 144.78831460652873,243.5276546458481 144.39999999990687,245.10583677794784 144.39999999990687,246.47359322954435 144.78831460652873,247.10486500093248 145.27370786527172,247.31528886326123 146.72988764056936,248.4726195569383 148.86561797792092,249.41952579829376 149.44808988738805,250.15600800036918 150.6130337077193,250.99770148552489 150.8071910114959,251.7341828821227 151.48674157308415,252.47066390293185 152.45752809010446,252.57587544654962 155.27280898904428,254.15404768113513 156.24359550559893,254.99573883414268 158.28224719129503,256.0478520843899 159.25303370784968,257.2051757735899 161.00044943811372,258.3624985344941 161.58292134851217,259.51982036733534 161.87415730347857,259.73024241882376 163.23325842712075,260.1510864299489 165.85438202274963,261.4136177273467 167.11640449427068,262.5709371124394 170.90247190976515,264.56994113710243 171.1937078651972,265.306415605708 171.87325842725113,265.8324685676489 172.45573033718392,266.0428896986414 173.13528089877218,266.0428896986414 174.3973033707589,265.20120499038603 175.17393258446828,264.1490984146949 175.465168538969,263.20220184046775 176.04764044983312,262.36051547527313 177.7950561796315,260.4667193577625 179.8337078653276,257.7312316893367 180.70741573069245,257.3103869719198 181.38696629181504,256.4686971696792 183.03730337042361,253.73320192075334 184.1051685390994,252.68108698248398 184.49348314618692,251.41854804381728 185.17303370777518,250.78727816022 186.532134831883,248.57783139240928 187.11460674135014,248.2621958636446 187.60000000009313,247.2100769355893 187.4058426967822,246.47359322954435 187.502921347972,245.42147299728822 187.4058426967822,245.21104885893874 185.94966292148456,244.79020048992243 184.6876404490322,244.15892770595383 183.32853932539,243.10680578567553 182.45483146049082,242.8963813096052 181.38696629181504,242.26510769699235 180.90157303353772,241.73904614232015 179.3483146065846,240.58171004685573 178.76584269665182,240.2660727686016 178.76584269665182,239.95043542131316 178.2804494383745,239.00352296547499 178.18337078671902,239.42437302251346 178.47460674168542,239.21394800930284" stroke="#ffff00" stroke-linecap="round" stroke-linejoin="round" stroke-width="0.5"><title>2023-12-06 1.3km</title><desc>10335782949</desc></polyline></svg>