<?xml version="1.0" encoding="utf-8" ?>
<svg baseProfile="full" height="200mm" version="1.1" viewBox="0,0,200,200" width="200mm" xmlns="http://www.w3.org/2000/svg" xmlns:ev="http://www.w3.org/2001/xml-events" xmlns:xlink="http://www.w3.org/1999/xlink"><defs /><rect fill="#1a1a1a" height="200" width="200" x="0" y="0" /><text alignment-baseline="middle" fill="#e1ed5e" style="dominant-baseline: central; font-size:9.0px; font-family:Arial;" text-anchor="middle" x="100.0" y="100.0">2024</text><line stroke="#e1ed5e" stroke-width="0.3" x1="100.0" x2="100.0" y1="15.0" y2="10.0" /><path d="M 100.0 14.0 a86.0,86.0 0 0,1 42.35913384403234,11.155469271406648" fill="none" id="id13" stroke="none" /><text fill="#e1ed5e" style="font-size:6.75px; font-family:Arial;" text-anchor="middle"><textPath startOffset="22.145653131862478" xlink:href="#id13">January</textPath></text><path d="M 100.36049292484886 79.00309439819443 l 0.023027250858148385 -1.3412219192383792 a22.341419580492087,22.341419580492087 0 0,0 0.38340715055088526,0.009875208159398302 l -0.04604771547977503 1.3406289937289357" fill="#ff0d01" stroke="none" /><path d="M 101.44090949804482 79.04949213459386 l 0.06541804945247852 -0.9511640817507141 a21.953411050705228,21.953411050705228 0 0,0 0.37574936200321324,0.02908537702409928 l -0.08173640623092522 0.9499009377315611" fill="#ff0801" stroke="none" /><path d="M 102.51750503828377 79.15144685158666 l 0.0941075169628028 -0.7793452403184616 a21.785006514849364,21.785006514849364 0 0,0 0.370886808538678,0.04801872277792042 l -0.10747214739227247 0.7776149213401442" fill="#ff0500" stroke="none" /><path d="M 102.87502721639298 79.19773525538626 l 0.1486732816800339 -1.0757258047242981 a22.08595108160324,22.08595108160324 0 0,0 0.37511925093260656,0.05512961194623947 l -0.16711763822032247 1.0730151194791762" fill="#ff0901" stroke="none" /><path d="M 103.23170211078529 79.25015418208739 l 0.12285865325855866 -0.7888406867710975 a21.798350723545738,21.798350723545738 0 0,0 0.369245892795457,0.06075927114495118 l -0.13638204910708618 0.786615417130478" fill="#ff0500" stroke="none" /><path d="M 103.94208987418118 79.37332000966035 l 0.14263649922236196 -0.7463344363789042 a21.75984226115387,21.75984226115387 0 0,0 0.36629431969570964,0.07326912260986693 l -0.15542730444902852 0.7437759171061781" fill="#ff0500" stroke="none" /><path d="M 104.29559338865022 79.4440306129975 l 3.6474069798063744 -17.45416277456337 a38.83119109418364,38.83119109418364 0 0,0 0.6513240433721831,0.14195304377292398 l -3.9464934397976914 17.388978272656725" fill="#ffe915" stroke="none" /><path d="M 104.9986988182912 79.60360301121754 l 0.2074337113606921 -0.8464003292791945 a21.871448370250814,21.871448370250814 0 0,0 0.36389372809808135,0.09250036268717804 l -0.22193273268416788 0.8427147347567489" fill="#ff0601" stroke="none" /><path d="M 105.69591212413111 79.78721728523813 l 0.4543825842489195 -1.6124434936215635 a22.67524253557246,22.67524253557246 0 0,0 0.3737527700241508,0.10879398422279678 l -0.4819953666546747 1.6044058150962508" fill="#ff1202" stroke="none" /><path d="M 106.04205211174951 79.88797359093562 l 0.1246760393795841 -0.415005986410417 a21.433329070744005,21.433329070744005 0 0,0 0.35146512544073794,0.10888479428237928 l -0.1317817976919522 0.41280460432139104" fill="#ff0000" stroke="none" /><path d="M 107.06938296918511 80.22567764915836 l 21.208148907555344 -59.32296705252493 a84.0,84.0 0 0,0 1.3536433933835013,0.49707660396511244 l -22.22338145259297 58.9501595995511" fill="#4dd2ff" stroke="none" /><path d="M 109.3889696526874 81.21577127319529 l 1.17055412854822 -2.3418923802210547 a23.61813996730479,23.61813996730479 0 0,0 0.3611019912981006,0.1843812497103645 l -1.2105833415598994 2.321453178837856" fill="#ff1f03" stroke="none" /><line stroke="#e1ed5e" stroke-width="0.3" x1="143.13028292997686" x2="145.6673583964461" y1="26.7553504044142" y2="22.446841604673864" /><path d="M 143.63769802327073 25.89364864446614 a86.0,86.0 0 0,1 29.32050498858742,28.57503671076993" fill="none" id="id14" stroke="none" /><text fill="#e1ed5e" style="font-size:6.75px; font-family:Arial;" text-anchor="middle"><textPath startOffset="20.669276256404974" xlink:href="#id14">February</textPath></text><path d="M 111.27062007382361 82.28071324371311 l 2.9031610118701305 -4.564251312886902 a26.40931917232036,26.40931917232036 0 0,0 0.3804380234255899,0.24659533046266566 l -2.981084667552728 4.513742140720342" fill="#ff4706" stroke="none" /><line stroke="#e1ed5e" stroke-width="0.3" x1="172.87174338648825" x2="177.1583165268699" y1="56.24261187166439" y2="53.66864786411523" /><path d="M 173.72905801456457 55.72781907015455 a86.0,86.0 0 0,1 12.242430191666344,42.057860355516425" fill="none" id="id15" stroke="none" /><text fill="#e1ed5e" style="font-size:6.75px; font-family:Arial;" text-anchor="middle"><textPath startOffset="22.145653131862474" xlink:href="#id15">March</textPath></text><path d="M 120.16314734710363 94.1308016681162 l 38.69348009060823 -11.263108129554928 a61.299416946903115,61.299416946903115 0 0,0 0.28542616304843366,1.012876759520987 l -38.88112474573125 10.597223446130927" fill="#31ff40" stroke="none" /><line stroke="#e1ed5e" stroke-width="0.3" x1="184.99686870605535" x2="189.99668451229388" y1="99.2704041080226" y2="99.22748670261217" /><path d="M 185.99683186730306 99.26182062694052 a86.0,86.0 0 0,1 -10.086455211305974,41.156179273409016" fill="none" id="id16" stroke="none" /><text fill="#e1ed5e" style="font-size:6.75px; font-family:Arial;" text-anchor="middle"><textPath startOffset="21.40746469413373" xlink:href="#id16">April</textPath></text><line stroke="#e1ed5e" stroke-width="0.3" x1="174.33088141563837" x2="178.70328620479359" y1="141.23008692659167" y2="143.65538615756765" /><path d="M 175.20536237346943 141.71514677278685 a86.0,86.0 0 0,1 -30.301960400862466,31.631185727798858" fill="none" id="id17" stroke="none" /><text fill="#e1ed5e" style="font-size:6.75px; font-family:Arial;" text-anchor="middle"><textPath startOffset="22.145653131862474" xlink:href="#id17">May</textPath></text><line stroke="#e1ed5e" stroke-width="0.3" x1="143.1302829299769" x2="145.66735839644613" y1="173.24464959558577" y2="177.55315839532614" /><path d="M 143.63769802327073 174.10635135553383 a86.0,86.0 0 0,1 -40.68552437913181,11.842963189579606" fill="none" id="id18" stroke="none" /><text fill="#e1ed5e" style="font-size:6.75px; font-family:Arial;" text-anchor="middle"><textPath startOffset="21.407464694133747" xlink:href="#id18">June</textPath></text><line stroke="#e1ed5e" stroke-width="0.3" x1="101.45913802915013" x2="101.54496967792366" y1="184.9874750549273" y2="189.98673829345242" /><path d="M 101.47630435890484 185.9873277026323 a86.0,86.0 0 0,1 -42.54439059252881,-10.42667462771756" fill="none" id="id19" stroke="none" /><text fill="#e1ed5e" style="font-size:6.75px; font-family:Arial;" text-anchor="middle"><textPath startOffset="22.145653131862474" xlink:href="#id19">July</textPath></text><line stroke="#e1ed5e" stroke-width="0.3" x1="58.13341422392154" x2="55.67067388415222" y1="173.97424548756322" y2="178.32567169271397" /><path d="M 57.64086615596768 174.84453072859336 a86.0,86.0 0 0,1 -31.369924170532247,-30.572349798747897" fill="none" id="id20" stroke="none" /><text fill="#e1ed5e" style="font-size:6.75px; font-family:Arial;" text-anchor="middle"><textPath startOffset="22.145653131862474" xlink:href="#id20">August</textPath></text><line stroke="#e1ed5e" stroke-width="0.3" x1="26.387840678322732" x2="22.057713659400534" y1="142.50000000000003" y2="145.00000000000006" /><path d="M 25.521815274538284 143.00000000000003 a86.0,86.0 0 0,1 -11.493303480769212,-40.785679425670985" fill="none" id="id21" stroke="none" /><text fill="#e1ed5e" style="font-size:6.75px; font-family:Arial;" text-anchor="middle"><textPath startOffset="21.40746469413373" xlink:href="#id21">September</textPath></text><line stroke="#e1ed5e" stroke-width="0.3" x1="15.003131293944662" x2="10.003315487706104" y1="100.72959589197737" y2="100.7725132973878" /><path d="M 14.003168132696942 100.73817937305945 a86.0,86.0 0 0,1 10.791469493833604,-42.45332614584628" fill="none" id="id22" stroke="none" /><text fill="#e1ed5e" style="font-size:6.75px; font-family:Arial;" text-anchor="middle"><textPath startOffset="22.145653131862435" xlink:href="#id22">October</textPath></text><line stroke="#e1ed5e" stroke-width="0.3" x1="26.387840678322718" x2="22.05771365940052" y1="57.49999999999999" y2="54.99999999999999" /><path d="M 25.521815274538284 56.99999999999999 a86.0,86.0 0 0,1 29.574782752854787,-30.34633250058573" fill="none" id="id23" stroke="none" /><text fill="#e1ed5e" style="font-size:6.75px; font-family:Arial;" text-anchor="middle"><textPath startOffset="21.40746469413373" xlink:href="#id23">November</textPath></text><line stroke="#e1ed5e" stroke-width="0.3" x1="56.869717070023135" x2="54.33264160355391" y1="26.7553504044142" y2="22.446841604673864" /><path d="M 56.362301976729285 25.89364864446614 a86.0,86.0 0 0,1 42.16139366436587,-11.88097634709845" fill="none" id="id24" stroke="none" /><text fill="#e1ed5e" style="font-size:6.75px; font-family:Arial;" text-anchor="middle"><textPath startOffset="22.145653131862474" xlink:href="#id24">December</textPath></text></svg>