<?xml version="1.0" encoding="utf-8" ?>
<svg baseProfile="full" height="200mm" version="1.1" viewBox="0,0,200,200" width="200mm" xmlns="http://www.w3.org/2000/svg" xmlns:ev="http://www.w3.org/2001/xml-events" xmlns:xlink="http://www.w3.org/1999/xlink"><defs /><rect fill="#1a1a1a" height="200" width="200" x="0" y="0" /><text alignment-baseline="middle" fill="#e1ed5e" style="dominant-baseline: central; font-size:9.0px; font-family:Arial;" text-anchor="middle" x="100.0" y="100.0">2023</text><line stroke="#e1ed5e" stroke-width="0.3" x1="100.0" x2="100.0" y1="15.0" y2="10.0" /><path d="M 100.0 14.0 a86.0,86.0 0 0,1 42.46469731375804,11.215312516191453" fill="none" id="id1" stroke="none" /><text fill="#e1ed5e" style="font-size:6.75px; font-family:Arial;" text-anchor="middle"><textPath startOffset="22.20632615414155" xlink:href="#id1">January</textPath></text><line stroke="#e1ed5e" stroke-width="0.3" x1="143.23703022742887" x2="145.7803849466894" y1="26.81831364943548" y2="22.513508569990506" /><path d="M 143.74570117128098 25.957352633546492 a86.0,86.0 0 0,1 28.547481713284135,27.462654790039103" fill="none" id="id2" stroke="none" /><text fill="#e1ed5e" style="font-size:6.75px; font-family:Arial;" text-anchor="middle"><textPath startOffset="19.985693538727396" xlink:href="#id2">February</textPath></text><line stroke="#e1ed5e" stroke-width="0.3" x1="172.23445277983987" x2="176.4835382374775" y1="55.19839476539836" y2="52.563006222186495" /><path d="M 173.08426987136738 54.67131705675599 a86.0,86.0 0 0,1 12.851231095245387,41.99856678651699" fill="none" id="id3" stroke="none" /><text fill="#e1ed5e" style="font-size:6.75px; font-family:Arial;" text-anchor="middle"><textPath startOffset="22.20632615414155" xlink:href="#id3">March</textPath></text><line stroke="#e1ed5e" stroke-width="0.3" x1="184.98032266829074" x2="189.97916517819016" y1="98.17113171792111" y2="98.06355123074" /><path d="M 185.9800911702706 98.14961562048488 a86.0,86.0 0 0,1 -9.607161424134198,41.387399972396054" fill="none" id="id4" stroke="none" /><text fill="#e1ed5e" style="font-size:6.75px; font-family:Arial;" text-anchor="middle"><textPath startOffset="21.466115282336823" xlink:href="#id4">April</textPath></text><line stroke="#e1ed5e" stroke-width="0.3" x1="174.80103733775053" x2="179.2010983576182" y1="140.37084112569926" y2="142.7455964860345" /><path d="M 175.68104954172406 140.8457921977663 a86.0,86.0 0 0,1 -30.038265399797805,32.042727171017184" fill="none" id="id5" stroke="none" /><text fill="#e1ed5e" style="font-size:6.75px; font-family:Arial;" text-anchor="middle"><textPath startOffset="22.206326154141568" xlink:href="#id5">May</textPath></text><line stroke="#e1ed5e" stroke-width="0.3" x1="143.8653032363475" x2="146.44561519142675" y1="172.8068346515853" y2="177.08958963109032" /><path d="M 144.38136562736335 173.6633856474863 a86.0,86.0 0 0,1 -40.68145358897372,12.25698825130547" fill="none" id="id6" stroke="none" /><text fill="#e1ed5e" style="font-size:6.75px; font-family:Arial;" text-anchor="middle"><textPath startOffset="21.466115282336833" xlink:href="#id6">June</textPath></text><line stroke="#e1ed5e" stroke-width="0.3" x1="102.19456741930631" x2="102.32365962044197" y1="184.97166512339345" y2="189.96999836594603" /><path d="M 102.22038585953345 185.97133177190398 a86.0,86.0 0 0,1 -42.740103519485714,-10.115201625700543" fill="none" id="id7" stroke="none" /><text fill="#e1ed5e" style="font-size:6.75px; font-family:Arial;" text-anchor="middle"><textPath startOffset="22.20632615414155" xlink:href="#id7">July</textPath></text><line stroke="#e1ed5e" stroke-width="0.3" x1="58.666819895761336" x2="56.23545636021788" y1="174.27360380694188" y2="178.64263932499728" /><path d="M 58.180547188652646 175.14741091055294 a86.0,86.0 0 0,1 -31.652253787137756,-30.449443065178592" fill="none" id="id8" stroke="none" /><text fill="#e1ed5e" style="font-size:6.75px; font-family:Arial;" text-anchor="middle"><textPath startOffset="22.20632615414155" xlink:href="#id8">August</textPath></text><line stroke="#e1ed5e" stroke-width="0.3" x1="26.63291911575756" x2="22.317208475507996" y1="142.92168965132927" y2="145.44649492493687" /><path d="M 25.769776987707644 143.4266507060508 a86.0,86.0 0 0,1 -11.730757126820373,-40.83630448921669" fill="none" id="id9" stroke="none" /><text fill="#e1ed5e" style="font-size:6.75px; font-family:Arial;" text-anchor="middle"><textPath startOffset="21.46611528233685" xlink:href="#id9">September</textPath></text><line stroke="#e1ed5e" stroke-width="0.3" x1="15.007084014347285" x2="10.007500721073583" y1="101.09737516637583" y2="101.16192664675087" /><path d="M 14.007167355692545 101.11028546245083 a86.0,86.0 0 0,1 10.666146001902534,-42.60595125391555" fill="none" id="id10" stroke="none" /><text fill="#e1ed5e" style="font-size:6.75px; font-family:Arial;" text-anchor="middle"><textPath startOffset="22.20632615414155" xlink:href="#id10">October</textPath></text><line stroke="#e1ed5e" stroke-width="0.3" x1="26.266209847984243" x2="21.928928074336255" y1="57.711370442889674" y2="55.22380399835377" /><path d="M 25.398753493254645 57.213857153982495 a86.0,86.0 0 0,1 29.58750427330803,-30.492523968695096" fill="none" id="id11" stroke="none" /><text fill="#e1ed5e" style="font-size:6.75px; font-family:Arial;" text-anchor="middle"><textPath startOffset="21.46611528233685" xlink:href="#id11">November</textPath></text><line stroke="#e1ed5e" stroke-width="0.3" x1="56.76296977257108" x2="54.21961505331056" y1="26.818313649435495" y2="22.513508569990535" /><path d="M 56.25429882871898 25.957352633546506 a86.0,86.0 0 0,1 42.26535254187918,-11.944610805530505" fill="none" id="id12" stroke="none" /><text fill="#e1ed5e" style="font-size:6.75px; font-family:Arial;" text-anchor="middle"><textPath startOffset="22.20632615414155" xlink:href="#id12">December</textPath></text><path d="M 90.91171255644093 81.06846463323043 l -0.3524521542427845 -0.734182370944948 a21.814399333764907,21.814399333764907 0 0,0 0.339911750924723,-0.1595931247781323 l 0.33976219201845304 0.7401404783630878" fill="#ff0100" stroke="none" /><path d="M 92.57280143429618 80.3572730644239 l -1.3680711259790046 -3.6181404493667566 a24.868146703148852,24.868146703148852 0 0,0 0.4017007089042251,-0.14794976118116168 l 1.305588091302211 3.6411534783542403" fill="#ff2d04" stroke="none" /><path d="M 92.91201910852362 80.23233633223022 l -0.7554350978614227 -2.1068322793182457 a23.23817435430268,23.23817435430268 0 0,0 0.37769557618278804,-0.13177057028313321 l 0.7190575176153494 2.1195237027735887" fill="#ff1602" stroke="none" /><path d="M 93.25333710446033 80.11325718540243 l -0.703498981646175 -2.073662718138475 a23.18974607792197,23.18974607792197 0 0,0 0.3791161036374918,-0.12498861875876313 l 0.6677000557662738 2.085465061156472" fill="#ff1502" stroke="none" /><path d="M 93.59665428221793 80.00007090966166 l -1.2223814602363965 -3.8179326251558456 a25.00884346970034,25.00884346970034 0 0,0 0.41111517034896805,-0.1277354846335285 l 1.1564809171766997 3.838408244671899" fill="#ff2f04" stroke="none" /><path d="M 93.94186890950719 79.89281104454417 l -0.9463709557050192 -3.1410445472496704 a24.28051502566425,24.28051502566425 0 0,0 0.4012179158389976,-0.11712651175306812 l 0.8921628221426002 3.156869387921437" fill="#ff2503" stroke="none" /><path d="M 94.28887869178378 79.79150937346287 l -2.378568087701792 -8.416433185502584 a29.746081048896272,29.746081048896272 0 0,0 0.4939295832891598,-0.13500961341103174 l 2.2333406151889097 8.456129339739912" fill="#ff710a" stroke="none" /><path d="M 94.63758080256005 79.69619591428918 l -1.5297598895921058 -5.792151630235274 a26.990758368307137,26.990758368307137 0 0,0 0.4502201306699504,-0.11477113587714335 l 1.429830870237156 5.81762576228128" fill="#ff4b07" stroke="none" /><path d="M 94.98787191387505 79.60689891045804 l -0.17507029629003332 -0.7123174405502829 a21.733516015336534,21.733516015336534 0 0,0 0.3640636253912288,-0.08616209770612454 l 0.1627829839362705 0.7152254503972785" fill="#ff0000" stroke="none" /><path d="M 95.33964822691252 79.52364482259891 l -0.42883454274961647 -1.8841857518970386 a22.9323703094146,22.9323703094146 0 0,0 0.3856539727226447,-0.08428902116923263 l 0.39633784587345083 1.8912882711621395" fill="#ff1101" stroke="none" /><path d="M 95.692805502759 79.44645832069477 l -0.1493228339885802 -0.712555027181195 a21.728032949468343,21.728032949468343 0 0,0 0.3667211777855443,-0.07356081833005787 l 0.13703524673589948 0.7150198015884636" fill="#ff0000" stroke="none" /><path d="M 96.04723909329186 79.375362276772 l -0.3411790775930734 -1.7801974468428947 a22.812596511287943,22.812596511287943 0 0,0 0.38629860093929086,-0.07059360016313912 l 0.31048535555088924 1.7858065283567701" fill="#ff1001" stroke="none" /><path d="M 96.40284397218896 79.31037775812273 l -0.16516063970987332 -0.9499480196035527 a21.96419877455745,21.96419877455745 0 0,0 0.3730470577830819,-0.06155596092474148 l 0.14878437578790576 0.9526502434679212" fill="#ff0300" stroke="none" /><path d="M 97.47563105711357 79.15227682838746 l -0.19429101522513048 -1.6045694554907677 a22.616289620114895,22.616289620114895 0 0,0 0.3868821083148963,-0.04347071269279705 l 0.16664220340051622 1.607676121654163" fill="#ff0d01" stroke="none" /><path d="M 97.83486435360386 79.11191278185805 l -0.18227802727121964 -1.7585223068723441 a22.767943998828446,22.767943998828446 0 0,0 0.39017195014261924,-0.03705152803184881 l 0.1519809500383641 1.7613993794193734" fill="#ff0f01" stroke="none" /><path d="M 98.19473922651362 79.07773832637324 l -0.09804658091319278 -1.1363212740221404 a22.140543366042724,22.140543366042724 0 0,0 0.3799842400938327,-0.029494090270001334 l 0.07847215145702592 1.1378406264806038" fill="#ff0601" stroke="none" /><path d="M 98.55514903715128 79.0497635885617 l -0.11610209845947674 -1.6834721871897376 a22.687470978212097,22.687470978212097 0 0,0 0.3898333592756461,-0.023515812820231373 l 0.08710669034420768 1.6852212693902753" fill="#ff0e01" stroke="none" /><path d="M 98.91598698831166 79.02799685794201 l -0.037399473418663405 -0.723553929325922 a21.72451984738513,21.72451984738513 0 0,0 0.3736195002296772,-0.01608884160938775 l 0.024939140799662068 0.7240904974595022" fill="#ff0000" stroke="none" /><path d="M 99.27714615592234 79.0124445844662 l -2.1685615322329856 -62.9626662466014 a84.0,84.0 0 0,0 1.445493459220484,-0.03733283143056143 l 1.0844414378176228 62.990665870174325" fill="#4dd2ff" stroke="none" /><path d="M 99.63851952072746 79.00311137660856 l -0.04202258115752017 -2.4409159189108776 a23.441277620533903,23.441277620533903 0 0,0 0.4035030604300553,-0.003473078231583985 l 5.979405647633822e-16 2.441277620533903" fill="#ff1902" stroke="none" /></svg>